  0
SECTION
  2
HEADER
  9
$ACADVER
  1
AC1009
  9
$EXTMIN
 10
0.0
 20
0.0
 30
0.0
  9
$EXTMAX
 10
1000.0
 20
1000.0
 30
0.0
  9
$FILLMODE
 70
 0
  9
$SPLFRAME
 70
 1
  0
ENDSEC
  0
SECTION
  2
TABLES
  0
TABLE
  2
LAYER
 70
1
  0
LAYER
  2
0
 70
     0
 62
     7
  6
CONTINUOUS
  0
ENDTAB
  0
ENDSEC
  0
SECTION
  2
ENTITIES
  0
LINE
  8
0
 62
     0
 10
105.154
 20
422.702
 30
0.0
 11
97.0608
 21
421.531
 31
0.0
  0
LINE
  8
0
 62
     0
 10
97.0608
 20
421.531
 30
0.0
 11
89.093
 21
419.788
 31
0.0
  0
LINE
  8
0
 62
     0
 10
89.093
 20
419.788
 30
0.0
 11
81.2602
 21
417.481
 31
0.0
  0
LINE
  8
0
 62
     0
 10
81.2602
 20
417.481
 30
0.0
 11
73.5803
 21
414.62
 31
0.0
  0
LINE
  8
0
 62
     0
 10
73.5803
 20
414.62
 30
0.0
 11
66.0647
 21
411.208
 31
0.0
  0
LINE
  8
0
 62
     0
 10
66.0647
 20
411.208
 30
0.0
 11
58.7294
 21
407.25
 31
0.0
  0
LINE
  8
0
 62
     0
 10
58.7294
 20
407.25
 30
0.0
 11
51.5867
 21
402.752
 31
0.0
  0
LINE
  8
0
 62
     0
 10
51.5867
 20
402.752
 30
0.0
 11
44.6525
 21
397.725
 31
0.0
  0
LINE
  8
0
 62
     0
 10
44.6525
 20
397.725
 30
0.0
 11
42.8103
 21
396.205
 31
0.0
  0
LINE
  8
0
 62
     0
 10
42.8103
 20
396.205
 30
0.0
 11
40.5363
 21
394.183
 31
0.0
  0
LINE
  8
0
 62
     0
 10
40.5363
 20
394.183
 30
0.0
 11
37.991
 21
391.809
 31
0.0
  0
LINE
  8
0
 62
     0
 10
37.991
 20
391.809
 30
0.0
 11
35.33
 21
389.248
 31
0.0
  0
LINE
  8
0
 62
     0
 10
35.33
 20
389.248
 30
0.0
 11
32.7119
 21
386.644
 31
0.0
  0
LINE
  8
0
 62
     0
 10
32.7119
 20
386.644
 30
0.0
 11
30.2962
 21
384.157
 31
0.0
  0
LINE
  8
0
 62
     0
 10
30.2962
 20
384.157
 30
0.0
 11
28.2374
 21
381.945
 31
0.0
  0
LINE
  8
0
 62
     0
 10
28.2374
 20
381.945
 30
0.0
 11
26.6967
 21
380.157
 31
0.0
  0
LINE
  8
0
 62
     0
 10
26.6967
 20
380.157
 30
0.0
 11
21.5966
 21
373.387
 31
0.0
  0
LINE
  8
0
 62
     0
 10
21.5966
 20
373.387
 30
0.0
 11
17.0367
 21
366.427
 31
0.0
  0
LINE
  8
0
 62
     0
 10
17.0367
 20
366.427
 30
0.0
 11
13.0101
 21
359.258
 31
0.0
  0
LINE
  8
0
 62
     0
 10
13.0101
 20
359.258
 30
0.0
 11
9.51121
 21
351.87
 31
0.0
  0
LINE
  8
0
 62
     0
 10
9.51121
 20
351.87
 30
0.0
 11
6.53327
 21
344.245
 31
0.0
  0
LINE
  8
0
 62
     0
 10
6.53327
 20
344.245
 30
0.0
 11
4.06936
 21
336.368
 31
0.0
  0
LINE
  8
0
 62
     0
 10
4.06936
 20
336.368
 30
0.0
 11
2.11391
 21
328.224
 31
0.0
  0
LINE
  8
0
 62
     0
 10
2.11391
 20
328.224
 30
0.0
 11
0.661458
 21
319.797
 31
0.0
  0
LINE
  8
0
 62
     0
 10
0.661458
 20
319.797
 30
0.0
 11
0.372071
 21
316.969
 31
0.0
  0
LINE
  8
0
 62
     0
 10
0.372071
 20
316.969
 30
0.0
 11
0.165365
 21
313.385
 31
0.0
  0
LINE
  8
0
 62
     0
 10
0.165365
 20
313.385
 30
0.0
 11
0.0413413
 21
309.299
 31
0.0
  0
LINE
  8
0
 62
     0
 10
0.0413413
 20
309.299
 30
0.0
 11
0
 21
304.96
 31
0.0
  0
LINE
  8
0
 62
     0
 10
0
 20
304.96
 30
0.0
 11
0.0413413
 21
300.618
 31
0.0
  0
LINE
  8
0
 62
     0
 10
0.0413413
 20
300.618
 30
0.0
 11
0.165365
 21
296.526
 31
0.0
  0
LINE
  8
0
 62
     0
 10
0.165365
 20
296.526
 30
0.0
 11
0.372071
 21
292.935
 31
0.0
  0
LINE
  8
0
 62
     0
 10
0.372071
 20
292.935
 30
0.0
 11
0.661458
 21
290.094
 31
0.0
  0
LINE
  8
0
 62
     0
 10
0.661458
 20
290.094
 30
0.0
 11
1.69085
 21
283.785
 31
0.0
  0
LINE
  8
0
 62
     0
 10
1.69085
 20
283.785
 30
0.0
 11
2.95865
 21
277.77
 31
0.0
  0
LINE
  8
0
 62
     0
 10
2.95865
 20
277.77
 30
0.0
 11
4.5048
 21
271.934
 31
0.0
  0
LINE
  8
0
 62
     0
 10
4.5048
 20
271.934
 30
0.0
 11
6.37067
 21
266.163
 31
0.0
  0
LINE
  8
0
 62
     0
 10
6.37067
 20
266.163
 30
0.0
 11
8.60033
 21
260.34
 31
0.0
  0
LINE
  8
0
 62
     0
 10
8.60033
 20
260.34
 30
0.0
 11
11.2324
 21
254.35
 31
0.0
  0
LINE
  8
0
 62
     0
 10
11.2324
 20
254.35
 30
0.0
 11
14.3109
 21
248.08
 31
0.0
  0
LINE
  8
0
 62
     0
 10
14.3109
 20
248.08
 30
0.0
 11
17.8773
 21
241.41
 31
0.0
  0
LINE
  8
0
 62
     0
 10
17.8773
 20
241.41
 30
0.0
 11
19.4372
 21
238.489
 31
0.0
  0
LINE
  8
0
 62
     0
 10
19.4372
 20
238.489
 30
0.0
 11
21.5497
 21
234.461
 31
0.0
  0
LINE
  8
0
 62
     0
 10
21.5497
 20
234.461
 30
0.0
 11
23.9338
 21
229.851
 31
0.0
  0
LINE
  8
0
 62
     0
 10
23.9338
 20
229.851
 30
0.0
 11
26.3081
 21
225.183
 31
0.0
  0
LINE
  8
0
 62
     0
 10
26.3081
 20
225.183
 30
0.0
 11
32.3178
 21
212.933
 31
0.0
  0
LINE
  8
0
 62
     0
 10
32.3178
 20
212.933
 30
0.0
 11
37.5419
 21
201.476
 31
0.0
  0
LINE
  8
0
 62
     0
 10
37.5419
 20
201.476
 30
0.0
 11
42.0631
 21
190.576
 31
0.0
  0
LINE
  8
0
 62
     0
 10
42.0631
 20
190.576
 30
0.0
 11
45.9617
 21
179.993
 31
0.0
  0
LINE
  8
0
 62
     0
 10
45.9617
 20
179.993
 30
0.0
 11
49.3201
 21
169.489
 31
0.0
  0
LINE
  8
0
 62
     0
 10
49.3201
 20
169.489
 30
0.0
 11
52.2192
 21
158.826
 31
0.0
  0
LINE
  8
0
 62
     0
 10
52.2192
 20
158.826
 30
0.0
 11
54.7398
 21
147.766
 31
0.0
  0
LINE
  8
0
 62
     0
 10
54.7398
 20
147.766
 30
0.0
 11
56.9655
 21
136.07
 31
0.0
  0
LINE
  8
0
 62
     0
 10
56.9655
 20
136.07
 30
0.0
 11
58.535
 21
128.098
 31
0.0
  0
LINE
  8
0
 62
     0
 10
58.535
 20
128.098
 30
0.0
 11
60.1927
 21
121.894
 31
0.0
  0
LINE
  8
0
 62
     0
 10
60.1927
 20
121.894
 30
0.0
 11
62.0339
 21
117.126
 31
0.0
  0
LINE
  8
0
 62
     0
 10
62.0339
 20
117.126
 30
0.0
 11
64.1615
 21
113.458
 31
0.0
  0
LINE
  8
0
 62
     0
 10
64.1615
 20
113.458
 30
0.0
 11
66.6641
 21
110.665
 31
0.0
  0
LINE
  8
0
 62
     0
 10
66.6641
 20
110.665
 30
0.0
 11
69.6817
 21
108.545
 31
0.0
  0
LINE
  8
0
 62
     0
 10
69.6817
 20
108.545
 30
0.0
 11
73.309
 21
107.049
 31
0.0
  0
LINE
  8
0
 62
     0
 10
73.309
 20
107.049
 30
0.0
 11
77.6372
 21
106.12
 31
0.0
  0
LINE
  8
0
 62
     0
 10
77.6372
 20
106.12
 30
0.0
 11
79.0621
 21
106.04
 31
0.0
  0
LINE
  8
0
 62
     0
 10
79.0621
 20
106.04
 30
0.0
 11
81.9549
 21
105.97
 31
0.0
  0
LINE
  8
0
 62
     0
 10
81.9549
 20
105.97
 30
0.0
 11
86.1053
 21
105.911
 31
0.0
  0
LINE
  8
0
 62
     0
 10
86.1053
 20
105.911
 30
0.0
 11
91.3035
 21
105.862
 31
0.0
  0
LINE
  8
0
 62
     0
 10
91.3035
 20
105.862
 30
0.0
 11
97.3391
 21
105.825
 31
0.0
  0
LINE
  8
0
 62
     0
 10
97.3391
 20
105.825
 30
0.0
 11
104.005
 21
105.797
 31
0.0
  0
LINE
  8
0
 62
     0
 10
104.005
 20
105.797
 30
0.0
 11
111.089
 21
105.782
 31
0.0
  0
LINE
  8
0
 62
     0
 10
111.089
 20
105.782
 30
0.0
 11
118.383
 21
105.777
 31
0.0
  0
LINE
  8
0
 62
     0
 10
118.383
 20
105.777
 30
0.0
 11
125.677
 21
105.782
 31
0.0
  0
LINE
  8
0
 62
     0
 10
125.677
 20
105.782
 30
0.0
 11
132.762
 21
105.797
 31
0.0
  0
LINE
  8
0
 62
     0
 10
132.762
 20
105.797
 30
0.0
 11
139.427
 21
105.825
 31
0.0
  0
LINE
  8
0
 62
     0
 10
139.427
 20
105.825
 30
0.0
 11
145.463
 21
105.862
 31
0.0
  0
LINE
  8
0
 62
     0
 10
145.463
 20
105.862
 30
0.0
 11
150.661
 21
105.911
 31
0.0
  0
LINE
  8
0
 62
     0
 10
150.661
 20
105.911
 30
0.0
 11
154.81
 21
105.97
 31
0.0
  0
LINE
  8
0
 62
     0
 10
154.81
 20
105.97
 30
0.0
 11
157.703
 21
106.04
 31
0.0
  0
LINE
  8
0
 62
     0
 10
157.703
 20
106.04
 30
0.0
 11
159.129
 21
106.12
 31
0.0
  0
LINE
  8
0
 62
     0
 10
159.129
 20
106.12
 30
0.0
 11
163.456
 21
107.049
 31
0.0
  0
LINE
  8
0
 62
     0
 10
163.456
 20
107.049
 30
0.0
 11
167.084
 21
108.545
 31
0.0
  0
LINE
  8
0
 62
     0
 10
167.084
 20
108.545
 30
0.0
 11
170.102
 21
110.665
 31
0.0
  0
LINE
  8
0
 62
     0
 10
170.102
 20
110.665
 30
0.0
 11
172.605
 21
113.458
 31
0.0
  0
LINE
  8
0
 62
     0
 10
172.605
 20
113.458
 30
0.0
 11
174.731
 21
117.126
 31
0.0
  0
LINE
  8
0
 62
     0
 10
174.731
 20
117.126
 30
0.0
 11
176.573
 21
121.894
 31
0.0
  0
LINE
  8
0
 62
     0
 10
176.573
 20
121.894
 30
0.0
 11
178.23
 21
128.098
 31
0.0
  0
LINE
  8
0
 62
     0
 10
178.23
 20
128.098
 30
0.0
 11
179.802
 21
136.07
 31
0.0
  0
LINE
  8
0
 62
     0
 10
179.802
 20
136.07
 30
0.0
 11
181.339
 21
144.385
 31
0.0
  0
LINE
  8
0
 62
     0
 10
181.339
 20
144.385
 30
0.0
 11
182.98
 21
152.232
 31
0.0
  0
LINE
  8
0
 62
     0
 10
182.98
 20
152.232
 30
0.0
 11
184.76
 21
159.724
 31
0.0
  0
LINE
  8
0
 62
     0
 10
184.76
 20
159.724
 30
0.0
 11
186.712
 21
166.978
 31
0.0
  0
LINE
  8
0
 62
     0
 10
186.712
 20
166.978
 30
0.0
 11
188.866
 21
174.11
 31
0.0
  0
LINE
  8
0
 62
     0
 10
188.866
 20
174.11
 30
0.0
 11
191.257
 21
181.23
 31
0.0
  0
LINE
  8
0
 62
     0
 10
191.257
 20
181.23
 30
0.0
 11
193.915
 21
188.456
 31
0.0
  0
LINE
  8
0
 62
     0
 10
193.915
 20
188.456
 30
0.0
 11
196.876
 21
195.902
 31
0.0
  0
LINE
  8
0
 62
     0
 10
196.876
 20
195.902
 30
0.0
 11
201.519
 21
206.63
 31
0.0
  0
LINE
  8
0
 62
     0
 10
201.519
 20
206.63
 30
0.0
 11
206.983
 21
218.277
 31
0.0
  0
LINE
  8
0
 62
     0
 10
206.983
 20
218.277
 30
0.0
 11
212.95
 21
230.203
 31
0.0
  0
LINE
  8
0
 62
     0
 10
212.95
 20
230.203
 30
0.0
 11
219.101
 21
241.763
 31
0.0
  0
LINE
  8
0
 62
     0
 10
219.101
 20
241.763
 30
0.0
 11
221.914
 21
247.035
 31
0.0
  0
LINE
  8
0
 62
     0
 10
221.914
 20
247.035
 30
0.0
 11
224.591
 21
252.368
 31
0.0
  0
LINE
  8
0
 62
     0
 10
224.591
 20
252.368
 30
0.0
 11
226.905
 21
257.286
 31
0.0
  0
LINE
  8
0
 62
     0
 10
226.905
 20
257.286
 30
0.0
 11
228.626
 21
261.306
 31
0.0
  0
LINE
  8
0
 62
     0
 10
228.626
 20
261.306
 30
0.0
 11
231.499
 21
269.576
 31
0.0
  0
LINE
  8
0
 62
     0
 10
231.499
 20
269.576
 30
0.0
 11
233.803
 21
278.059
 31
0.0
  0
LINE
  8
0
 62
     0
 10
233.803
 20
278.059
 30
0.0
 11
235.511
 21
286.643
 31
0.0
  0
LINE
  8
0
 62
     0
 10
235.511
 20
286.643
 30
0.0
 11
236.6
 21
295.209
 31
0.0
  0
LINE
  8
0
 62
     0
 10
236.6
 20
295.209
 30
0.0
 11
236.748
 21
297.735
 31
0.0
  0
LINE
  8
0
 62
     0
 10
236.748
 20
297.735
 30
0.0
 11
236.828
 21
300.797
 31
0.0
  0
LINE
  8
0
 62
     0
 10
236.828
 20
300.797
 30
0.0
 11
236.843
 21
304.21
 31
0.0
  0
LINE
  8
0
 62
     0
 10
236.843
 20
304.21
 30
0.0
 11
236.796
 21
307.79
 31
0.0
  0
LINE
  8
0
 62
     0
 10
236.796
 20
307.79
 30
0.0
 11
236.692
 21
311.352
 31
0.0
  0
LINE
  8
0
 62
     0
 10
236.692
 20
311.352
 30
0.0
 11
236.533
 21
314.711
 31
0.0
  0
LINE
  8
0
 62
     0
 10
236.533
 20
314.711
 30
0.0
 11
236.325
 21
317.682
 31
0.0
  0
LINE
  8
0
 62
     0
 10
236.325
 20
317.682
 30
0.0
 11
236.07
 21
320.08
 31
0.0
  0
LINE
  8
0
 62
     0
 10
236.07
 20
320.08
 30
0.0
 11
234.262
 21
330.102
 31
0.0
  0
LINE
  8
0
 62
     0
 10
234.262
 20
330.102
 30
0.0
 11
231.702
 21
339.783
 31
0.0
  0
LINE
  8
0
 62
     0
 10
231.702
 20
339.783
 30
0.0
 11
228.399
 21
349.107
 31
0.0
  0
LINE
  8
0
 62
     0
 10
228.399
 20
349.107
 30
0.0
 11
224.361
 21
358.055
 31
0.0
  0
LINE
  8
0
 62
     0
 10
224.361
 20
358.055
 30
0.0
 11
219.597
 21
366.617
 31
0.0
  0
LINE
  8
0
 62
     0
 10
219.597
 20
366.617
 30
0.0
 11
214.117
 21
374.77
 31
0.0
  0
LINE
  8
0
 62
     0
 10
214.117
 20
374.77
 30
0.0
 11
207.928
 21
382.499
 31
0.0
  0
LINE
  8
0
 62
     0
 10
207.928
 20
382.499
 30
0.0
 11
201.039
 21
389.788
 31
0.0
  0
LINE
  8
0
 62
     0
 10
201.039
 20
389.788
 30
0.0
 11
193.637
 21
396.43
 31
0.0
  0
LINE
  8
0
 62
     0
 10
193.637
 20
396.43
 30
0.0
 11
185.751
 21
402.392
 31
0.0
  0
LINE
  8
0
 62
     0
 10
185.751
 20
402.392
 30
0.0
 11
177.431
 21
407.659
 31
0.0
  0
LINE
  8
0
 62
     0
 10
177.431
 20
407.659
 30
0.0
 11
168.724
 21
412.203
 31
0.0
  0
LINE
  8
0
 62
     0
 10
168.724
 20
412.203
 30
0.0
 11
159.68
 21
416.006
 31
0.0
  0
LINE
  8
0
 62
     0
 10
159.68
 20
416.006
 30
0.0
 11
150.348
 21
419.044
 31
0.0
  0
LINE
  8
0
 62
     0
 10
150.348
 20
419.044
 30
0.0
 11
140.775
 21
421.294
 31
0.0
  0
LINE
  8
0
 62
     0
 10
140.775
 20
421.294
 30
0.0
 11
131.013
 21
422.737
 31
0.0
  0
LINE
  8
0
 62
     0
 10
131.013
 20
422.737
 30
0.0
 11
125.141
 21
423.111
 31
0.0
  0
LINE
  8
0
 62
     0
 10
125.141
 20
423.111
 30
0.0
 11
118.043
 21
423.224
 31
0.0
  0
LINE
  8
0
 62
     0
 10
118.043
 20
423.224
 30
0.0
 11
110.965
 21
423.086
 31
0.0
  0
LINE
  8
0
 62
     0
 10
110.965
 20
423.086
 30
0.0
 11
105.154
 21
422.702
 31
0.0
  0
LINE
  8
0
 62
     0
 10
74.9914
 20
95.9238
 30
0.0
 11
73.7898
 21
95.5573
 31
0.0
  0
LINE
  8
0
 62
     0
 10
73.7898
 20
95.5573
 30
0.0
 11
72.7685
 21
94.9759
 31
0.0
  0
LINE
  8
0
 62
     0
 10
72.7685
 20
94.9759
 30
0.0
 11
71.9046
 21
94.1627
 31
0.0
  0
LINE
  8
0
 62
     0
 10
71.9046
 20
94.1627
 30
0.0
 11
71.181
 21
93.1016
 31
0.0
  0
LINE
  8
0
 62
     0
 10
71.181
 20
93.1016
 30
0.0
 11
70.7623
 21
92.239
 31
0.0
  0
LINE
  8
0
 62
     0
 10
70.7623
 20
92.239
 30
0.0
 11
70.528
 21
91.1987
 31
0.0
  0
LINE
  8
0
 62
     0
 10
70.528
 20
91.1987
 30
0.0
 11
70.4261
 21
89.6013
 31
0.0
  0
LINE
  8
0
 62
     0
 10
70.4261
 20
89.6013
 30
0.0
 11
70.4053
 21
87.0701
 31
0.0
  0
LINE
  8
0
 62
     0
 10
70.4053
 20
87.0701
 30
0.0
 11
70.4261
 21
84.54
 31
0.0
  0
LINE
  8
0
 62
     0
 10
70.4261
 20
84.54
 30
0.0
 11
70.528
 21
82.9388
 31
0.0
  0
LINE
  8
0
 62
     0
 10
70.528
 20
82.9388
 30
0.0
 11
70.7623
 21
81.8871
 31
0.0
  0
LINE
  8
0
 62
     0
 10
70.7623
 20
81.8871
 30
0.0
 11
71.181
 21
81.0024
 31
0.0
  0
LINE
  8
0
 62
     0
 10
71.181
 20
81.0024
 30
0.0
 11
71.5793
 21
80.4139
 31
0.0
  0
LINE
  8
0
 62
     0
 10
71.5793
 20
80.4139
 30
0.0
 11
72.099
 21
79.8079
 31
0.0
  0
LINE
  8
0
 62
     0
 10
72.099
 20
79.8079
 30
0.0
 11
72.6694
 21
79.2607
 31
0.0
  0
LINE
  8
0
 62
     0
 10
72.6694
 20
79.2607
 30
0.0
 11
73.2275
 21
78.8501
 31
0.0
  0
LINE
  8
0
 62
     0
 10
73.2275
 20
78.8501
 30
0.0
 11
74.4622
 21
78.0743
 31
0.0
  0
LINE
  8
0
 62
     0
 10
74.4622
 20
78.0743
 30
0.0
 11
162.304
 21
78.0743
 31
0.0
  0
LINE
  8
0
 62
     0
 10
162.304
 20
78.0743
 30
0.0
 11
163.539
 21
78.8501
 31
0.0
  0
LINE
  8
0
 62
     0
 10
163.539
 20
78.8501
 30
0.0
 11
164.095
 21
79.2607
 31
0.0
  0
LINE
  8
0
 62
     0
 10
164.095
 20
79.2607
 30
0.0
 11
164.667
 21
79.8079
 31
0.0
  0
LINE
  8
0
 62
     0
 10
164.667
 20
79.8079
 30
0.0
 11
165.185
 21
80.4139
 31
0.0
  0
LINE
  8
0
 62
     0
 10
165.185
 20
80.4139
 30
0.0
 11
165.585
 21
81.0024
 31
0.0
  0
LINE
  8
0
 62
     0
 10
165.585
 20
81.0024
 30
0.0
 11
166.003
 21
81.8871
 31
0.0
  0
LINE
  8
0
 62
     0
 10
166.003
 20
81.8871
 30
0.0
 11
166.237
 21
82.9388
 31
0.0
  0
LINE
  8
0
 62
     0
 10
166.237
 20
82.9388
 30
0.0
 11
166.339
 21
84.54
 31
0.0
  0
LINE
  8
0
 62
     0
 10
166.339
 20
84.54
 30
0.0
 11
166.361
 21
87.0701
 31
0.0
  0
LINE
  8
0
 62
     0
 10
166.361
 20
87.0701
 30
0.0
 11
166.339
 21
89.6013
 31
0.0
  0
LINE
  8
0
 62
     0
 10
166.339
 20
89.6013
 30
0.0
 11
166.237
 21
91.2026
 31
0.0
  0
LINE
  8
0
 62
     0
 10
166.237
 20
91.2026
 30
0.0
 11
166.003
 21
92.2542
 31
0.0
  0
LINE
  8
0
 62
     0
 10
166.003
 20
92.2542
 30
0.0
 11
165.585
 21
93.1376
 31
0.0
  0
LINE
  8
0
 62
     0
 10
165.585
 20
93.1376
 30
0.0
 11
165.185
 21
93.7274
 31
0.0
  0
LINE
  8
0
 62
     0
 10
165.185
 20
93.7274
 30
0.0
 11
164.667
 21
94.3335
 31
0.0
  0
LINE
  8
0
 62
     0
 10
164.667
 20
94.3335
 30
0.0
 11
164.095
 21
94.8792
 31
0.0
  0
LINE
  8
0
 62
     0
 10
164.095
 20
94.8792
 30
0.0
 11
163.539
 21
95.2899
 31
0.0
  0
LINE
  8
0
 62
     0
 10
163.539
 20
95.2899
 30
0.0
 11
162.304
 21
96.066
 31
0.0
  0
LINE
  8
0
 62
     0
 10
162.304
 20
96.066
 30
0.0
 11
119.265
 21
96.1002
 31
0.0
  0
LINE
  8
0
 62
     0
 10
119.265
 20
96.1002
 30
0.0
 11
110.593
 21
96.1101
 31
0.0
  0
LINE
  8
0
 62
     0
 10
110.593
 20
96.1101
 30
0.0
 11
102.454
 21
96.1087
 31
0.0
  0
LINE
  8
0
 62
     0
 10
102.454
 20
96.1087
 30
0.0
 11
95.0309
 21
96.0988
 31
0.0
  0
LINE
  8
0
 62
     0
 10
95.0309
 20
96.0988
 30
0.0
 11
88.5031
 21
96.0797
 31
0.0
  0
LINE
  8
0
 62
     0
 10
88.5031
 20
96.0797
 30
0.0
 11
83.0531
 21
96.0519
 31
0.0
  0
LINE
  8
0
 62
     0
 10
83.0531
 20
96.0519
 30
0.0
 11
78.8624
 21
96.0176
 31
0.0
  0
LINE
  8
0
 62
     0
 10
78.8624
 20
96.0176
 30
0.0
 11
76.1146
 21
95.975
 31
0.0
  0
LINE
  8
0
 62
     0
 10
76.1146
 20
95.975
 30
0.0
 11
74.9914
 21
95.9238
 31
0.0
  0
LINE
  8
0
 62
     0
 10
73.7567
 20
69.6419
 30
0.0
 11
72.6846
 21
68.9723
 31
0.0
  0
LINE
  8
0
 62
     0
 10
72.6846
 20
68.9723
 30
0.0
 11
71.7187
 21
68.0074
 31
0.0
  0
LINE
  8
0
 62
     0
 10
71.7187
 20
68.0074
 30
0.0
 11
70.9785
 21
66.8898
 31
0.0
  0
LINE
  8
0
 62
     0
 10
70.9785
 20
66.8898
 30
0.0
 11
70.5817
 21
65.7613
 31
0.0
  0
LINE
  8
0
 62
     0
 10
70.5817
 20
65.7613
 30
0.0
 11
70.4949
 21
64.9661
 31
0.0
  0
LINE
  8
0
 62
     0
 10
70.4949
 20
64.9661
 30
0.0
 11
70.4494
 21
63.6503
 31
0.0
  0
LINE
  8
0
 62
     0
 10
70.4494
 20
63.6503
 30
0.0
 11
70.4427
 21
61.9979
 31
0.0
  0
LINE
  8
0
 62
     0
 10
70.4427
 20
61.9979
 30
0.0
 11
70.4755
 21
60.1885
 31
0.0
  0
LINE
  8
0
 62
     0
 10
70.4755
 20
60.1885
 30
0.0
 11
70.557
 21
57.6887
 31
0.0
  0
LINE
  8
0
 62
     0
 10
70.557
 20
57.6887
 30
0.0
 11
70.7101
 21
56.2197
 31
0.0
  0
LINE
  8
0
 62
     0
 10
70.7101
 20
56.2197
 30
0.0
 11
71.0269
 21
55.3074
 31
0.0
  0
LINE
  8
0
 62
     0
 10
71.0269
 20
55.3074
 30
0.0
 11
71.6058
 21
54.4724
 31
0.0
  0
LINE
  8
0
 62
     0
 10
71.6058
 20
54.4724
 30
0.0
 11
71.9116
 21
54.0399
 31
0.0
  0
LINE
  8
0
 62
     0
 10
71.9116
 20
54.0399
 30
0.0
 11
72.1829
 21
53.6635
 31
0.0
  0
LINE
  8
0
 62
     0
 10
72.1829
 20
53.6635
 30
0.0
 11
72.5039
 21
53.3411
 31
0.0
  0
LINE
  8
0
 62
     0
 10
72.5039
 20
53.3411
 30
0.0
 11
72.9548
 21
53.0684
 31
0.0
  0
LINE
  8
0
 62
     0
 10
72.9548
 20
53.0684
 30
0.0
 11
73.6191
 21
52.8394
 31
0.0
  0
LINE
  8
0
 62
     0
 10
73.6191
 20
52.8394
 30
0.0
 11
74.5765
 21
52.6521
 31
0.0
  0
LINE
  8
0
 62
     0
 10
74.5765
 20
52.6521
 30
0.0
 11
75.9107
 21
52.5004
 31
0.0
  0
LINE
  8
0
 62
     0
 10
75.9107
 20
52.5004
 30
0.0
 11
77.7035
 21
52.3833
 31
0.0
  0
LINE
  8
0
 62
     0
 10
77.7035
 20
52.3833
 30
0.0
 11
80.035
 21
52.2951
 31
0.0
  0
LINE
  8
0
 62
     0
 10
80.035
 20
52.2951
 30
0.0
 11
82.991
 21
52.2305
 31
0.0
  0
LINE
  8
0
 62
     0
 10
82.991
 20
52.2305
 30
0.0
 11
86.6496
 21
52.1878
 31
0.0
  0
LINE
  8
0
 62
     0
 10
86.6496
 20
52.1878
 30
0.0
 11
91.0953
 21
52.1614
 31
0.0
  0
LINE
  8
0
 62
     0
 10
91.0953
 20
52.1614
 30
0.0
 11
96.4103
 21
52.149
 31
0.0
  0
LINE
  8
0
 62
     0
 10
96.4103
 20
52.149
 30
0.0
 11
102.675
 21
52.1451
 31
0.0
  0
LINE
  8
0
 62
     0
 10
102.675
 20
52.1451
 30
0.0
 11
109.971
 21
52.1451
 31
0.0
  0
LINE
  8
0
 62
     0
 10
109.971
 20
52.1451
 30
0.0
 11
118.383
 21
52.1451
 31
0.0
  0
LINE
  8
0
 62
     0
 10
118.383
 20
52.1451
 30
0.0
 11
126.793
 21
52.1451
 31
0.0
  0
LINE
  8
0
 62
     0
 10
126.793
 20
52.1451
 30
0.0
 11
134.09
 21
52.1451
 31
0.0
  0
LINE
  8
0
 62
     0
 10
134.09
 20
52.1451
 30
0.0
 11
140.354
 21
52.149
 31
0.0
  0
LINE
  8
0
 62
     0
 10
140.354
 20
52.149
 30
0.0
 11
145.67
 21
52.1614
 31
0.0
  0
LINE
  8
0
 62
     0
 10
145.67
 20
52.1614
 30
0.0
 11
150.115
 21
52.1878
 31
0.0
  0
LINE
  8
0
 62
     0
 10
150.115
 20
52.1878
 30
0.0
 11
153.774
 21
52.2305
 31
0.0
  0
LINE
  8
0
 62
     0
 10
153.774
 20
52.2305
 30
0.0
 11
156.73
 21
52.2951
 31
0.0
  0
LINE
  8
0
 62
     0
 10
156.73
 20
52.2951
 30
0.0
 11
159.063
 21
52.3833
 31
0.0
  0
LINE
  8
0
 62
     0
 10
159.063
 20
52.3833
 30
0.0
 11
160.854
 21
52.5004
 31
0.0
  0
LINE
  8
0
 62
     0
 10
160.854
 20
52.5004
 30
0.0
 11
162.188
 21
52.6521
 31
0.0
  0
LINE
  8
0
 62
     0
 10
162.188
 20
52.6521
 30
0.0
 11
163.146
 21
52.8394
 31
0.0
  0
LINE
  8
0
 62
     0
 10
163.146
 20
52.8394
 30
0.0
 11
163.81
 21
53.0684
 31
0.0
  0
LINE
  8
0
 62
     0
 10
163.81
 20
53.0684
 30
0.0
 11
164.261
 21
53.3411
 31
0.0
  0
LINE
  8
0
 62
     0
 10
164.261
 20
53.3411
 30
0.0
 11
164.582
 21
53.6635
 31
0.0
  0
LINE
  8
0
 62
     0
 10
164.582
 20
53.6635
 30
0.0
 11
164.855
 21
54.0399
 31
0.0
  0
LINE
  8
0
 62
     0
 10
164.855
 20
54.0399
 30
0.0
 11
165.162
 21
54.4724
 31
0.0
  0
LINE
  8
0
 62
     0
 10
165.162
 20
54.4724
 30
0.0
 11
166.184
 21
55.7788
 31
0.0
  0
LINE
  8
0
 62
     0
 10
166.184
 20
55.7788
 30
0.0
 11
166.184
 21
61.1752
 31
0.0
  0
LINE
  8
0
 62
     0
 10
166.184
 20
61.1752
 30
0.0
 11
166.172
 21
63.1705
 31
0.0
  0
LINE
  8
0
 62
     0
 10
166.172
 20
63.1705
 30
0.0
 11
166.118
 21
64.7319
 31
0.0
  0
LINE
  8
0
 62
     0
 10
166.118
 20
64.7319
 30
0.0
 11
165.999
 21
65.9391
 31
0.0
  0
LINE
  8
0
 62
     0
 10
165.999
 20
65.9391
 30
0.0
 11
165.788
 21
66.8694
 31
0.0
  0
LINE
  8
0
 62
     0
 10
165.788
 20
66.8694
 30
0.0
 11
165.461
 21
67.5996
 31
0.0
  0
LINE
  8
0
 62
     0
 10
165.461
 20
67.5996
 30
0.0
 11
164.994
 21
68.2061
 31
0.0
  0
LINE
  8
0
 62
     0
 10
164.994
 20
68.2061
 30
0.0
 11
164.361
 21
68.7684
 31
0.0
  0
LINE
  8
0
 62
     0
 10
164.361
 20
68.7684
 30
0.0
 11
163.539
 21
69.3607
 31
0.0
  0
LINE
  8
0
 62
     0
 10
163.539
 20
69.3607
 30
0.0
 11
162.374
 21
70.1368
 31
0.0
  0
LINE
  8
0
 62
     0
 10
162.374
 20
70.1368
 30
0.0
 11
118.595
 21
70.1368
 31
0.0
  0
LINE
  8
0
 62
     0
 10
118.595
 20
70.1368
 30
0.0
 11
106.482
 21
70.1216
 31
0.0
  0
LINE
  8
0
 62
     0
 10
106.482
 20
70.1216
 30
0.0
 11
96.69
 21
70.0994
 31
0.0
  0
LINE
  8
0
 62
     0
 10
96.69
 20
70.0994
 30
0.0
 11
88.9882
 21
70.0677
 31
0.0
  0
LINE
  8
0
 62
     0
 10
88.9882
 20
70.0677
 30
0.0
 11
83.1455
 21
70.0222
 31
0.0
  0
LINE
  8
0
 62
     0
 10
83.1455
 20
70.0222
 30
0.0
 11
78.9298
 21
69.9604
 31
0.0
  0
LINE
  8
0
 62
     0
 10
78.9298
 20
69.9604
 30
0.0
 11
76.1146
 21
69.8789
 31
0.0
  0
LINE
  8
0
 62
     0
 10
76.1146
 20
69.8789
 30
0.0
 11
74.4664
 21
69.7742
 31
0.0
  0
LINE
  8
0
 62
     0
 10
74.4664
 20
69.7742
 30
0.0
 11
73.7567
 21
69.6419
 31
0.0
  0
LINE
  8
0
 62
     0
 10
73.5803
 20
43.6079
 30
0.0
 11
71.9681
 21
42.5344
 31
0.0
  0
LINE
  8
0
 62
     0
 10
71.9681
 20
42.5344
 30
0.0
 11
71.0008
 21
41.0503
 31
0.0
  0
LINE
  8
0
 62
     0
 10
71.0008
 20
41.0503
 30
0.0
 11
70.5294
 21
38.7463
 31
0.0
  0
LINE
  8
0
 62
     0
 10
70.5294
 20
38.7463
 30
0.0
 11
70.4053
 21
35.2116
 31
0.0
  0
LINE
  8
0
 62
     0
 10
70.4053
 20
35.2116
 30
0.0
 11
70.4275
 21
32.6016
 31
0.0
  0
LINE
  8
0
 62
     0
 10
70.4275
 20
32.6016
 30
0.0
 11
70.5323
 21
30.9962
 31
0.0
  0
LINE
  8
0
 62
     0
 10
70.5323
 20
30.9962
 30
0.0
 11
70.7775
 21
29.9737
 31
0.0
  0
LINE
  8
0
 62
     0
 10
70.7775
 20
29.9737
 30
0.0
 11
71.217
 21
29.1083
 31
0.0
  0
LINE
  8
0
 62
     0
 10
71.217
 20
29.1083
 30
0.0
 11
72.099
 21
27.9576
 31
0.0
  0
LINE
  8
0
 62
     0
 10
72.099
 20
27.9576
 30
0.0
 11
73.0871
 21
27.0977
 31
0.0
  0
LINE
  8
0
 62
     0
 10
73.0871
 20
27.0977
 30
0.0
 11
73.2825
 21
26.9792
 31
0.0
  0
LINE
  8
0
 62
     0
 10
73.2825
 20
26.9792
 30
0.0
 11
73.5432
 21
26.8759
 31
0.0
  0
LINE
  8
0
 62
     0
 10
73.5432
 20
26.8759
 30
0.0
 11
73.9302
 21
26.7836
 31
0.0
  0
LINE
  8
0
 62
     0
 10
73.9302
 20
26.7836
 30
0.0
 11
74.5035
 21
26.705
 31
0.0
  0
LINE
  8
0
 62
     0
 10
74.5035
 20
26.705
 30
0.0
 11
75.3251
 21
26.6375
 31
0.0
  0
LINE
  8
0
 62
     0
 10
75.3251
 20
26.6375
 30
0.0
 11
76.4575
 21
26.5796
 31
0.0
  0
LINE
  8
0
 62
     0
 10
76.4575
 20
26.5796
 30
0.0
 11
77.9625
 21
26.5327
 31
0.0
  0
LINE
  8
0
 62
     0
 10
77.9625
 20
26.5327
 30
0.0
 11
79.8985
 21
26.4942
 31
0.0
  0
LINE
  8
0
 62
     0
 10
79.8985
 20
26.4942
 30
0.0
 11
82.3309
 21
26.4625
 31
0.0
  0
LINE
  8
0
 62
     0
 10
82.3309
 20
26.4625
 30
0.0
 11
85.32
 21
26.439
 31
0.0
  0
LINE
  8
0
 62
     0
 10
85.32
 20
26.439
 30
0.0
 11
88.9261
 21
26.4211
 31
0.0
  0
LINE
  8
0
 62
     0
 10
88.9261
 20
26.4211
 30
0.0
 11
93.212
 21
26.4087
 31
0.0
  0
LINE
  8
0
 62
     0
 10
93.212
 20
26.4087
 30
0.0
 11
98.2391
 21
26.4004
 31
0.0
  0
LINE
  8
0
 62
     0
 10
98.2391
 20
26.4004
 30
0.0
 11
104.069
 21
26.3963
 31
0.0
  0
LINE
  8
0
 62
     0
 10
104.069
 20
26.3963
 30
0.0
 11
110.763
 21
26.3936
 31
0.0
  0
LINE
  8
0
 62
     0
 10
110.763
 20
26.3936
 30
0.0
 11
118.383
 21
26.3922
 31
0.0
  0
LINE
  8
0
 62
     0
 10
118.383
 20
26.3922
 30
0.0
 11
126.002
 21
26.3936
 31
0.0
  0
LINE
  8
0
 62
     0
 10
126.002
 20
26.3936
 30
0.0
 11
132.696
 21
26.3963
 31
0.0
  0
LINE
  8
0
 62
     0
 10
132.696
 20
26.3963
 30
0.0
 11
138.526
 21
26.4004
 31
0.0
  0
LINE
  8
0
 62
     0
 10
138.526
 20
26.4004
 30
0.0
 11
143.553
 21
26.4087
 31
0.0
  0
LINE
  8
0
 62
     0
 10
143.553
 20
26.4087
 30
0.0
 11
147.839
 21
26.4211
 31
0.0
  0
LINE
  8
0
 62
     0
 10
147.839
 20
26.4211
 30
0.0
 11
151.445
 21
26.439
 31
0.0
  0
LINE
  8
0
 62
     0
 10
151.445
 20
26.439
 30
0.0
 11
154.434
 21
26.4625
 31
0.0
  0
LINE
  8
0
 62
     0
 10
154.434
 20
26.4625
 30
0.0
 11
156.866
 21
26.4942
 31
0.0
  0
LINE
  8
0
 62
     0
 10
156.866
 20
26.4942
 30
0.0
 11
158.804
 21
26.5327
 31
0.0
  0
LINE
  8
0
 62
     0
 10
158.804
 20
26.5327
 30
0.0
 11
160.309
 21
26.5796
 31
0.0
  0
LINE
  8
0
 62
     0
 10
160.309
 20
26.5796
 30
0.0
 11
161.44
 21
26.6375
 31
0.0
  0
LINE
  8
0
 62
     0
 10
161.44
 20
26.6375
 30
0.0
 11
162.263
 21
26.705
 31
0.0
  0
LINE
  8
0
 62
     0
 10
162.263
 20
26.705
 30
0.0
 11
162.836
 21
26.7836
 31
0.0
  0
LINE
  8
0
 62
     0
 10
162.836
 20
26.7836
 30
0.0
 11
163.222
 21
26.8759
 31
0.0
  0
LINE
  8
0
 62
     0
 10
163.222
 20
26.8759
 30
0.0
 11
163.484
 21
26.9792
 31
0.0
  0
LINE
  8
0
 62
     0
 10
163.484
 20
26.9792
 30
0.0
 11
163.681
 21
27.0977
 31
0.0
  0
LINE
  8
0
 62
     0
 10
163.681
 20
27.0977
 30
0.0
 11
164.667
 21
27.9576
 31
0.0
  0
LINE
  8
0
 62
     0
 10
164.667
 20
27.9576
 30
0.0
 11
165.549
 21
29.1083
 31
0.0
  0
LINE
  8
0
 62
     0
 10
165.549
 20
29.1083
 30
0.0
 11
165.989
 21
29.9737
 31
0.0
  0
LINE
  8
0
 62
     0
 10
165.989
 20
29.9737
 30
0.0
 11
166.233
 21
30.9962
 31
0.0
  0
LINE
  8
0
 62
     0
 10
166.233
 20
30.9962
 30
0.0
 11
166.338
 21
32.6016
 31
0.0
  0
LINE
  8
0
 62
     0
 10
166.338
 20
32.6016
 30
0.0
 11
166.361
 21
35.2116
 31
0.0
  0
LINE
  8
0
 62
     0
 10
166.361
 20
35.2116
 30
0.0
 11
166.237
 21
38.7463
 31
0.0
  0
LINE
  8
0
 62
     0
 10
166.237
 20
38.7463
 30
0.0
 11
165.766
 21
41.0503
 31
0.0
  0
LINE
  8
0
 62
     0
 10
165.766
 20
41.0503
 30
0.0
 11
164.798
 21
42.5344
 31
0.0
  0
LINE
  8
0
 62
     0
 10
164.798
 20
42.5344
 30
0.0
 11
163.186
 21
43.6079
 31
0.0
  0
LINE
  8
0
 62
     0
 10
163.186
 20
43.6079
 30
0.0
 11
161.634
 21
44.384
 31
0.0
  0
LINE
  8
0
 62
     0
 10
161.634
 20
44.384
 30
0.0
 11
75.1336
 21
44.384
 31
0.0
  0
LINE
  8
0
 62
     0
 10
75.1336
 20
44.384
 30
0.0
 11
73.5803
 21
43.6079
 31
0.0
  0
LINE
  8
0
 62
     0
 10
90.726
 20
16.4441
 30
0.0
 11
92.9005
 21
13.0652
 31
0.0
  0
LINE
  8
0
 62
     0
 10
92.9005
 20
13.0652
 30
0.0
 11
95.9019
 21
9.62699
 31
0.0
  0
LINE
  8
0
 62
     0
 10
95.9019
 20
9.62699
 30
0.0
 11
99.3662
 21
6.49192
 31
0.0
  0
LINE
  8
0
 62
     0
 10
99.3662
 20
6.49192
 30
0.0
 11
102.931
 21
4.02527
 31
0.0
  0
LINE
  8
0
 62
     0
 10
102.931
 20
4.02527
 30
0.0
 11
105.992
 21
2.55764
 31
0.0
  0
LINE
  8
0
 62
     0
 10
105.992
 20
2.55764
 30
0.0
 11
109.211
 21
1.27468
 31
0.0
  0
LINE
  8
0
 62
     0
 10
109.211
 20
1.27468
 30
0.0
 11
111.124
 21
0.7152
 31
0.0
  0
LINE
  8
0
 62
     0
 10
111.124
 20
0.7152
 30
0.0
 11
112.817
 21
0.366557
 31
0.0
  0
LINE
  8
0
 62
     0
 10
112.817
 20
0.366557
 30
0.0
 11
114.737
 21
0.163987
 31
0.0
  0
LINE
  8
0
 62
     0
 10
114.737
 20
0.163987
 30
0.0
 11
117.325
 21
0.039963
 31
0.0
  0
LINE
  8
0
 62
     0
 10
117.325
 20
0.039963
 30
0.0
 11
121.041
 21
0.0468535
 31
0.0
  0
LINE
  8
0
 62
     0
 10
121.041
 20
0.0468535
 30
0.0
 11
124.331
 21
0.410655
 31
0.0
  0
LINE
  8
0
 62
     0
 10
124.331
 20
0.410655
 30
0.0
 11
127.47
 21
1.17133
 31
0.0
  0
LINE
  8
0
 62
     0
 10
127.47
 20
1.17133
 30
0.0
 11
130.73
 21
2.36747
 31
0.0
  0
LINE
  8
0
 62
     0
 10
130.73
 20
2.36747
 30
0.0
 11
135.281
 21
4.82589
 31
0.0
  0
LINE
  8
0
 62
     0
 10
135.281
 20
4.82589
 30
0.0
 11
139.562
 21
8.18829
 31
0.0
  0
LINE
  8
0
 62
     0
 10
139.562
 20
8.18829
 30
0.0
 11
143.257
 21
12.1612
 31
0.0
  0
LINE
  8
0
 62
     0
 10
143.257
 20
12.1612
 30
0.0
 11
146.042
 21
16.4441
 31
0.0
  0
LINE
  8
0
 62
     0
 10
146.042
 20
16.4441
 30
0.0
 11
146.641
 21
17.5727
 31
0.0
  0
LINE
  8
0
 62
     0
 10
146.641
 20
17.5727
 30
0.0
 11
90.1266
 21
17.5727
 31
0.0
  0
LINE
  8
0
 62
     0
 10
90.1266
 20
17.5727
 30
0.0
 11
90.726
 21
16.4441
 31
0.0
  0
ENDSEC
  0
EOF
