<?xml version="1.0" standalone="no"?>
<!DOCTYPE svg PUBLIC "-//W3C//DTD SVG 20010904//EN"
 "http://www.w3.org/TR/2001/REC-SVG-20010904/DTD/svg10.dtd">
<svg version="1.0" xmlns="http://www.w3.org/2000/svg"
 width="672.000000pt" height="1200.000000pt" viewBox="0 0 672.000000 1200.000000"
 preserveAspectRatio="xMidYMid meet">
<metadata>
Created by potrace 1.11, written by Peter Selinger 2001-2013
</metadata>
<g transform="translate(0.000000,1200.000000) scale(0.100000,-0.100000)"
fill="#000000" stroke="none">
<path d="M2985 11984 c-616 -67 -1199 -308 -1715 -708 -119 -92 -416 -383
-509 -498 -406 -505 -647 -1063 -738 -1711 -25 -179 -25 -662 0 -842 70 -491
199 -858 488 -1380 45 -83 153 -289 239 -460 486 -962 710 -1612 869 -2526 59
-339 117 -519 204 -641 86 -119 204 -183 382 -208 94 -13 2216 -13 2310 0 178
25 296 89 382 208 87 122 145 302 204 641 113 649 248 1122 484 1696 156 380
398 878 630 1300 106 192 219 425 270 554 119 307 197 639 226 961 14 166 6
550 -15 705 -108 770 -446 1442 -993 1976 -540 527 -1241 856 -1985 934 -183
19 -553 18 -733 -1z"/>
<path d="M2130 2721 c-49 -10 -83 -35 -108 -80 -20 -34 -22 -53 -22 -171 0
-118 2 -137 22 -172 12 -21 38 -49 58 -61 l35 -22 1245 0 1245 0 35 22 c20 12
46 40 58 61 20 35 22 54 22 172 0 118 -2 137 -22 172 -12 21 -38 49 -58 61
l-35 22 -1220 1 c-671 1 -1236 -1 -1255 -5z"/>
<path d="M2095 1976 c-41 -18 -83 -69 -90 -110 -4 -18 -5 -89 -3 -158 3 -120
4 -126 32 -162 53 -70 -34 -66 1326 -66 1360 0 1273 -4 1326 66 l29 37 0 153
c0 169 -5 184 -75 232 l-33 22 -1241 0 c-1009 -1 -1247 -3 -1271 -14z"/>
<path d="M2090 1238 c-75 -38 -90 -76 -90 -238 0 -123 2 -138 23 -173 13 -21
36 -47 53 -57 28 -19 59 -20 1284 -20 1225 0 1256 1 1284 20 17 10 40 36 53
57 21 35 23 50 23 173 0 162 -15 200 -90 238 l-44 22 -1226 0 -1226 0 -44 -22z"/>
<path d="M2576 468 c62 -122 214 -276 346 -352 46 -25 126 -60 178 -78 82 -26
114 -31 230 -35 152 -6 251 12 380 66 173 72 350 235 434 399 l17 32 -801 0
-801 0 17 -32z"/>
</g>
</svg>
