  0
SECTION
  2
HEADER
  9
$ACADVER
  1
AC1009
  9
$EXTMIN
 10
0.0
 20
0.0
 30
0.0
  9
$EXTMAX
 10
1000.0
 20
1000.0
 30
0.0
  9
$FILLMODE
 70
 0
  9
$SPLFRAME
 70
 1
  0
ENDSEC
  0
SECTION
  2
TABLES
  0
TABLE
  2
LAYER
 70
1
  0
LAYER
  2
0
 70
     0
 62
     7
  6
CONTINUOUS
  0
ENDTAB
  0
ENDSEC
  0
SECTION
  2
ENTITIES
  0
LINE
  8
0
 62
     0
 10
163.794
 20
340.334
 30
0.0
 11
152.749
 21
339.171
 31
0.0
  0
LINE
  8
0
 62
     0
 10
152.749
 20
339.171
 30
0.0
 11
141.797
 21
337.319
 31
0.0
  0
LINE
  8
0
 62
     0
 10
141.797
 20
337.319
 30
0.0
 11
130.952
 21
334.779
 31
0.0
  0
LINE
  8
0
 62
     0
 10
130.952
 20
334.779
 30
0.0
 11
120.226
 21
331.55
 31
0.0
  0
LINE
  8
0
 62
     0
 10
120.226
 20
331.55
 30
0.0
 11
104.436
 21
325.435
 31
0.0
  0
LINE
  8
0
 62
     0
 10
104.436
 20
325.435
 30
0.0
 11
89.3561
 21
317.858
 31
0.0
  0
LINE
  8
0
 62
     0
 10
89.3561
 20
317.858
 30
0.0
 11
75.0701
 21
308.875
 31
0.0
  0
LINE
  8
0
 62
     0
 10
75.0701
 20
308.875
 30
0.0
 11
61.6645
 21
298.53
 31
0.0
  0
LINE
  8
0
 62
     0
 10
61.6645
 20
298.53
 30
0.0
 11
59.334
 21
296.474
 31
0.0
  0
LINE
  8
0
 62
     0
 10
59.334
 20
296.474
 30
0.0
 11
56.6857
 21
294.011
 31
0.0
  0
LINE
  8
0
 62
     0
 10
56.6857
 20
294.011
 30
0.0
 11
53.8413
 21
291.265
 31
0.0
  0
LINE
  8
0
 62
     0
 10
53.8413
 20
291.265
 30
0.0
 11
50.9214
 21
288.357
 31
0.0
  0
LINE
  8
0
 62
     0
 10
50.9214
 20
288.357
 30
0.0
 11
48.048
 21
285.412
 31
0.0
  0
LINE
  8
0
 62
     0
 10
48.048
 20
285.412
 30
0.0
 11
45.3415
 21
282.552
 31
0.0
  0
LINE
  8
0
 62
     0
 10
45.3415
 20
282.552
 30
0.0
 11
42.926
 21
279.899
 31
0.0
  0
LINE
  8
0
 62
     0
 10
42.926
 20
279.899
 30
0.0
 11
40.9208
 21
277.575
 31
0.0
  0
LINE
  8
0
 62
     0
 10
40.9208
 20
277.575
 30
0.0
 11
35.2419
 21
270.368
 31
0.0
  0
LINE
  8
0
 62
     0
 10
35.2419
 20
270.368
 30
0.0
 11
29.9393
 21
262.868
 31
0.0
  0
LINE
  8
0
 62
     0
 10
29.9393
 20
262.868
 30
0.0
 11
25.0279
 21
255.1
 31
0.0
  0
LINE
  8
0
 62
     0
 10
25.0279
 20
255.1
 30
0.0
 11
20.5204
 21
247.092
 31
0.0
  0
LINE
  8
0
 62
     0
 10
20.5204
 20
247.092
 30
0.0
 11
16.4331
 21
238.87
 31
0.0
  0
LINE
  8
0
 62
     0
 10
16.4331
 20
238.87
 30
0.0
 11
12.7813
 21
230.462
 31
0.0
  0
LINE
  8
0
 62
     0
 10
12.7813
 20
230.462
 30
0.0
 11
9.57873
 21
221.894
 31
0.0
  0
LINE
  8
0
 62
     0
 10
9.57873
 20
221.894
 30
0.0
 11
6.84195
 21
213.193
 31
0.0
  0
LINE
  8
0
 62
     0
 10
6.84195
 20
213.193
 30
0.0
 11
3.97425
 21
201.738
 31
0.0
  0
LINE
  8
0
 62
     0
 10
3.97425
 20
201.738
 30
0.0
 11
1.88102
 21
190.219
 31
0.0
  0
LINE
  8
0
 62
     0
 10
1.88102
 20
190.219
 30
0.0
 11
0.56086
 21
178.657
 31
0.0
  0
LINE
  8
0
 62
     0
 10
0.56086
 20
178.657
 30
0.0
 11
0.0165365
 21
167.077
 31
0.0
  0
LINE
  8
0
 62
     0
 10
0.0165365
 20
167.077
 30
0.0
 11
0.243913
 21
155.501
 31
0.0
  0
LINE
  8
0
 62
     0
 10
0.243913
 20
155.501
 30
0.0
 11
1.24575
 21
143.95
 31
0.0
  0
LINE
  8
0
 62
     0
 10
1.24575
 20
143.95
 30
0.0
 11
3.02204
 21
132.446
 31
0.0
  0
LINE
  8
0
 62
     0
 10
3.02204
 20
132.446
 30
0.0
 11
5.5728
 21
121.012
 31
0.0
  0
LINE
  8
0
 62
     0
 10
5.5728
 20
121.012
 30
0.0
 11
10.4056
 21
105.354
 31
0.0
  0
LINE
  8
0
 62
     0
 10
10.4056
 20
105.354
 30
0.0
 11
16.6122
 21
90.3139
 31
0.0
  0
LINE
  8
0
 62
     0
 10
16.6122
 20
90.3139
 30
0.0
 11
24.1322
 21
75.9781
 31
0.0
  0
LINE
  8
0
 62
     0
 10
24.1322
 20
75.9781
 30
0.0
 11
32.9076
 21
62.4293
 31
0.0
  0
LINE
  8
0
 62
     0
 10
32.9076
 20
62.4293
 30
0.0
 11
42.8791
 21
49.7526
 31
0.0
  0
LINE
  8
0
 62
     0
 10
42.8791
 20
49.7526
 30
0.0
 11
53.9859
 21
38.0312
 31
0.0
  0
LINE
  8
0
 62
     0
 10
53.9859
 20
38.0312
 30
0.0
 11
66.1705
 21
27.3485
 31
0.0
  0
LINE
  8
0
 62
     0
 10
66.1705
 20
27.3485
 30
0.0
 11
79.3736
 21
17.7891
 31
0.0
  0
LINE
  8
0
 62
     0
 10
79.3736
 20
17.7891
 30
0.0
 11
84.2038
 21
14.7257
 31
0.0
  0
LINE
  8
0
 62
     0
 10
84.2038
 20
14.7257
 30
0.0
 11
88.937
 21
11.9517
 31
0.0
  0
LINE
  8
0
 62
     0
 10
88.937
 20
11.9517
 30
0.0
 11
93.9437
 21
9.25767
 31
0.0
  0
LINE
  8
0
 62
     0
 10
93.9437
 20
9.25767
 30
0.0
 11
99.5881
 21
6.42994
 31
0.0
  0
LINE
  8
0
 62
     0
 10
99.5881
 20
6.42994
 30
0.0
 11
105.8
 21
3.51813
 31
0.0
  0
LINE
  8
0
 62
     0
 10
105.8
 20
3.51813
 30
0.0
 11
110.611
 21
1.48828
 31
0.0
  0
LINE
  8
0
 62
     0
 10
110.611
 20
1.48828
 30
0.0
 11
114.072
 21
0.323839
 31
0.0
  0
LINE
  8
0
 62
     0
 10
114.072
 20
0.323839
 30
0.0
 11
116.239
 21
0.00964629
 31
0.0
  0
LINE
  8
0
 62
     0
 10
116.239
 20
0.00964629
 30
0.0
 11
117.826
 21
0.115755
 31
0.0
  0
LINE
  8
0
 62
     0
 10
117.826
 20
0.115755
 30
0.0
 11
138.64
 21
54.2671
 31
0.0
  0
LINE
  8
0
 62
     0
 10
138.64
 20
54.2671
 30
0.0
 11
140.757
 21
59.7863
 31
0.0
  0
LINE
  8
0
 62
     0
 10
140.757
 20
59.7863
 30
0.0
 11
142.816
 21
65.1591
 31
0.0
  0
LINE
  8
0
 62
     0
 10
142.816
 20
65.1591
 30
0.0
 11
144.804
 21
70.3573
 31
0.0
  0
LINE
  8
0
 62
     0
 10
144.804
 20
70.3573
 30
0.0
 11
146.714
 21
75.3526
 31
0.0
  0
LINE
  8
0
 62
     0
 10
146.714
 20
75.3526
 30
0.0
 11
148.533
 21
80.1165
 31
0.0
  0
LINE
  8
0
 62
     0
 10
148.533
 20
80.1165
 30
0.0
 11
150.25
 21
84.6212
 31
0.0
  0
LINE
  8
0
 62
     0
 10
150.25
 20
84.6212
 30
0.0
 11
151.854
 21
88.8393
 31
0.0
  0
LINE
  8
0
 62
     0
 10
151.854
 20
88.8393
 30
0.0
 11
153.337
 21
92.7421
 31
0.0
  0
LINE
  8
0
 62
     0
 10
153.337
 20
92.7421
 30
0.0
 11
154.686
 21
96.3013
 31
0.0
  0
LINE
  8
0
 62
     0
 10
154.686
 20
96.3013
 30
0.0
 11
155.891
 21
99.489
 31
0.0
  0
LINE
  8
0
 62
     0
 10
155.891
 20
99.489
 30
0.0
 11
156.939
 21
102.277
 31
0.0
  0
LINE
  8
0
 62
     0
 10
156.939
 20
102.277
 30
0.0
 11
157.824
 21
104.636
 31
0.0
  0
LINE
  8
0
 62
     0
 10
157.824
 20
104.636
 30
0.0
 11
158.531
 21
106.54
 31
0.0
  0
LINE
  8
0
 62
     0
 10
158.531
 20
106.54
 30
0.0
 11
159.052
 21
107.958
 31
0.0
  0
LINE
  8
0
 62
     0
 10
159.052
 20
107.958
 30
0.0
 11
159.374
 21
108.865
 31
0.0
  0
LINE
  8
0
 62
     0
 10
159.374
 20
108.865
 30
0.0
 11
159.49
 21
109.23
 31
0.0
  0
LINE
  8
0
 62
     0
 10
159.49
 20
109.23
 30
0.0
 11
159.487
 21
109.488
 31
0.0
  0
LINE
  8
0
 62
     0
 10
159.487
 20
109.488
 30
0.0
 11
159.413
 21
109.718
 31
0.0
  0
LINE
  8
0
 62
     0
 10
159.413
 20
109.718
 30
0.0
 11
159.235
 21
109.939
 31
0.0
  0
LINE
  8
0
 62
     0
 10
159.235
 20
109.939
 30
0.0
 11
158.929
 21
110.169
 31
0.0
  0
LINE
  8
0
 62
     0
 10
158.929
 20
110.169
 30
0.0
 11
158.466
 21
110.428
 31
0.0
  0
LINE
  8
0
 62
     0
 10
158.466
 20
110.428
 30
0.0
 11
157.817
 21
110.734
 31
0.0
  0
LINE
  8
0
 62
     0
 10
157.817
 20
110.734
 30
0.0
 11
156.957
 21
111.104
 31
0.0
  0
LINE
  8
0
 62
     0
 10
156.957
 20
111.104
 30
0.0
 11
155.856
 21
111.558
 31
0.0
  0
LINE
  8
0
 62
     0
 10
155.856
 20
111.558
 30
0.0
 11
149.62
 21
114.401
 31
0.0
  0
LINE
  8
0
 62
     0
 10
149.62
 20
114.401
 30
0.0
 11
144.231
 21
117.574
 31
0.0
  0
LINE
  8
0
 62
     0
 10
144.231
 20
117.574
 30
0.0
 11
139.346
 21
121.302
 31
0.0
  0
LINE
  8
0
 62
     0
 10
139.346
 20
121.302
 30
0.0
 11
134.619
 21
125.811
 31
0.0
  0
LINE
  8
0
 62
     0
 10
134.619
 20
125.811
 30
0.0
 11
129.61
 21
131.854
 31
0.0
  0
LINE
  8
0
 62
     0
 10
129.61
 20
131.854
 30
0.0
 11
125.561
 21
138.405
 31
0.0
  0
LINE
  8
0
 62
     0
 10
125.561
 20
138.405
 30
0.0
 11
122.425
 21
145.565
 31
0.0
  0
LINE
  8
0
 62
     0
 10
122.425
 20
145.565
 30
0.0
 11
120.155
 21
153.432
 31
0.0
  0
LINE
  8
0
 62
     0
 10
120.155
 20
153.432
 30
0.0
 11
119.73
 21
155.622
 31
0.0
  0
LINE
  8
0
 62
     0
 10
119.73
 20
155.622
 30
0.0
 11
119.484
 21
157.786
 31
0.0
  0
LINE
  8
0
 62
     0
 10
119.484
 20
157.786
 30
0.0
 11
119.371
 21
160.632
 31
0.0
  0
LINE
  8
0
 62
     0
 10
119.371
 20
160.632
 30
0.0
 11
119.344
 21
164.863
 31
0.0
  0
LINE
  8
0
 62
     0
 10
119.344
 20
164.863
 30
0.0
 11
119.375
 21
167.842
 31
0.0
  0
LINE
  8
0
 62
     0
 10
119.375
 20
167.842
 30
0.0
 11
119.461
 21
170.379
 31
0.0
  0
LINE
  8
0
 62
     0
 10
119.461
 20
170.379
 30
0.0
 11
119.616
 21
172.597
 31
0.0
  0
LINE
  8
0
 62
     0
 10
119.616
 20
172.597
 30
0.0
 11
119.863
 21
174.618
 31
0.0
  0
LINE
  8
0
 62
     0
 10
119.863
 20
174.618
 30
0.0
 11
120.219
 21
176.567
 31
0.0
  0
LINE
  8
0
 62
     0
 10
120.219
 20
176.567
 30
0.0
 11
120.702
 21
178.566
 31
0.0
  0
LINE
  8
0
 62
     0
 10
120.702
 20
178.566
 30
0.0
 11
121.332
 21
180.738
 31
0.0
  0
LINE
  8
0
 62
     0
 10
121.332
 20
180.738
 30
0.0
 11
122.13
 21
183.207
 31
0.0
  0
LINE
  8
0
 62
     0
 10
122.13
 20
183.207
 30
0.0
 11
123.835
 21
187.658
 31
0.0
  0
LINE
  8
0
 62
     0
 10
123.835
 20
187.658
 30
0.0
 11
125.896
 21
191.897
 31
0.0
  0
LINE
  8
0
 62
     0
 10
125.896
 20
191.897
 30
0.0
 11
128.291
 21
195.913
 31
0.0
  0
LINE
  8
0
 62
     0
 10
128.291
 20
195.913
 30
0.0
 11
130.999
 21
199.69
 31
0.0
  0
LINE
  8
0
 62
     0
 10
130.999
 20
199.69
 30
0.0
 11
133.999
 21
203.217
 31
0.0
  0
LINE
  8
0
 62
     0
 10
133.999
 20
203.217
 30
0.0
 11
137.27
 21
206.477
 31
0.0
  0
LINE
  8
0
 62
     0
 10
137.27
 20
206.477
 30
0.0
 11
140.79
 21
209.458
 31
0.0
  0
LINE
  8
0
 62
     0
 10
140.79
 20
209.458
 30
0.0
 11
144.54
 21
212.145
 31
0.0
  0
LINE
  8
0
 62
     0
 10
144.54
 20
212.145
 30
0.0
 11
148.496
 21
214.526
 31
0.0
  0
LINE
  8
0
 62
     0
 10
148.496
 20
214.526
 30
0.0
 11
152.638
 21
216.586
 31
0.0
  0
LINE
  8
0
 62
     0
 10
152.638
 20
216.586
 30
0.0
 11
156.948
 21
218.313
 31
0.0
  0
LINE
  8
0
 62
     0
 10
156.948
 20
218.313
 30
0.0
 11
161.4
 21
219.691
 31
0.0
  0
LINE
  8
0
 62
     0
 10
161.4
 20
219.691
 30
0.0
 11
165.976
 21
220.707
 31
0.0
  0
LINE
  8
0
 62
     0
 10
165.976
 20
220.707
 30
0.0
 11
170.653
 21
221.349
 31
0.0
  0
LINE
  8
0
 62
     0
 10
170.653
 20
221.349
 30
0.0
 11
175.413
 21
221.599
 31
0.0
  0
LINE
  8
0
 62
     0
 10
175.413
 20
221.599
 30
0.0
 11
180.232
 21
221.448
 31
0.0
  0
LINE
  8
0
 62
     0
 10
180.232
 20
221.448
 30
0.0
 11
188.759
 21
220.15
 31
0.0
  0
LINE
  8
0
 62
     0
 10
188.759
 20
220.15
 30
0.0
 11
196.879
 21
217.614
 31
0.0
  0
LINE
  8
0
 62
     0
 10
196.879
 20
217.614
 30
0.0
 11
204.469
 21
213.938
 31
0.0
  0
LINE
  8
0
 62
     0
 10
204.469
 20
213.938
 30
0.0
 11
211.409
 21
209.217
 31
0.0
  0
LINE
  8
0
 62
     0
 10
211.409
 20
209.217
 30
0.0
 11
217.579
 21
203.546
 31
0.0
  0
LINE
  8
0
 62
     0
 10
217.579
 20
203.546
 30
0.0
 11
222.856
 21
197.022
 31
0.0
  0
LINE
  8
0
 62
     0
 10
222.856
 20
197.022
 30
0.0
 11
227.123
 21
189.741
 31
0.0
  0
LINE
  8
0
 62
     0
 10
227.123
 20
189.741
 30
0.0
 11
230.256
 21
181.796
 31
0.0
  0
LINE
  8
0
 62
     0
 10
230.256
 20
181.796
 30
0.0
 11
230.943
 21
179.477
 31
0.0
  0
LINE
  8
0
 62
     0
 10
230.943
 20
179.477
 30
0.0
 11
231.483
 21
177.461
 31
0.0
  0
LINE
  8
0
 62
     0
 10
231.483
 20
177.461
 30
0.0
 11
231.892
 21
175.624
 31
0.0
  0
LINE
  8
0
 62
     0
 10
231.892
 20
175.624
 30
0.0
 11
232.187
 21
173.837
 31
0.0
  0
LINE
  8
0
 62
     0
 10
232.187
 20
173.837
 30
0.0
 11
232.387
 21
171.976
 31
0.0
  0
LINE
  8
0
 62
     0
 10
232.387
 20
171.976
 30
0.0
 11
232.508
 21
169.915
 31
0.0
  0
LINE
  8
0
 62
     0
 10
232.508
 20
169.915
 30
0.0
 11
232.569
 21
167.528
 31
0.0
  0
LINE
  8
0
 62
     0
 10
232.569
 20
167.528
 30
0.0
 11
232.585
 21
164.687
 31
0.0
  0
LINE
  8
0
 62
     0
 10
232.585
 20
164.687
 30
0.0
 11
232.556
 21
160.568
 31
0.0
  0
LINE
  8
0
 62
     0
 10
232.556
 20
160.568
 30
0.0
 11
232.444
 21
157.763
 31
0.0
  0
LINE
  8
0
 62
     0
 10
232.444
 20
157.763
 30
0.0
 11
232.198
 21
155.608
 31
0.0
  0
LINE
  8
0
 62
     0
 10
232.198
 20
155.608
 30
0.0
 11
231.774
 21
153.432
 31
0.0
  0
LINE
  8
0
 62
     0
 10
231.774
 20
153.432
 30
0.0
 11
230.225
 21
147.729
 31
0.0
  0
LINE
  8
0
 62
     0
 10
230.225
 20
147.729
 30
0.0
 11
228.22
 21
142.347
 31
0.0
  0
LINE
  8
0
 62
     0
 10
228.22
 20
142.347
 30
0.0
 11
225.75
 21
137.27
 31
0.0
  0
LINE
  8
0
 62
     0
 10
225.75
 20
137.27
 30
0.0
 11
222.814
 21
132.478
 31
0.0
  0
LINE
  8
0
 62
     0
 10
222.814
 20
132.478
 30
0.0
 11
219.424
 21
128.148
 31
0.0
  0
LINE
  8
0
 62
     0
 10
219.424
 20
128.148
 30
0.0
 11
215.303
 21
123.84
 31
0.0
  0
LINE
  8
0
 62
     0
 10
215.303
 20
123.84
 30
0.0
 11
210.793
 21
119.882
 31
0.0
  0
LINE
  8
0
 62
     0
 10
210.793
 20
119.882
 30
0.0
 11
206.233
 21
116.603
 31
0.0
  0
LINE
  8
0
 62
     0
 10
206.233
 20
116.603
 30
0.0
 11
201.722
 21
114.067
 31
0.0
  0
LINE
  8
0
 62
     0
 10
201.722
 20
114.067
 30
0.0
 11
196.073
 21
111.558
 31
0.0
  0
LINE
  8
0
 62
     0
 10
196.073
 20
111.558
 30
0.0
 11
194.97
 21
111.104
 31
0.0
  0
LINE
  8
0
 62
     0
 10
194.97
 20
111.104
 30
0.0
 11
194.11
 21
110.734
 31
0.0
  0
LINE
  8
0
 62
     0
 10
194.11
 20
110.734
 30
0.0
 11
193.462
 21
110.428
 31
0.0
  0
LINE
  8
0
 62
     0
 10
193.462
 20
110.428
 30
0.0
 11
192.998
 21
110.169
 31
0.0
  0
LINE
  8
0
 62
     0
 10
192.998
 20
110.169
 30
0.0
 11
192.693
 21
109.939
 31
0.0
  0
LINE
  8
0
 62
     0
 10
192.693
 20
109.939
 30
0.0
 11
192.515
 21
109.718
 31
0.0
  0
LINE
  8
0
 62
     0
 10
192.515
 20
109.718
 30
0.0
 11
192.44
 21
109.488
 31
0.0
  0
LINE
  8
0
 62
     0
 10
192.44
 20
109.488
 30
0.0
 11
192.439
 21
109.23
 31
0.0
  0
LINE
  8
0
 62
     0
 10
192.439
 20
109.23
 30
0.0
 11
192.553
 21
108.865
 31
0.0
  0
LINE
  8
0
 62
     0
 10
192.553
 20
108.865
 30
0.0
 11
192.876
 21
107.958
 31
0.0
  0
LINE
  8
0
 62
     0
 10
192.876
 20
107.958
 30
0.0
 11
193.397
 21
106.54
 31
0.0
  0
LINE
  8
0
 62
     0
 10
193.397
 20
106.54
 30
0.0
 11
194.104
 21
104.636
 31
0.0
  0
LINE
  8
0
 62
     0
 10
194.104
 20
104.636
 30
0.0
 11
194.987
 21
102.277
 31
0.0
  0
LINE
  8
0
 62
     0
 10
194.987
 20
102.277
 30
0.0
 11
196.037
 21
99.489
 31
0.0
  0
LINE
  8
0
 62
     0
 10
196.037
 20
99.489
 30
0.0
 11
197.241
 21
96.3013
 31
0.0
  0
LINE
  8
0
 62
     0
 10
197.241
 20
96.3013
 30
0.0
 11
198.591
 21
92.7421
 31
0.0
  0
LINE
  8
0
 62
     0
 10
198.591
 20
92.7421
 30
0.0
 11
200.072
 21
88.8393
 31
0.0
  0
LINE
  8
0
 62
     0
 10
200.072
 20
88.8393
 30
0.0
 11
201.677
 21
84.6212
 31
0.0
  0
LINE
  8
0
 62
     0
 10
201.677
 20
84.6212
 30
0.0
 11
203.394
 21
80.1165
 31
0.0
  0
LINE
  8
0
 62
     0
 10
203.394
 20
80.1165
 30
0.0
 11
205.213
 21
75.3526
 31
0.0
  0
LINE
  8
0
 62
     0
 10
205.213
 20
75.3526
 30
0.0
 11
207.122
 21
70.3573
 31
0.0
  0
LINE
  8
0
 62
     0
 10
207.122
 20
70.3573
 30
0.0
 11
209.112
 21
65.1591
 31
0.0
  0
LINE
  8
0
 62
     0
 10
209.112
 20
65.1591
 30
0.0
 11
211.171
 21
59.7863
 31
0.0
  0
LINE
  8
0
 62
     0
 10
211.171
 20
59.7863
 30
0.0
 11
213.289
 21
54.2671
 31
0.0
  0
LINE
  8
0
 62
     0
 10
213.289
 20
54.2671
 30
0.0
 11
234.103
 21
0.115755
 31
0.0
  0
LINE
  8
0
 62
     0
 10
234.103
 20
0.115755
 30
0.0
 11
235.654
 21
0.00964629
 31
0.0
  0
LINE
  8
0
 62
     0
 10
235.654
 20
0.00964629
 30
0.0
 11
236.572
 21
0.0358292
 31
0.0
  0
LINE
  8
0
 62
     0
 10
236.572
 20
0.0358292
 30
0.0
 11
237.651
 21
0.235645
 31
0.0
  0
LINE
  8
0
 62
     0
 10
237.651
 20
0.235645
 30
0.0
 11
239.001
 21
0.640789
 31
0.0
  0
LINE
  8
0
 62
     0
 10
239.001
 20
0.640789
 30
0.0
 11
240.734
 21
1.2802
 31
0.0
  0
LINE
  8
0
 62
     0
 10
240.734
 20
1.2802
 30
0.0
 11
254.183
 21
7.26362
 31
0.0
  0
LINE
  8
0
 62
     0
 10
254.183
 20
7.26362
 30
0.0
 11
267.028
 21
14.3247
 31
0.0
  0
LINE
  8
0
 62
     0
 10
267.028
 20
14.3247
 30
0.0
 11
279.284
 21
22.4841
 31
0.0
  0
LINE
  8
0
 62
     0
 10
279.284
 20
22.4841
 30
0.0
 11
290.97
 21
31.7596
 31
0.0
  0
LINE
  8
0
 62
     0
 10
290.97
 20
31.7596
 30
0.0
 11
302.449
 21
42.6036
 31
0.0
  0
LINE
  8
0
 62
     0
 10
302.449
 20
42.6036
 30
0.0
 11
312.857
 21
54.3814
 31
0.0
  0
LINE
  8
0
 62
     0
 10
312.857
 20
54.3814
 30
0.0
 11
322.145
 21
67.0045
 31
0.0
  0
LINE
  8
0
 62
     0
 10
322.145
 20
67.0045
 30
0.0
 11
330.265
 21
80.3811
 31
0.0
  0
LINE
  8
0
 62
     0
 10
330.265
 20
80.3811
 30
0.0
 11
337.165
 21
94.4245
 31
0.0
  0
LINE
  8
0
 62
     0
 10
337.165
 20
94.4245
 30
0.0
 11
342.797
 21
109.041
 31
0.0
  0
LINE
  8
0
 62
     0
 10
342.797
 20
109.041
 30
0.0
 11
347.111
 21
124.143
 31
0.0
  0
LINE
  8
0
 62
     0
 10
347.111
 20
124.143
 30
0.0
 11
350.06
 21
139.639
 31
0.0
  0
LINE
  8
0
 62
     0
 10
350.06
 20
139.639
 30
0.0
 11
350.924
 21
146.222
 31
0.0
  0
LINE
  8
0
 62
     0
 10
350.924
 20
146.222
 30
0.0
 11
351.453
 21
151.926
 31
0.0
  0
LINE
  8
0
 62
     0
 10
351.453
 20
151.926
 30
0.0
 11
351.717
 21
157.747
 31
0.0
  0
LINE
  8
0
 62
     0
 10
351.717
 20
157.747
 30
0.0
 11
351.788
 21
164.687
 31
0.0
  0
LINE
  8
0
 62
     0
 10
351.788
 20
164.687
 30
0.0
 11
351.715
 21
171.702
 31
0.0
  0
LINE
  8
0
 62
     0
 10
351.715
 20
171.702
 30
0.0
 11
351.448
 21
177.572
 31
0.0
  0
LINE
  8
0
 62
     0
 10
351.448
 20
177.572
 30
0.0
 11
350.909
 21
183.351
 31
0.0
  0
LINE
  8
0
 62
     0
 10
350.909
 20
183.351
 30
0.0
 11
350.024
 21
190.087
 31
0.0
  0
LINE
  8
0
 62
     0
 10
350.024
 20
190.087
 30
0.0
 11
347.77
 21
202.554
 31
0.0
  0
LINE
  8
0
 62
     0
 10
347.77
 20
202.554
 30
0.0
 11
344.597
 21
214.834
 31
0.0
  0
LINE
  8
0
 62
     0
 10
344.597
 20
214.834
 30
0.0
 11
340.533
 21
226.866
 31
0.0
  0
LINE
  8
0
 62
     0
 10
340.533
 20
226.866
 30
0.0
 11
335.605
 21
238.593
 31
0.0
  0
LINE
  8
0
 62
     0
 10
335.605
 20
238.593
 30
0.0
 11
329.839
 21
249.958
 31
0.0
  0
LINE
  8
0
 62
     0
 10
329.839
 20
249.958
 30
0.0
 11
323.264
 21
260.9
 31
0.0
  0
LINE
  8
0
 62
     0
 10
323.264
 20
260.9
 30
0.0
 11
315.908
 21
271.361
 31
0.0
  0
LINE
  8
0
 62
     0
 10
315.908
 20
271.361
 30
0.0
 11
307.797
 21
281.28
 31
0.0
  0
LINE
  8
0
 62
     0
 10
307.797
 20
281.28
 30
0.0
 11
301.949
 21
287.601
 31
0.0
  0
LINE
  8
0
 62
     0
 10
301.949
 20
287.601
 30
0.0
 11
295.804
 21
293.605
 31
0.0
  0
LINE
  8
0
 62
     0
 10
295.804
 20
293.605
 30
0.0
 11
289.381
 21
299.286
 31
0.0
  0
LINE
  8
0
 62
     0
 10
289.381
 20
299.286
 30
0.0
 11
282.692
 21
304.637
 31
0.0
  0
LINE
  8
0
 62
     0
 10
282.692
 20
304.637
 30
0.0
 11
275.754
 21
309.649
 31
0.0
  0
LINE
  8
0
 62
     0
 10
275.754
 20
309.649
 30
0.0
 11
268.58
 21
314.317
 31
0.0
  0
LINE
  8
0
 62
     0
 10
268.58
 20
314.317
 30
0.0
 11
261.188
 21
318.631
 31
0.0
  0
LINE
  8
0
 62
     0
 10
261.188
 20
318.631
 30
0.0
 11
253.592
 21
322.586
 31
0.0
  0
LINE
  8
0
 62
     0
 10
253.592
 20
322.586
 30
0.0
 11
245.807
 21
326.173
 31
0.0
  0
LINE
  8
0
 62
     0
 10
245.807
 20
326.173
 30
0.0
 11
237.849
 21
329.385
 31
0.0
  0
LINE
  8
0
 62
     0
 10
237.849
 20
329.385
 30
0.0
 11
229.734
 21
332.215
 31
0.0
  0
LINE
  8
0
 62
     0
 10
229.734
 20
332.215
 30
0.0
 11
221.476
 21
334.655
 31
0.0
  0
LINE
  8
0
 62
     0
 10
221.476
 20
334.655
 30
0.0
 11
213.09
 21
336.697
 31
0.0
  0
LINE
  8
0
 62
     0
 10
213.09
 20
336.697
 30
0.0
 11
204.593
 21
338.336
 31
0.0
  0
LINE
  8
0
 62
     0
 10
204.593
 20
338.336
 30
0.0
 11
195.998
 21
339.564
 31
0.0
  0
LINE
  8
0
 62
     0
 10
195.998
 20
339.564
 30
0.0
 11
187.324
 21
340.37
 31
0.0
  0
LINE
  8
0
 62
     0
 10
187.324
 20
340.37
 30
0.0
 11
181.865
 21
340.588
 31
0.0
  0
LINE
  8
0
 62
     0
 10
181.865
 20
340.588
 30
0.0
 11
175.413
 21
340.657
 31
0.0
  0
LINE
  8
0
 62
     0
 10
175.413
 20
340.657
 30
0.0
 11
169.033
 21
340.574
 31
0.0
  0
LINE
  8
0
 62
     0
 10
169.033
 20
340.574
 30
0.0
 11
163.794
 21
340.334
 31
0.0
  0
ENDSEC
  0
EOF
