  0
SECTION
  2
HEADER
  9
$ACADVER
  1
AC1009
  9
$EXTMIN
 10
0.0
 20
0.0
 30
0.0
  9
$EXTMAX
 10
1000.0
 20
1000.0
 30
0.0
  9
$FILLMODE
 70
 0
  9
$SPLFRAME
 70
 1
  0
ENDSEC
  0
SECTION
  2
TABLES
  0
TABLE
  2
LAYER
 70
1
  0
LAYER
  2
0
 70
     0
 62
     7
  6
CONTINUOUS
  0
ENDTAB
  0
ENDSEC
  0
SECTION
  2
ENTITIES
  0
LINE
  8
0
 62
     0
 10
150.884
 20
313.549
 30
0.0
 11
150.636
 21
313.196
 31
0.0
  0
LINE
  8
0
 62
     0
 10
150.636
 20
313.196
 30
0.0
 11
150.385
 21
312.597
 31
0.0
  0
LINE
  8
0
 62
     0
 10
150.385
 20
312.597
 30
0.0
 11
150.154
 21
311.814
 31
0.0
  0
LINE
  8
0
 62
     0
 10
150.154
 20
311.814
 30
0.0
 11
149.967
 21
310.903
 31
0.0
  0
LINE
  8
0
 62
     0
 10
149.967
 20
310.903
 30
0.0
 11
149.806
 21
310.001
 31
0.0
  0
LINE
  8
0
 62
     0
 10
149.806
 20
310.001
 30
0.0
 11
149.614
 21
309.153
 31
0.0
  0
LINE
  8
0
 62
     0
 10
149.614
 20
309.153
 30
0.0
 11
149.421
 21
308.459
 31
0.0
  0
LINE
  8
0
 62
     0
 10
149.421
 20
308.459
 30
0.0
 11
149.261
 21
308.011
 31
0.0
  0
LINE
  8
0
 62
     0
 10
149.261
 20
308.011
 30
0.0
 11
148.988
 21
307.261
 31
0.0
  0
LINE
  8
0
 62
     0
 10
148.988
 20
307.261
 30
0.0
 11
148.874
 21
306.458
 31
0.0
  0
LINE
  8
0
 62
     0
 10
148.874
 20
306.458
 30
0.0
 11
148.714
 21
305.537
 31
0.0
  0
LINE
  8
0
 62
     0
 10
148.714
 20
305.537
 30
0.0
 11
148.344
 21
304.589
 31
0.0
  0
LINE
  8
0
 62
     0
 10
148.344
 20
304.589
 30
0.0
 11
148.142
 21
304.014
 31
0.0
  0
LINE
  8
0
 62
     0
 10
148.142
 20
304.014
 30
0.0
 11
147.974
 21
303.24
 31
0.0
  0
LINE
  8
0
 62
     0
 10
147.974
 20
303.24
 30
0.0
 11
147.858
 21
302.347
 31
0.0
  0
LINE
  8
0
 62
     0
 10
147.858
 20
302.347
 30
0.0
 11
147.815
 21
301.414
 31
0.0
  0
LINE
  8
0
 62
     0
 10
147.815
 20
301.414
 30
0.0
 11
147.771
 21
300.45
 31
0.0
  0
LINE
  8
0
 62
     0
 10
147.771
 20
300.45
 30
0.0
 11
147.655
 21
299.434
 31
0.0
  0
LINE
  8
0
 62
     0
 10
147.655
 20
299.434
 30
0.0
 11
147.487
 21
298.493
 31
0.0
  0
LINE
  8
0
 62
     0
 10
147.487
 20
298.493
 30
0.0
 11
147.286
 21
297.744
 31
0.0
  0
LINE
  8
0
 62
     0
 10
147.286
 20
297.744
 30
0.0
 11
147.084
 21
297.024
 31
0.0
  0
LINE
  8
0
 62
     0
 10
147.084
 20
297.024
 30
0.0
 11
146.915
 21
296.153
 31
0.0
  0
LINE
  8
0
 62
     0
 10
146.915
 20
296.153
 30
0.0
 11
146.8
 21
295.25
 31
0.0
  0
LINE
  8
0
 62
     0
 10
146.8
 20
295.25
 30
0.0
 11
146.757
 21
294.429
 31
0.0
  0
LINE
  8
0
 62
     0
 10
146.757
 20
294.429
 30
0.0
 11
146.663
 21
293.036
 31
0.0
  0
LINE
  8
0
 62
     0
 10
146.663
 20
293.036
 30
0.0
 11
146.439
 21
292.276
 31
0.0
  0
LINE
  8
0
 62
     0
 10
146.439
 20
292.276
 30
0.0
 11
146.141
 21
291.611
 31
0.0
  0
LINE
  8
0
 62
     0
 10
146.141
 20
291.611
 30
0.0
 11
145.785
 21
290.178
 31
0.0
  0
LINE
  8
0
 62
     0
 10
145.785
 20
290.178
 30
0.0
 11
145.376
 21
288.031
 31
0.0
  0
LINE
  8
0
 62
     0
 10
145.376
 20
288.031
 30
0.0
 11
144.921
 21
285.221
 31
0.0
  0
LINE
  8
0
 62
     0
 10
144.921
 20
285.221
 30
0.0
 11
144.753
 21
284.134
 31
0.0
  0
LINE
  8
0
 62
     0
 10
144.753
 20
284.134
 30
0.0
 11
144.537
 21
282.978
 31
0.0
  0
LINE
  8
0
 62
     0
 10
144.537
 20
282.978
 30
0.0
 11
144.301
 21
281.893
 31
0.0
  0
LINE
  8
0
 62
     0
 10
144.301
 20
281.893
 30
0.0
 11
144.075
 21
281.023
 31
0.0
  0
LINE
  8
0
 62
     0
 10
144.075
 20
281.023
 30
0.0
 11
143.722
 21
279.33
 31
0.0
  0
LINE
  8
0
 62
     0
 10
143.722
 20
279.33
 30
0.0
 11
143.582
 21
277.636
 31
0.0
  0
LINE
  8
0
 62
     0
 10
143.582
 20
277.636
 30
0.0
 11
143.538
 21
276.906
 31
0.0
  0
LINE
  8
0
 62
     0
 10
143.538
 20
276.906
 30
0.0
 11
143.422
 21
276.152
 31
0.0
  0
LINE
  8
0
 62
     0
 10
143.422
 20
276.152
 30
0.0
 11
143.254
 21
275.47
 31
0.0
  0
LINE
  8
0
 62
     0
 10
143.254
 20
275.47
 30
0.0
 11
143.053
 21
274.956
 31
0.0
  0
LINE
  8
0
 62
     0
 10
143.053
 20
274.956
 30
0.0
 11
142.682
 21
273.797
 31
0.0
  0
LINE
  8
0
 62
     0
 10
142.682
 20
273.797
 30
0.0
 11
142.524
 21
272.451
 31
0.0
  0
LINE
  8
0
 62
     0
 10
142.524
 20
272.451
 30
0.0
 11
142.43
 21
271.154
 31
0.0
  0
LINE
  8
0
 62
     0
 10
142.43
 20
271.154
 30
0.0
 11
142.205
 21
270.122
 31
0.0
  0
LINE
  8
0
 62
     0
 10
142.205
 20
270.122
 30
0.0
 11
141.919
 21
269.183
 31
0.0
  0
LINE
  8
0
 62
     0
 10
141.919
 20
269.183
 30
0.0
 11
141.712
 21
268.111
 31
0.0
  0
LINE
  8
0
 62
     0
 10
141.712
 20
268.111
 30
0.0
 11
141.377
 21
267.135
 31
0.0
  0
LINE
  8
0
 62
     0
 10
141.377
 20
267.135
 30
0.0
 11
140.784
 21
266.224
 31
0.0
  0
LINE
  8
0
 62
     0
 10
140.784
 20
266.224
 30
0.0
 11
140.074
 21
265.552
 31
0.0
  0
LINE
  8
0
 62
     0
 10
140.074
 20
265.552
 30
0.0
 11
139.383
 21
265.289
 31
0.0
  0
LINE
  8
0
 62
     0
 10
139.383
 20
265.289
 30
0.0
 11
138.778
 21
265.131
 31
0.0
  0
LINE
  8
0
 62
     0
 10
138.778
 20
265.131
 30
0.0
 11
138.148
 21
264.76
 31
0.0
  0
LINE
  8
0
 62
     0
 10
138.148
 20
264.76
 30
0.0
 11
137.425
 21
264.39
 31
0.0
  0
LINE
  8
0
 62
     0
 10
137.425
 20
264.39
 30
0.0
 11
136.703
 21
264.231
 31
0.0
  0
LINE
  8
0
 62
     0
 10
136.703
 20
264.231
 30
0.0
 11
136.209
 21
264.158
 31
0.0
  0
LINE
  8
0
 62
     0
 10
136.209
 20
264.158
 30
0.0
 11
135.441
 21
263.958
 31
0.0
  0
LINE
  8
0
 62
     0
 10
135.441
 20
263.958
 30
0.0
 11
134.499
 21
263.665
 31
0.0
  0
LINE
  8
0
 62
     0
 10
134.499
 20
263.665
 30
0.0
 11
133.492
 21
263.314
 31
0.0
  0
LINE
  8
0
 62
     0
 10
133.492
 20
263.314
 30
0.0
 11
132.464
 21
262.944
 31
0.0
  0
LINE
  8
0
 62
     0
 10
132.464
 20
262.944
 30
0.0
 11
131.468
 21
262.6
 31
0.0
  0
LINE
  8
0
 62
     0
 10
131.468
 20
262.6
 30
0.0
 11
130.609
 21
262.322
 31
0.0
  0
LINE
  8
0
 62
     0
 10
130.609
 20
262.322
 30
0.0
 11
130
 21
262.15
 31
0.0
  0
LINE
  8
0
 62
     0
 10
130
 20
262.15
 30
0.0
 11
129.446
 21
261.957
 31
0.0
  0
LINE
  8
0
 62
     0
 10
129.446
 20
261.957
 30
0.0
 11
128.702
 21
261.665
 31
0.0
  0
LINE
  8
0
 62
     0
 10
128.702
 20
261.665
 30
0.0
 11
127.865
 21
261.306
 31
0.0
  0
LINE
  8
0
 62
     0
 10
127.865
 20
261.306
 30
0.0
 11
127.036
 21
260.915
 31
0.0
  0
LINE
  8
0
 62
     0
 10
127.036
 20
260.915
 30
0.0
 11
126.248
 21
260.563
 31
0.0
  0
LINE
  8
0
 62
     0
 10
126.248
 20
260.563
 30
0.0
 11
125.527
 21
260.271
 31
0.0
  0
LINE
  8
0
 62
     0
 10
125.527
 20
260.271
 30
0.0
 11
124.952
 21
260.072
 31
0.0
  0
LINE
  8
0
 62
     0
 10
124.952
 20
260.072
 30
0.0
 11
124.602
 21
259.997
 31
0.0
  0
LINE
  8
0
 62
     0
 10
124.602
 20
259.997
 30
0.0
 11
123.975
 21
259.861
 31
0.0
  0
LINE
  8
0
 62
     0
 10
123.975
 20
259.861
 30
0.0
 11
123.191
 21
259.538
 31
0.0
  0
LINE
  8
0
 62
     0
 10
123.191
 20
259.538
 30
0.0
 11
122.149
 21
259.029
 31
0.0
  0
LINE
  8
0
 62
     0
 10
122.149
 20
259.029
 30
0.0
 11
121.004
 21
258.516
 31
0.0
  0
LINE
  8
0
 62
     0
 10
121.004
 20
258.516
 30
0.0
 11
118.276
 21
257.267
 31
0.0
  0
LINE
  8
0
 62
     0
 10
118.276
 20
257.267
 30
0.0
 11
115.504
 21
255.928
 31
0.0
  0
LINE
  8
0
 62
     0
 10
115.504
 20
255.928
 30
0.0
 11
113.269
 21
254.781
 31
0.0
  0
LINE
  8
0
 62
     0
 10
113.269
 20
254.781
 30
0.0
 11
112.149
 21
254.106
 31
0.0
  0
LINE
  8
0
 62
     0
 10
112.149
 20
254.106
 30
0.0
 11
111.75
 21
253.892
 31
0.0
  0
LINE
  8
0
 62
     0
 10
111.75
 20
253.892
 30
0.0
 11
111.139
 21
253.687
 31
0.0
  0
LINE
  8
0
 62
     0
 10
111.139
 20
253.687
 30
0.0
 11
110.388
 21
253.516
 31
0.0
  0
LINE
  8
0
 62
     0
 10
110.388
 20
253.516
 30
0.0
 11
109.573
 21
253.401
 31
0.0
  0
LINE
  8
0
 62
     0
 10
109.573
 20
253.401
 30
0.0
 11
107.599
 21
253.188
 31
0.0
  0
LINE
  8
0
 62
     0
 10
107.599
 20
253.188
 30
0.0
 11
102.977
 21
256.329
 31
0.0
  0
LINE
  8
0
 62
     0
 10
102.977
 20
256.329
 30
0.0
 11
101.121
 21
257.593
 31
0.0
  0
LINE
  8
0
 62
     0
 10
101.121
 20
257.593
 30
0.0
 11
99.4791
 21
258.706
 31
0.0
  0
LINE
  8
0
 62
     0
 10
99.4791
 20
258.706
 30
0.0
 11
98.2278
 21
259.548
 31
0.0
  0
LINE
  8
0
 62
     0
 10
98.2278
 20
259.548
 30
0.0
 11
97.5445
 21
259.997
 31
0.0
  0
LINE
  8
0
 62
     0
 10
97.5445
 20
259.997
 30
0.0
 11
96.7451
 21
260.554
 31
0.0
  0
LINE
  8
0
 62
     0
 10
96.7451
 20
260.554
 30
0.0
 11
95.921
 21
261.162
 31
0.0
  0
LINE
  8
0
 62
     0
 10
95.921
 20
261.162
 30
0.0
 11
94.9262
 21
261.896
 31
0.0
  0
LINE
  8
0
 62
     0
 10
94.9262
 20
261.896
 30
0.0
 11
93.5344
 21
262.888
 31
0.0
  0
LINE
  8
0
 62
     0
 10
93.5344
 20
262.888
 30
0.0
 11
91.9028
 21
264.028
 31
0.0
  0
LINE
  8
0
 62
     0
 10
91.9028
 20
264.028
 30
0.0
 11
90.1912
 21
265.206
 31
0.0
  0
LINE
  8
0
 62
     0
 10
90.1912
 20
265.206
 30
0.0
 11
88.5624
 21
266.313
 31
0.0
  0
LINE
  8
0
 62
     0
 10
88.5624
 20
266.313
 30
0.0
 11
87.1732
 21
267.239
 31
0.0
  0
LINE
  8
0
 62
     0
 10
87.1732
 20
267.239
 30
0.0
 11
86.1868
 21
267.875
 31
0.0
  0
LINE
  8
0
 62
     0
 10
86.1868
 20
267.875
 30
0.0
 11
85.761
 21
268.111
 31
0.0
  0
LINE
  8
0
 62
     0
 10
85.761
 20
268.111
 30
0.0
 11
85.5514
 21
268.205
 31
0.0
  0
LINE
  8
0
 62
     0
 10
85.5514
 20
268.205
 30
0.0
 11
85.1778
 21
268.456
 31
0.0
  0
LINE
  8
0
 62
     0
 10
85.1778
 20
268.456
 30
0.0
 11
84.6984
 21
268.826
 31
0.0
  0
LINE
  8
0
 62
     0
 10
84.6984
 20
268.826
 30
0.0
 11
84.1735
 21
269.276
 31
0.0
  0
LINE
  8
0
 62
     0
 10
84.1735
 20
269.276
 30
0.0
 11
83.5325
 21
269.774
 31
0.0
  0
LINE
  8
0
 62
     0
 10
83.5325
 20
269.774
 30
0.0
 11
82.7842
 21
270.322
 31
0.0
  0
LINE
  8
0
 62
     0
 10
82.7842
 20
270.322
 30
0.0
 11
82.0152
 21
270.849
 31
0.0
  0
LINE
  8
0
 62
     0
 10
82.0152
 20
270.849
 30
0.0
 11
81.3167
 21
271.286
 31
0.0
  0
LINE
  8
0
 62
     0
 10
81.3167
 20
271.286
 30
0.0
 11
79.6837
 21
272.273
 31
0.0
  0
LINE
  8
0
 62
     0
 10
79.6837
 20
272.273
 30
0.0
 11
77.7268
 21
273.563
 31
0.0
  0
LINE
  8
0
 62
     0
 10
77.7268
 20
273.563
 30
0.0
 11
75.4916
 21
275.117
 31
0.0
  0
LINE
  8
0
 62
     0
 10
75.4916
 20
275.117
 30
0.0
 11
73.0264
 21
276.896
 31
0.0
  0
LINE
  8
0
 62
     0
 10
73.0264
 20
276.896
 30
0.0
 11
71.574
 21
277.934
 31
0.0
  0
LINE
  8
0
 62
     0
 10
71.574
 20
277.934
 30
0.0
 11
70.5432
 21
278.532
 31
0.0
  0
LINE
  8
0
 62
     0
 10
70.5432
 20
278.532
 30
0.0
 11
69.6764
 21
278.806
 31
0.0
  0
LINE
  8
0
 62
     0
 10
69.6764
 20
278.806
 30
0.0
 11
68.7215
 21
278.871
 31
0.0
  0
LINE
  8
0
 62
     0
 10
68.7215
 20
278.871
 30
0.0
 11
67.0994
 21
278.871
 31
0.0
  0
LINE
  8
0
 62
     0
 10
67.0994
 20
278.871
 30
0.0
 11
61.7721
 21
273.579
 31
0.0
  0
LINE
  8
0
 62
     0
 10
61.7721
 20
273.579
 30
0.0
 11
59.4155
 21
271.23
 31
0.0
  0
LINE
  8
0
 62
     0
 10
59.4155
 20
271.23
 30
0.0
 11
56.8935
 21
268.716
 31
0.0
  0
LINE
  8
0
 62
     0
 10
56.8935
 20
268.716
 30
0.0
 11
54.5179
 21
266.342
 31
0.0
  0
LINE
  8
0
 62
     0
 10
54.5179
 20
266.342
 30
0.0
 11
52.5999
 21
264.407
 31
0.0
  0
LINE
  8
0
 62
     0
 10
52.5999
 20
264.407
 30
0.0
 11
51.0551
 21
262.883
 31
0.0
  0
LINE
  8
0
 62
     0
 10
51.0551
 20
262.883
 30
0.0
 11
49.7374
 21
261.577
 31
0.0
  0
LINE
  8
0
 62
     0
 10
49.7374
 20
261.577
 30
0.0
 11
48.7839
 21
260.627
 31
0.0
  0
LINE
  8
0
 62
     0
 10
48.7839
 20
260.627
 30
0.0
 11
48.332
 21
260.174
 31
0.0
  0
LINE
  8
0
 62
     0
 10
48.332
 20
260.174
 30
0.0
 11
48.0617
 21
259.934
 31
0.0
  0
LINE
  8
0
 62
     0
 10
48.0617
 20
259.934
 30
0.0
 11
47.6567
 21
259.522
 31
0.0
  0
LINE
  8
0
 62
     0
 10
47.6567
 20
259.522
 30
0.0
 11
47.1646
 21
259.004
 31
0.0
  0
LINE
  8
0
 62
     0
 10
47.1646
 20
259.004
 30
0.0
 11
46.6383
 21
258.446
 31
0.0
  0
LINE
  8
0
 62
     0
 10
46.6383
 20
258.446
 30
0.0
 11
45.7274
 21
257.505
 31
0.0
  0
LINE
  8
0
 62
     0
 10
45.7274
 20
257.505
 30
0.0
 11
44.1992
 21
255.936
 31
0.0
  0
LINE
  8
0
 62
     0
 10
44.1992
 20
255.936
 30
0.0
 11
42.2674
 21
253.965
 31
0.0
  0
LINE
  8
0
 62
     0
 10
42.2674
 20
253.965
 30
0.0
 11
40.1465
 21
251.813
 31
0.0
  0
LINE
  8
0
 62
     0
 10
40.1465
 20
251.813
 30
0.0
 11
38.0488
 21
249.688
 31
0.0
  0
LINE
  8
0
 62
     0
 10
38.0488
 20
249.688
 30
0.0
 11
36.522
 21
248.059
 31
0.0
  0
LINE
  8
0
 62
     0
 10
36.522
 20
248.059
 30
0.0
 11
35.5342
 21
246.783
 31
0.0
  0
LINE
  8
0
 62
     0
 10
35.5342
 20
246.783
 30
0.0
 11
35.049
 21
245.719
 31
0.0
  0
LINE
  8
0
 62
     0
 10
35.049
 20
245.719
 30
0.0
 11
35.0325
 21
244.724
 31
0.0
  0
LINE
  8
0
 62
     0
 10
35.0325
 20
244.724
 30
0.0
 11
35.4528
 21
243.658
 31
0.0
  0
LINE
  8
0
 62
     0
 10
35.4528
 20
243.658
 30
0.0
 11
36.2754
 21
242.376
 31
0.0
  0
LINE
  8
0
 62
     0
 10
36.2754
 20
242.376
 30
0.0
 11
37.4661
 21
240.736
 31
0.0
  0
LINE
  8
0
 62
     0
 10
37.4661
 20
240.736
 30
0.0
 11
37.9155
 21
240.12
 31
0.0
  0
LINE
  8
0
 62
     0
 10
37.9155
 20
240.12
 30
0.0
 11
38.5286
 21
239.25
 31
0.0
  0
LINE
  8
0
 62
     0
 10
38.5286
 20
239.25
 30
0.0
 11
39.2257
 21
238.241
 31
0.0
  0
LINE
  8
0
 62
     0
 10
39.2257
 20
238.241
 30
0.0
 11
39.9355
 21
237.208
 31
0.0
  0
LINE
  8
0
 62
     0
 10
39.9355
 20
237.208
 30
0.0
 11
41.5438
 21
234.823
 31
0.0
  0
LINE
  8
0
 62
     0
 10
41.5438
 20
234.823
 30
0.0
 11
42.6999
 21
233.178
 31
0.0
  0
LINE
  8
0
 62
     0
 10
42.6999
 20
233.178
 30
0.0
 11
43.4523
 21
232.208
 31
0.0
  0
LINE
  8
0
 62
     0
 10
43.4523
 20
232.208
 30
0.0
 11
43.8506
 21
231.845
 31
0.0
  0
LINE
  8
0
 62
     0
 10
43.8506
 20
231.845
 30
0.0
 11
44.027
 21
231.656
 31
0.0
  0
LINE
  8
0
 62
     0
 10
44.027
 20
231.656
 30
0.0
 11
44.0986
 21
231.388
 31
0.0
  0
LINE
  8
0
 62
     0
 10
44.0986
 20
231.388
 30
0.0
 11
44.2006
 21
231.13
 31
0.0
  0
LINE
  8
0
 62
     0
 10
44.2006
 20
231.13
 30
0.0
 11
44.4747
 21
230.623
 31
0.0
  0
LINE
  8
0
 62
     0
 10
44.4747
 20
230.623
 30
0.0
 11
44.8702
 21
229.945
 31
0.0
  0
LINE
  8
0
 62
     0
 10
44.8702
 20
229.945
 30
0.0
 11
45.3376
 21
229.179
 31
0.0
  0
LINE
  8
0
 62
     0
 10
45.3376
 20
229.179
 30
0.0
 11
45.8251
 21
228.404
 31
0.0
  0
LINE
  8
0
 62
     0
 10
45.8251
 20
228.404
 30
0.0
 11
46.2855
 21
227.701
 31
0.0
  0
LINE
  8
0
 62
     0
 10
46.2855
 20
227.701
 30
0.0
 11
46.6672
 21
227.153
 31
0.0
  0
LINE
  8
0
 62
     0
 10
46.6672
 20
227.153
 30
0.0
 11
46.9209
 21
226.836
 31
0.0
  0
LINE
  8
0
 62
     0
 10
46.9209
 20
226.836
 30
0.0
 11
47.2585
 21
226.405
 31
0.0
  0
LINE
  8
0
 62
     0
 10
47.2585
 20
226.405
 30
0.0
 11
47.8374
 21
225.601
 31
0.0
  0
LINE
  8
0
 62
     0
 10
47.8374
 20
225.601
 30
0.0
 11
49.7995
 21
222.738
 31
0.0
  0
LINE
  8
0
 62
     0
 10
49.7995
 20
222.738
 30
0.0
 11
51.1087
 21
220.862
 31
0.0
  0
LINE
  8
0
 62
     0
 10
51.1087
 20
220.862
 30
0.0
 11
51.8749
 21
219.814
 31
0.0
  0
LINE
  8
0
 62
     0
 10
51.8749
 20
219.814
 30
0.0
 11
52.2125
 21
219.428
 31
0.0
  0
LINE
  8
0
 62
     0
 10
52.2125
 20
219.428
 30
0.0
 11
52.3998
 21
219.177
 31
0.0
  0
LINE
  8
0
 62
     0
 10
52.3998
 20
219.177
 30
0.0
 11
52.7664
 21
218.63
 31
0.0
  0
LINE
  8
0
 62
     0
 10
52.7664
 20
218.63
 30
0.0
 11
53.2529
 21
217.866
 31
0.0
  0
LINE
  8
0
 62
     0
 10
53.2529
 20
217.866
 30
0.0
 11
53.8
 21
216.958
 31
0.0
  0
LINE
  8
0
 62
     0
 10
53.8
 20
216.958
 30
0.0
 11
54.3885
 21
215.984
 31
0.0
  0
LINE
  8
0
 62
     0
 10
54.3885
 20
215.984
 30
0.0
 11
54.9988
 21
215.032
 31
0.0
  0
LINE
  8
0
 62
     0
 10
54.9988
 20
215.032
 30
0.0
 11
55.5554
 21
214.205
 31
0.0
  0
LINE
  8
0
 62
     0
 10
55.5554
 20
214.205
 30
0.0
 11
55.9869
 21
213.607
 31
0.0
  0
LINE
  8
0
 62
     0
 10
55.9869
 20
213.607
 30
0.0
 11
57.0689
 21
212.117
 31
0.0
  0
LINE
  8
0
 62
     0
 10
57.0689
 20
212.117
 30
0.0
 11
58.3985
 21
210.151
 31
0.0
  0
LINE
  8
0
 62
     0
 10
58.3985
 20
210.151
 30
0.0
 11
59.6427
 21
208.211
 31
0.0
  0
LINE
  8
0
 62
     0
 10
59.6427
 20
208.211
 30
0.0
 11
60.4668
 21
206.798
 31
0.0
  0
LINE
  8
0
 62
     0
 10
60.4668
 20
206.798
 30
0.0
 11
60.7688
 21
206.137
 31
0.0
  0
LINE
  8
0
 62
     0
 10
60.7688
 20
206.137
 30
0.0
 11
60.7977
 21
205.547
 31
0.0
  0
LINE
  8
0
 62
     0
 10
60.7977
 20
205.547
 30
0.0
 11
60.5014
 21
204.745
 31
0.0
  0
LINE
  8
0
 62
     0
 10
60.5014
 20
204.745
 30
0.0
 11
59.8318
 21
203.447
 31
0.0
  0
LINE
  8
0
 62
     0
 10
59.8318
 20
203.447
 30
0.0
 11
59.2377
 21
202.359
 31
0.0
  0
LINE
  8
0
 62
     0
 10
59.2377
 20
202.359
 30
0.0
 11
58.5212
 21
201.013
 31
0.0
  0
LINE
  8
0
 62
     0
 10
58.5212
 20
201.013
 30
0.0
 11
57.773
 21
199.588
 31
0.0
  0
LINE
  8
0
 62
     0
 10
57.773
 20
199.588
 30
0.0
 11
57.0798
 21
198.261
 31
0.0
  0
LINE
  8
0
 62
     0
 10
57.0798
 20
198.261
 30
0.0
 11
56.4638
 21
197.057
 31
0.0
  0
LINE
  8
0
 62
     0
 10
56.4638
 20
197.057
 30
0.0
 11
55.8849
 21
196.004
 31
0.0
  0
LINE
  8
0
 62
     0
 10
55.8849
 20
196.004
 30
0.0
 11
55.4179
 21
195.216
 31
0.0
  0
LINE
  8
0
 62
     0
 10
55.4179
 20
195.216
 30
0.0
 11
55.1395
 21
194.804
 31
0.0
  0
LINE
  8
0
 62
     0
 10
55.1395
 20
194.804
 30
0.0
 11
54.8171
 21
194.298
 31
0.0
  0
LINE
  8
0
 62
     0
 10
54.8171
 20
194.298
 30
0.0
 11
54.682
 21
193.711
 31
0.0
  0
LINE
  8
0
 62
     0
 10
54.682
 20
193.711
 30
0.0
 11
54.6005
 21
193.298
 31
0.0
  0
LINE
  8
0
 62
     0
 10
54.6005
 20
193.298
 30
0.0
 11
54.3775
 21
192.644
 31
0.0
  0
LINE
  8
0
 62
     0
 10
54.3775
 20
192.644
 30
0.0
 11
54.0413
 21
191.846
 31
0.0
  0
LINE
  8
0
 62
     0
 10
54.0413
 20
191.846
 30
0.0
 11
53.6236
 21
190.995
 31
0.0
  0
LINE
  8
0
 62
     0
 10
53.6236
 20
190.995
 30
0.0
 11
53.2197
 21
190.169
 31
0.0
  0
LINE
  8
0
 62
     0
 10
53.2197
 20
190.169
 30
0.0
 11
52.8821
 21
189.437
 31
0.0
  0
LINE
  8
0
 62
     0
 10
52.8821
 20
189.437
 30
0.0
 11
52.6507
 21
188.886
 31
0.0
  0
LINE
  8
0
 62
     0
 10
52.6507
 20
188.886
 30
0.0
 11
52.5653
 21
188.596
 31
0.0
  0
LINE
  8
0
 62
     0
 10
52.5653
 20
188.596
 30
0.0
 11
52.4838
 21
188.305
 31
0.0
  0
LINE
  8
0
 62
     0
 10
52.4838
 20
188.305
 30
0.0
 11
52.269
 21
187.745
 31
0.0
  0
LINE
  8
0
 62
     0
 10
52.269
 20
187.745
 30
0.0
 11
51.9546
 21
186.994
 31
0.0
  0
LINE
  8
0
 62
     0
 10
51.9546
 20
186.994
 30
0.0
 11
51.5772
 21
186.126
 31
0.0
  0
LINE
  8
0
 62
     0
 10
51.5772
 20
186.126
 30
0.0
 11
51.1295
 21
185.117
 31
0.0
  0
LINE
  8
0
 62
     0
 10
51.1295
 20
185.117
 30
0.0
 11
50.6677
 21
183.979
 31
0.0
  0
LINE
  8
0
 62
     0
 10
50.6677
 20
183.979
 30
0.0
 11
50.2476
 21
182.848
 31
0.0
  0
LINE
  8
0
 62
     0
 10
50.2476
 20
182.848
 30
0.0
 11
49.9195
 21
181.857
 31
0.0
  0
LINE
  8
0
 62
     0
 10
49.9195
 20
181.857
 30
0.0
 11
49.6327
 21
180.949
 31
0.0
  0
LINE
  8
0
 62
     0
 10
49.6327
 20
180.949
 30
0.0
 11
49.3268
 21
180.037
 31
0.0
  0
LINE
  8
0
 62
     0
 10
49.3268
 20
180.037
 30
0.0
 11
49.0347
 21
179.223
 31
0.0
  0
LINE
  8
0
 62
     0
 10
49.0347
 20
179.223
 30
0.0
 11
48.7895
 21
178.612
 31
0.0
  0
LINE
  8
0
 62
     0
 10
48.7895
 20
178.612
 30
0.0
 11
48.4671
 21
177.585
 31
0.0
  0
LINE
  8
0
 62
     0
 10
48.4671
 20
177.585
 30
0.0
 11
48.332
 21
176.635
 31
0.0
  0
LINE
  8
0
 62
     0
 10
48.332
 20
176.635
 30
0.0
 11
48.248
 21
176.213
 31
0.0
  0
LINE
  8
0
 62
     0
 10
48.248
 20
176.213
 30
0.0
 11
48.0191
 21
175.664
 31
0.0
  0
LINE
  8
0
 62
     0
 10
48.0191
 20
175.664
 30
0.0
 11
47.68
 21
175.04
 31
0.0
  0
LINE
  8
0
 62
     0
 10
47.68
 20
175.04
 30
0.0
 11
47.2641
 21
174.388
 31
0.0
  0
LINE
  8
0
 62
     0
 10
47.2641
 20
174.388
 30
0.0
 11
46.8051
 21
173.76
 31
0.0
  0
LINE
  8
0
 62
     0
 10
46.8051
 20
173.76
 30
0.0
 11
46.3367
 21
173.203
 31
0.0
  0
LINE
  8
0
 62
     0
 10
46.3367
 20
173.203
 30
0.0
 11
45.8929
 21
172.77
 31
0.0
  0
LINE
  8
0
 62
     0
 10
45.8929
 20
172.77
 30
0.0
 11
45.5097
 21
172.508
 31
0.0
  0
LINE
  8
0
 62
     0
 10
45.5097
 20
172.508
 30
0.0
 11
44.2172
 21
172.08
 31
0.0
  0
LINE
  8
0
 62
     0
 10
44.2172
 20
172.08
 30
0.0
 11
42.2409
 21
171.618
 31
0.0
  0
LINE
  8
0
 62
     0
 10
42.2409
 20
171.618
 30
0.0
 11
40.2057
 21
171.249
 31
0.0
  0
LINE
  8
0
 62
     0
 10
40.2057
 20
171.249
 30
0.0
 11
38.7354
 21
171.097
 31
0.0
  0
LINE
  8
0
 62
     0
 10
38.7354
 20
171.097
 30
0.0
 11
37.3987
 21
170.957
 31
0.0
  0
LINE
  8
0
 62
     0
 10
37.3987
 20
170.957
 30
0.0
 11
36.0895
 21
170.604
 31
0.0
  0
LINE
  8
0
 62
     0
 10
36.0895
 20
170.604
 30
0.0
 11
34.6783
 21
170.185
 31
0.0
  0
LINE
  8
0
 62
     0
 10
34.6783
 20
170.185
 30
0.0
 11
33.1625
 21
169.898
 31
0.0
  0
LINE
  8
0
 62
     0
 10
33.1625
 20
169.898
 30
0.0
 11
31.2539
 21
169.654
 31
0.0
  0
LINE
  8
0
 62
     0
 10
31.2539
 20
169.654
 30
0.0
 11
28.7169
 21
169.237
 31
0.0
  0
LINE
  8
0
 62
     0
 10
28.7169
 20
169.237
 30
0.0
 11
25.0954
 21
168.569
 31
0.0
  0
LINE
  8
0
 62
     0
 10
25.0954
 20
168.569
 30
0.0
 11
19.9333
 21
167.569
 31
0.0
  0
LINE
  8
0
 62
     0
 10
19.9333
 20
167.569
 30
0.0
 11
17.8153
 21
167.178
 31
0.0
  0
LINE
  8
0
 62
     0
 10
17.8153
 20
167.178
 30
0.0
 11
15.7
 21
166.864
 31
0.0
  0
LINE
  8
0
 62
     0
 10
15.7
 20
166.864
 30
0.0
 11
14.7533
 21
166.73
 31
0.0
  0
LINE
  8
0
 62
     0
 10
14.7533
 20
166.73
 30
0.0
 11
13.7418
 21
166.561
 31
0.0
  0
LINE
  8
0
 62
     0
 10
13.7418
 20
166.561
 30
0.0
 11
12.7827
 21
166.383
 31
0.0
  0
LINE
  8
0
 62
     0
 10
12.7827
 20
166.383
 30
0.0
 11
11.9958
 21
166.229
 31
0.0
  0
LINE
  8
0
 62
     0
 10
11.9958
 20
166.229
 30
0.0
 11
9.71102
 21
165.681
 31
0.0
  0
LINE
  8
0
 62
     0
 10
9.71102
 20
165.681
 30
0.0
 11
7.87961
 21
165.282
 31
0.0
  0
LINE
  8
0
 62
     0
 10
7.87961
 20
165.282
 30
0.0
 11
6.33345
 21
164.995
 31
0.0
  0
LINE
  8
0
 62
     0
 10
6.33345
 20
164.995
 30
0.0
 11
4.90442
 21
164.783
 31
0.0
  0
LINE
  8
0
 62
     0
 10
4.90442
 20
164.783
 30
0.0
 11
3.53741
 21
164.513
 31
0.0
  0
LINE
  8
0
 62
     0
 10
3.53741
 20
164.513
 30
0.0
 11
2.41157
 21
164.157
 31
0.0
  0
LINE
  8
0
 62
     0
 10
2.41157
 20
164.157
 30
0.0
 11
1.46485
 21
163.682
 31
0.0
  0
LINE
  8
0
 62
     0
 10
1.46485
 20
163.682
 30
0.0
 11
0.635275
 21
163.054
 31
0.0
  0
LINE
  8
0
 62
     0
 10
0.635275
 20
163.054
 30
0.0
 11
0.435462
 21
162.784
 31
0.0
  0
LINE
  8
0
 62
     0
 10
0.435462
 20
162.784
 30
0.0
 11
0.282498
 21
162.195
 31
0.0
  0
LINE
  8
0
 62
     0
 10
0.282498
 20
162.195
 30
0.0
 11
0.170877
 21
161.072
 31
0.0
  0
LINE
  8
0
 62
     0
 10
0.170877
 20
161.072
 30
0.0
 11
0.0923286
 21
159.197
 31
0.0
  0
LINE
  8
0
 62
     0
 10
0.0923286
 20
159.197
 30
0.0
 11
0.0427193
 21
156.349
 31
0.0
  0
LINE
  8
0
 62
     0
 10
0.0427193
 20
156.349
 30
0.0
 11
0.0151584
 21
152.315
 31
0.0
  0
LINE
  8
0
 62
     0
 10
0.0151584
 20
152.315
 30
0.0
 11
0.00275608
 21
146.873
 31
0.0
  0
LINE
  8
0
 62
     0
 10
0.00275608
 20
146.873
 30
0.0
 11
0.00137804
 21
139.806
 31
0.0
  0
LINE
  8
0
 62
     0
 10
0.00137804
 20
139.806
 30
0.0
 11
0
 21
131.593
 31
0.0
  0
LINE
  8
0
 62
     0
 10
0
 20
131.593
 30
0.0
 11
0.0192925
 21
125.495
 31
0.0
  0
LINE
  8
0
 62
     0
 10
0.0192925
 20
125.495
 30
0.0
 11
0.0881944
 21
121.185
 31
0.0
  0
LINE
  8
0
 62
     0
 10
0.0881944
 20
121.185
 30
0.0
 11
0.234267
 21
118.336
 31
0.0
  0
LINE
  8
0
 62
     0
 10
0.234267
 20
118.336
 30
0.0
 11
0.487825
 21
116.623
 31
0.0
  0
LINE
  8
0
 62
     0
 10
0.487825
 20
116.623
 30
0.0
 11
0.879189
 21
115.722
 31
0.0
  0
LINE
  8
0
 62
     0
 10
0.879189
 20
115.722
 30
0.0
 11
1.43591
 21
115.303
 31
0.0
  0
LINE
  8
0
 62
     0
 10
1.43591
 20
115.303
 30
0.0
 11
2.18833
 21
115.042
 31
0.0
  0
LINE
  8
0
 62
     0
 10
2.18833
 20
115.042
 30
0.0
 11
2.77537
 21
114.873
 31
0.0
  0
LINE
  8
0
 62
     0
 10
2.77537
 20
114.873
 30
0.0
 11
3.61597
 21
114.703
 31
0.0
  0
LINE
  8
0
 62
     0
 10
3.61597
 20
114.703
 30
0.0
 11
4.58886
 21
114.551
 31
0.0
  0
LINE
  8
0
 62
     0
 10
4.58886
 20
114.551
 30
0.0
 11
5.57417
 21
114.442
 31
0.0
  0
LINE
  8
0
 62
     0
 10
5.57417
 20
114.442
 30
0.0
 11
6.54293
 21
114.319
 31
0.0
  0
LINE
  8
0
 62
     0
 10
6.54293
 20
114.319
 30
0.0
 11
7.43038
 21
114.173
 31
0.0
  0
LINE
  8
0
 62
     0
 10
7.43038
 20
114.173
 30
0.0
 11
8.13869
 21
114.02
 31
0.0
  0
LINE
  8
0
 62
     0
 10
8.13869
 20
114.02
 30
0.0
 11
8.57278
 21
113.877
 31
0.0
  0
LINE
  8
0
 62
     0
 10
8.57278
 20
113.877
 30
0.0
 11
8.97378
 21
113.728
 31
0.0
  0
LINE
  8
0
 62
     0
 10
8.97378
 20
113.728
 30
0.0
 11
9.63937
 21
113.56
 31
0.0
  0
LINE
  8
0
 62
     0
 10
9.63937
 20
113.56
 30
0.0
 11
10.4772
 21
113.392
 31
0.0
  0
LINE
  8
0
 62
     0
 10
10.4772
 20
113.392
 30
0.0
 11
11.395
 21
113.242
 31
0.0
  0
LINE
  8
0
 62
     0
 10
11.395
 20
113.242
 30
0.0
 11
15.897
 21
112.484
 31
0.0
  0
LINE
  8
0
 62
     0
 10
15.897
 20
112.484
 30
0.0
 11
19.7914
 21
111.62
 31
0.0
  0
LINE
  8
0
 62
     0
 10
19.7914
 20
111.62
 30
0.0
 11
20.6389
 21
111.424
 31
0.0
  0
LINE
  8
0
 62
     0
 10
20.6389
 20
111.424
 30
0.0
 11
21.5236
 21
111.267
 31
0.0
  0
LINE
  8
0
 62
     0
 10
21.5236
 20
111.267
 30
0.0
 11
22.3352
 21
111.163
 31
0.0
  0
LINE
  8
0
 62
     0
 10
22.3352
 20
111.163
 30
0.0
 11
22.9664
 21
111.125
 31
0.0
  0
LINE
  8
0
 62
     0
 10
22.9664
 20
111.125
 30
0.0
 11
24.3251
 21
110.967
 31
0.0
  0
LINE
  8
0
 62
     0
 10
24.3251
 20
110.967
 30
0.0
 11
25.8947
 21
110.596
 31
0.0
  0
LINE
  8
0
 62
     0
 10
25.8947
 20
110.596
 30
0.0
 11
26.6637
 21
110.395
 31
0.0
  0
LINE
  8
0
 62
     0
 10
26.6637
 20
110.395
 30
0.0
 11
27.4767
 21
110.226
 31
0.0
  0
LINE
  8
0
 62
     0
 10
27.4767
 20
110.226
 30
0.0
 11
28.2305
 21
110.111
 31
0.0
  0
LINE
  8
0
 62
     0
 10
28.2305
 20
110.111
 30
0.0
 11
28.823
 21
110.067
 31
0.0
  0
LINE
  8
0
 62
     0
 10
28.823
 20
110.067
 30
0.0
 11
29.8579
 21
109.97
 31
0.0
  0
LINE
  8
0
 62
     0
 10
29.8579
 20
109.97
 30
0.0
 11
30.6572
 21
109.714
 31
0.0
  0
LINE
  8
0
 62
     0
 10
30.6572
 20
109.714
 30
0.0
 11
31.0968
 21
109.561
 31
0.0
  0
LINE
  8
0
 62
     0
 10
31.0968
 20
109.561
 30
0.0
 11
31.8203
 21
109.379
 31
0.0
  0
LINE
  8
0
 62
     0
 10
31.8203
 20
109.379
 30
0.0
 11
32.7298
 21
109.198
 31
0.0
  0
LINE
  8
0
 62
     0
 10
32.7298
 20
109.198
 30
0.0
 11
33.7261
 21
109.044
 31
0.0
  0
LINE
  8
0
 62
     0
 10
33.7261
 20
109.044
 30
0.0
 11
36.0962
 21
108.668
 31
0.0
  0
LINE
  8
0
 62
     0
 10
36.0962
 20
108.668
 30
0.0
 11
38.5064
 21
108.224
 31
0.0
  0
LINE
  8
0
 62
     0
 10
38.5064
 20
108.224
 30
0.0
 11
40.5723
 21
107.794
 31
0.0
  0
LINE
  8
0
 62
     0
 10
40.5723
 20
107.794
 30
0.0
 11
41.9104
 21
107.457
 31
0.0
  0
LINE
  8
0
 62
     0
 10
41.9104
 20
107.457
 30
0.0
 11
42.7563
 21
107.224
 31
0.0
  0
LINE
  8
0
 62
     0
 10
42.7563
 20
107.224
 30
0.0
 11
43.604
 21
107.068
 31
0.0
  0
LINE
  8
0
 62
     0
 10
43.604
 20
107.068
 30
0.0
 11
44.4059
 21
106.879
 31
0.0
  0
LINE
  8
0
 62
     0
 10
44.4059
 20
106.879
 30
0.0
 11
45.157
 21
106.504
 31
0.0
  0
LINE
  8
0
 62
     0
 10
45.157
 20
106.504
 30
0.0
 11
45.4586
 21
106.2
 31
0.0
  0
LINE
  8
0
 62
     0
 10
45.4586
 20
106.2
 30
0.0
 11
45.7937
 21
105.692
 31
0.0
  0
LINE
  8
0
 62
     0
 10
45.7937
 20
105.692
 30
0.0
 11
46.1423
 21
105.034
 31
0.0
  0
LINE
  8
0
 62
     0
 10
46.1423
 20
105.034
 30
0.0
 11
46.4785
 21
104.282
 31
0.0
  0
LINE
  8
0
 62
     0
 10
46.4785
 20
104.282
 30
0.0
 11
46.7829
 21
103.491
 31
0.0
  0
LINE
  8
0
 62
     0
 10
46.7829
 20
103.491
 30
0.0
 11
47.0309
 21
102.715
 31
0.0
  0
LINE
  8
0
 62
     0
 10
47.0309
 20
102.715
 30
0.0
 11
47.202
 21
102.008
 31
0.0
  0
LINE
  8
0
 62
     0
 10
47.202
 20
102.008
 30
0.0
 11
47.2736
 21
101.424
 31
0.0
  0
LINE
  8
0
 62
     0
 10
47.2736
 20
101.424
 30
0.0
 11
47.414
 21
100.719
 31
0.0
  0
LINE
  8
0
 62
     0
 10
47.414
 20
100.719
 30
0.0
 11
47.7668
 21
100.013
 31
0.0
  0
LINE
  8
0
 62
     0
 10
47.7668
 20
100.013
 30
0.0
 11
48.1584
 21
99.0741
 31
0.0
  0
LINE
  8
0
 62
     0
 10
48.1584
 20
99.0741
 30
0.0
 11
48.4724
 21
97.7896
 31
0.0
  0
LINE
  8
0
 62
     0
 10
48.4724
 20
97.7896
 30
0.0
 11
48.7094
 21
96.5345
 31
0.0
  0
LINE
  8
0
 62
     0
 10
48.7094
 20
96.5345
 30
0.0
 11
49.0015
 21
95.673
 31
0.0
  0
LINE
  8
0
 62
     0
 10
49.0015
 20
95.673
 30
0.0
 11
49.1864
 21
95.2666
 31
0.0
  0
LINE
  8
0
 62
     0
 10
49.1864
 20
95.2666
 30
0.0
 11
49.4552
 21
94.5843
 31
0.0
  0
LINE
  8
0
 62
     0
 10
49.4552
 20
94.5843
 30
0.0
 11
49.7706
 21
93.7246
 31
0.0
  0
LINE
  8
0
 62
     0
 10
49.7706
 20
93.7246
 30
0.0
 11
50.0959
 21
92.7806
 31
0.0
  0
LINE
  8
0
 62
     0
 10
50.0959
 20
92.7806
 30
0.0
 11
50.4624
 21
91.7512
 31
0.0
  0
LINE
  8
0
 62
     0
 10
50.4624
 20
91.7512
 30
0.0
 11
50.8882
 21
90.6473
 31
0.0
  0
LINE
  8
0
 62
     0
 10
50.8882
 20
90.6473
 30
0.0
 11
51.3154
 21
89.596
 31
0.0
  0
LINE
  8
0
 62
     0
 10
51.3154
 20
89.596
 30
0.0
 11
51.6834
 21
88.7236
 31
0.0
  0
LINE
  8
0
 62
     0
 10
51.6834
 20
88.7236
 30
0.0
 11
52.0266
 21
87.9725
 31
0.0
  0
LINE
  8
0
 62
     0
 10
52.0266
 20
87.9725
 30
0.0
 11
52.3476
 21
87.2035
 31
0.0
  0
LINE
  8
0
 62
     0
 10
52.3476
 20
87.2035
 30
0.0
 11
52.6094
 21
86.5064
 31
0.0
  0
LINE
  8
0
 62
     0
 10
52.6094
 20
86.5064
 30
0.0
 11
52.7763
 21
85.9716
 31
0.0
  0
LINE
  8
0
 62
     0
 10
52.7763
 20
85.9716
 30
0.0
 11
53.013
 21
85.2978
 31
0.0
  0
LINE
  8
0
 62
     0
 10
53.013
 20
85.2978
 30
0.0
 11
53.3054
 21
85.0194
 31
0.0
  0
LINE
  8
0
 62
     0
 10
53.3054
 20
85.0194
 30
0.0
 11
53.5298
 21
84.8349
 31
0.0
  0
LINE
  8
0
 62
     0
 10
53.5298
 20
84.8349
 30
0.0
 11
53.6236
 21
84.3841
 31
0.0
  0
LINE
  8
0
 62
     0
 10
53.6236
 20
84.3841
 30
0.0
 11
53.782
 21
83.7283
 31
0.0
  0
LINE
  8
0
 62
     0
 10
53.782
 20
83.7283
 30
0.0
 11
54.1528
 21
83.0446
 31
0.0
  0
LINE
  8
0
 62
     0
 10
54.1528
 20
83.0446
 30
0.0
 11
54.5222
 21
82.3528
 31
0.0
  0
LINE
  8
0
 62
     0
 10
54.5222
 20
82.3528
 30
0.0
 11
54.682
 21
81.6335
 31
0.0
  0
LINE
  8
0
 62
     0
 10
54.682
 20
81.6335
 30
0.0
 11
54.8404
 21
80.9681
 31
0.0
  0
LINE
  8
0
 62
     0
 10
54.8404
 20
80.9681
 30
0.0
 11
55.2111
 21
80.4333
 31
0.0
  0
LINE
  8
0
 62
     0
 10
55.2111
 20
80.4333
 30
0.0
 11
55.5805
 21
80.046
 31
0.0
  0
LINE
  8
0
 62
     0
 10
55.5805
 20
80.046
 30
0.0
 11
55.7403
 21
79.7638
 31
0.0
  0
LINE
  8
0
 62
     0
 10
55.7403
 20
79.7638
 30
0.0
 11
55.8684
 21
79.43
 31
0.0
  0
LINE
  8
0
 62
     0
 10
55.8684
 20
79.43
 30
0.0
 11
56.2197
 21
78.7093
 31
0.0
  0
LINE
  8
0
 62
     0
 10
56.2197
 20
78.7093
 30
0.0
 11
56.7365
 21
77.705
 31
0.0
  0
LINE
  8
0
 62
     0
 10
56.7365
 20
77.705
 30
0.0
 11
57.3624
 21
76.5182
 31
0.0
  0
LINE
  8
0
 62
     0
 10
57.3624
 20
76.5182
 30
0.0
 11
58.535
 21
74.0601
 31
0.0
  0
LINE
  8
0
 62
     0
 10
58.535
 20
74.0601
 30
0.0
 11
59.0998
 21
72.034
 31
0.0
  0
LINE
  8
0
 62
     0
 10
59.0998
 20
72.034
 30
0.0
 11
59.0684
 21
70.3721
 31
0.0
  0
LINE
  8
0
 62
     0
 10
59.0684
 20
70.3721
 30
0.0
 11
58.4563
 21
69.004
 31
0.0
  0
LINE
  8
0
 62
     0
 10
58.4563
 20
69.004
 30
0.0
 11
57.5165
 21
67.7485
 31
0.0
  0
LINE
  8
0
 62
     0
 10
57.5165
 20
67.7485
 30
0.0
 11
56.7517
 21
66.7163
 31
0.0
  0
LINE
  8
0
 62
     0
 10
56.7517
 20
66.7163
 30
0.0
 11
56.1414
 21
65.8827
 31
0.0
  0
LINE
  8
0
 62
     0
 10
56.1414
 20
65.8827
 30
0.0
 11
55.6687
 21
65.2254
 31
0.0
  0
LINE
  8
0
 62
     0
 10
55.6687
 20
65.2254
 30
0.0
 11
55.3145
 21
64.7167
 31
0.0
  0
LINE
  8
0
 62
     0
 10
55.3145
 20
64.7167
 30
0.0
 11
55.0623
 21
64.3364
 31
0.0
  0
LINE
  8
0
 62
     0
 10
55.0623
 20
64.3364
 30
0.0
 11
54.8915
 21
64.0553
 31
0.0
  0
LINE
  8
0
 62
     0
 10
54.8915
 20
64.0553
 30
0.0
 11
54.7867
 21
63.8528
 31
0.0
  0
LINE
  8
0
 62
     0
 10
54.7867
 20
63.8528
 30
0.0
 11
54.635
 21
63.5522
 31
0.0
  0
LINE
  8
0
 62
     0
 10
54.635
 20
63.5522
 30
0.0
 11
54.3638
 21
63.1169
 31
0.0
  0
LINE
  8
0
 62
     0
 10
54.3638
 20
63.1169
 30
0.0
 11
54.0135
 21
62.6085
 31
0.0
  0
LINE
  8
0
 62
     0
 10
54.0135
 20
62.6085
 30
0.0
 11
53.6236
 21
62.0889
 31
0.0
  0
LINE
  8
0
 62
     0
 10
53.6236
 20
62.0889
 30
0.0
 11
53.2324
 21
61.5707
 31
0.0
  0
LINE
  8
0
 62
     0
 10
53.2324
 20
61.5707
 30
0.0
 11
52.8821
 21
61.0623
 31
0.0
  0
LINE
  8
0
 62
     0
 10
52.8821
 20
61.0623
 30
0.0
 11
52.6108
 21
60.6266
 31
0.0
  0
LINE
  8
0
 62
     0
 10
52.6108
 20
60.6266
 30
0.0
 11
52.4591
 21
60.325
 31
0.0
  0
LINE
  8
0
 62
     0
 10
52.4591
 20
60.325
 30
0.0
 11
52.1561
 21
59.8329
 31
0.0
  0
LINE
  8
0
 62
     0
 10
52.1561
 20
59.8329
 30
0.0
 11
51.5193
 21
58.8698
 31
0.0
  0
LINE
  8
0
 62
     0
 10
51.5193
 20
58.8698
 30
0.0
 11
50.6374
 21
57.5772
 31
0.0
  0
LINE
  8
0
 62
     0
 10
50.6374
 20
57.5772
 30
0.0
 11
49.6013
 21
56.0917
 31
0.0
  0
LINE
  8
0
 62
     0
 10
49.6013
 20
56.0917
 30
0.0
 11
48.4657
 21
54.471
 31
0.0
  0
LINE
  8
0
 62
     0
 10
48.4657
 20
54.471
 30
0.0
 11
47.3163
 21
52.8024
 31
0.0
  0
LINE
  8
0
 62
     0
 10
47.3163
 20
52.8024
 30
0.0
 11
46.2869
 21
51.2808
 31
0.0
  0
LINE
  8
0
 62
     0
 10
46.2869
 20
51.2808
 30
0.0
 11
45.5097
 21
50.0944
 31
0.0
  0
LINE
  8
0
 62
     0
 10
45.5097
 20
50.0944
 30
0.0
 11
44.8194
 21
49.0086
 31
0.0
  0
LINE
  8
0
 62
     0
 10
44.8194
 20
49.0086
 30
0.0
 11
43.9872
 21
47.7545
 31
0.0
  0
LINE
  8
0
 62
     0
 10
43.9872
 20
47.7545
 30
0.0
 11
43.1228
 21
46.4785
 31
0.0
  0
LINE
  8
0
 62
     0
 10
43.1228
 20
46.4785
 30
0.0
 11
42.3347
 21
45.3319
 31
0.0
  0
LINE
  8
0
 62
     0
 10
42.3347
 20
45.3319
 30
0.0
 11
41.4955
 21
44.1456
 31
0.0
  0
LINE
  8
0
 62
     0
 10
41.4955
 20
44.1456
 30
0.0
 11
40.4992
 21
42.7179
 31
0.0
  0
LINE
  8
0
 62
     0
 10
40.4992
 20
42.7179
 30
0.0
 11
39.4751
 21
41.2295
 31
0.0
  0
LINE
  8
0
 62
     0
 10
39.4751
 20
41.2295
 30
0.0
 11
38.559
 21
39.8639
 31
0.0
  0
LINE
  8
0
 62
     0
 10
38.559
 20
39.8639
 30
0.0
 11
37.7074
 21
38.6348
 31
0.0
  0
LINE
  8
0
 62
     0
 10
37.7074
 20
38.6348
 30
0.0
 11
36.9051
 21
37.5102
 31
0.0
  0
LINE
  8
0
 62
     0
 10
36.9051
 20
37.5102
 30
0.0
 11
36.2423
 21
36.6102
 31
0.0
  0
LINE
  8
0
 62
     0
 10
36.2423
 20
36.6102
 30
0.0
 11
35.8084
 21
36.0535
 31
0.0
  0
LINE
  8
0
 62
     0
 10
35.8084
 20
36.0535
 30
0.0
 11
35.1359
 21
35.1524
 31
0.0
  0
LINE
  8
0
 62
     0
 10
35.1359
 20
35.1524
 30
0.0
 11
34.8506
 21
34.3655
 31
0.0
  0
LINE
  8
0
 62
     0
 10
34.8506
 20
34.3655
 30
0.0
 11
34.9291
 21
33.5594
 31
0.0
  0
LINE
  8
0
 62
     0
 10
34.9291
 20
33.5594
 30
0.0
 11
35.3494
 21
32.5975
 31
0.0
  0
LINE
  8
0
 62
     0
 10
35.3494
 20
32.5975
 30
0.0
 11
35.771
 21
32.0669
 31
0.0
  0
LINE
  8
0
 62
     0
 10
35.771
 20
32.0669
 30
0.0
 11
36.7372
 21
30.9976
 31
0.0
  0
LINE
  8
0
 62
     0
 10
36.7372
 20
30.9976
 30
0.0
 11
38.1744
 21
29.4652
 31
0.0
  0
LINE
  8
0
 62
     0
 10
38.1744
 20
29.4652
 30
0.0
 11
40.0099
 21
27.5442
 31
0.0
  0
LINE
  8
0
 62
     0
 10
40.0099
 20
27.5442
 30
0.0
 11
42.1693
 21
25.3077
 31
0.0
  0
LINE
  8
0
 62
     0
 10
42.1693
 20
25.3077
 30
0.0
 11
44.5795
 21
22.8327
 31
0.0
  0
LINE
  8
0
 62
     0
 10
44.5795
 20
22.8327
 30
0.0
 11
47.1689
 21
20.191
 31
0.0
  0
LINE
  8
0
 62
     0
 10
47.1689
 20
20.191
 30
0.0
 11
49.8616
 21
17.4584
 31
0.0
  0
LINE
  8
0
 62
     0
 10
49.8616
 20
17.4584
 30
0.0
 11
52.5847
 21
14.7092
 31
0.0
  0
LINE
  8
0
 62
     0
 10
52.5847
 20
14.7092
 30
0.0
 11
55.2662
 21
12.0179
 31
0.0
  0
LINE
  8
0
 62
     0
 10
55.2662
 20
12.0179
 30
0.0
 11
57.8309
 21
9.45748
 31
0.0
  0
LINE
  8
0
 62
     0
 10
57.8309
 20
9.45748
 30
0.0
 11
60.2079
 21
7.1024
 31
0.0
  0
LINE
  8
0
 62
     0
 10
60.2079
 20
7.1024
 30
0.0
 11
62.3217
 21
5.02984
 31
0.0
  0
LINE
  8
0
 62
     0
 10
62.3217
 20
5.02984
 30
0.0
 11
64.1008
 21
3.31143
 31
0.0
  0
LINE
  8
0
 62
     0
 10
64.1008
 20
3.31143
 30
0.0
 11
65.4706
 21
2.02158
 31
0.0
  0
LINE
  8
0
 62
     0
 10
65.4706
 20
2.02158
 30
0.0
 11
66.3582
 21
1.23472
 31
0.0
  0
LINE
  8
0
 62
     0
 10
66.3582
 20
1.23472
 30
0.0
 11
66.978
 21
0.759298
 31
0.0
  0
LINE
  8
0
 62
     0
 10
66.978
 20
0.759298
 30
0.0
 11
67.6233
 21
0.366557
 31
0.0
  0
LINE
  8
0
 62
     0
 10
67.6233
 20
0.366557
 30
0.0
 11
68.2075
 21
0.0992188
 31
0.0
  0
LINE
  8
0
 62
     0
 10
68.2075
 20
0.0992188
 30
0.0
 11
68.6513
 21
-0
 31
0.0
  0
LINE
  8
0
 62
     0
 10
68.6513
 20
-0
 30
0.0
 11
69.2118
 21
0.16123
 31
0.0
  0
LINE
  8
0
 62
     0
 10
69.2118
 20
0.16123
 30
0.0
 11
70.1283
 21
0.600826
 31
0.0
  0
LINE
  8
0
 62
     0
 10
70.1283
 20
0.600826
 30
0.0
 11
71.2749
 21
1.25126
 31
0.0
  0
LINE
  8
0
 62
     0
 10
71.2749
 20
1.25126
 30
0.0
 11
72.5318
 21
2.04639
 31
0.0
  0
LINE
  8
0
 62
     0
 10
72.5318
 20
2.04639
 30
0.0
 11
73.8297
 21
2.89112
 31
0.0
  0
LINE
  8
0
 62
     0
 10
73.8297
 20
2.89112
 30
0.0
 11
75.0933
 21
3.71796
 31
0.0
  0
LINE
  8
0
 62
     0
 10
75.0933
 20
3.71796
 30
0.0
 11
76.1781
 21
4.43315
 31
0.0
  0
LINE
  8
0
 62
     0
 10
76.1781
 20
4.43315
 30
0.0
 11
76.9415
 21
4.93889
 31
0.0
  0
LINE
  8
0
 62
     0
 10
76.9415
 20
4.93889
 30
0.0
 11
77.6016
 21
5.37986
 31
0.0
  0
LINE
  8
0
 62
     0
 10
77.6016
 20
5.37986
 30
0.0
 11
78.3167
 21
5.86218
 31
0.0
  0
LINE
  8
0
 62
     0
 10
78.3167
 20
5.86218
 30
0.0
 11
79.0444
 21
6.35963
 31
0.0
  0
LINE
  8
0
 62
     0
 10
79.0444
 20
6.35963
 30
0.0
 11
79.7458
 21
6.8447
 31
0.0
  0
LINE
  8
0
 62
     0
 10
79.7458
 20
6.8447
 30
0.0
 11
80.3811
 21
7.28984
 31
0.0
  0
LINE
  8
0
 62
     0
 10
80.3811
 20
7.28984
 30
0.0
 11
80.9103
 21
7.66879
 31
0.0
  0
LINE
  8
0
 62
     0
 10
80.9103
 20
7.66879
 30
0.0
 11
81.2934
 21
7.95267
 31
0.0
  0
LINE
  8
0
 62
     0
 10
81.2934
 20
7.95267
 30
0.0
 11
81.4931
 21
8.11389
 31
0.0
  0
LINE
  8
0
 62
     0
 10
81.4931
 20
8.11389
 30
0.0
 11
81.9947
 21
8.51627
 31
0.0
  0
LINE
  8
0
 62
     0
 10
81.9947
 20
8.51627
 30
0.0
 11
82.9564
 21
9.21082
 31
0.0
  0
LINE
  8
0
 62
     0
 10
82.9564
 20
9.21082
 30
0.0
 11
84.2366
 21
10.0996
 31
0.0
  0
LINE
  8
0
 62
     0
 10
84.2366
 20
10.0996
 30
0.0
 11
85.6947
 21
11.0863
 31
0.0
  0
LINE
  8
0
 62
     0
 10
85.6947
 20
11.0863
 30
0.0
 11
87.1859
 21
12.0785
 31
0.0
  0
LINE
  8
0
 62
     0
 10
87.1859
 20
12.0785
 30
0.0
 11
88.5705
 21
12.977
 31
0.0
  0
LINE
  8
0
 62
     0
 10
88.5705
 20
12.977
 30
0.0
 11
89.7075
 21
13.6867
 31
0.0
  0
LINE
  8
0
 62
     0
 10
89.7075
 20
13.6867
 30
0.0
 11
90.4529
 21
14.1111
 31
0.0
  0
LINE
  8
0
 62
     0
 10
90.4529
 20
14.1111
 30
0.0
 11
91.2206
 21
14.6196
 31
0.0
  0
LINE
  8
0
 62
     0
 10
91.2206
 20
14.6196
 30
0.0
 11
91.6174
 21
15.0992
 31
0.0
  0
LINE
  8
0
 62
     0
 10
91.6174
 20
15.0992
 30
0.0
 11
92.0845
 21
15.5622
 31
0.0
  0
LINE
  8
0
 62
     0
 10
92.0845
 20
15.5622
 30
0.0
 11
92.9224
 21
16.0514
 31
0.0
  0
LINE
  8
0
 62
     0
 10
92.9224
 20
16.0514
 30
0.0
 11
93.5814
 21
16.4207
 31
0.0
  0
LINE
  8
0
 62
     0
 10
93.5814
 20
16.4207
 30
0.0
 11
94.5706
 21
17.0436
 31
0.0
  0
LINE
  8
0
 62
     0
 10
94.5706
 20
17.0436
 30
0.0
 11
95.7598
 21
17.8332
 31
0.0
  0
LINE
  8
0
 62
     0
 10
95.7598
 20
17.8332
 30
0.0
 11
97.0153
 21
18.6972
 31
0.0
  0
LINE
  8
0
 62
     0
 10
97.0153
 20
18.6972
 30
0.0
 11
99.8442
 21
20.6912
 31
0.0
  0
LINE
  8
0
 62
     0
 10
99.8442
 20
20.6912
 30
0.0
 11
102.001
 21
22.1864
 31
0.0
  0
LINE
  8
0
 62
     0
 10
102.001
 20
22.1864
 30
0.0
 11
103.595
 21
23.2365
 31
0.0
  0
LINE
  8
0
 62
     0
 10
103.595
 20
23.2365
 30
0.0
 11
104.735
 21
23.8979
 31
0.0
  0
LINE
  8
0
 62
     0
 10
104.735
 20
23.8979
 30
0.0
 11
105.53
 21
24.2273
 31
0.0
  0
LINE
  8
0
 62
     0
 10
105.53
 20
24.2273
 30
0.0
 11
106.087
 21
24.2796
 31
0.0
  0
LINE
  8
0
 62
     0
 10
106.087
 20
24.2796
 30
0.0
 11
106.517
 21
24.1116
 31
0.0
  0
LINE
  8
0
 62
     0
 10
106.517
 20
24.1116
 30
0.0
 11
106.928
 21
23.778
 31
0.0
  0
LINE
  8
0
 62
     0
 10
106.928
 20
23.778
 30
0.0
 11
107.359
 21
23.4708
 31
0.0
  0
LINE
  8
0
 62
     0
 10
107.359
 20
23.4708
 30
0.0
 11
108.108
 21
23.0146
 31
0.0
  0
LINE
  8
0
 62
     0
 10
108.108
 20
23.0146
 30
0.0
 11
109.07
 21
22.473
 31
0.0
  0
LINE
  8
0
 62
     0
 10
109.07
 20
22.473
 30
0.0
 11
110.138
 21
21.9081
 31
0.0
  0
LINE
  8
0
 62
     0
 10
110.138
 20
21.9081
 30
0.0
 11
111.482
 21
21.2066
 31
0.0
  0
LINE
  8
0
 62
     0
 10
111.482
 20
21.2066
 30
0.0
 11
113.246
 21
20.2902
 31
0.0
  0
LINE
  8
0
 62
     0
 10
113.246
 20
20.2902
 30
0.0
 11
115.203
 21
19.2746
 31
0.0
  0
LINE
  8
0
 62
     0
 10
115.203
 20
19.2746
 30
0.0
 11
117.124
 21
18.2742
 31
0.0
  0
LINE
  8
0
 62
     0
 10
117.124
 20
18.2742
 30
0.0
 11
120.351
 21
16.6357
 31
0.0
  0
LINE
  8
0
 62
     0
 10
120.351
 20
16.6357
 30
0.0
 11
122.282
 21
15.8543
 31
0.0
  0
LINE
  8
0
 62
     0
 10
122.282
 20
15.8543
 30
0.0
 11
123.432
 21
15.7799
 31
0.0
  0
LINE
  8
0
 62
     0
 10
123.432
 20
15.7799
 30
0.0
 11
124.32
 21
16.2636
 31
0.0
  0
LINE
  8
0
 62
     0
 10
124.32
 20
16.2636
 30
0.0
 11
124.963
 21
16.943
 31
0.0
  0
LINE
  8
0
 62
     0
 10
124.963
 20
16.943
 30
0.0
 11
125.238
 21
17.5686
 31
0.0
  0
LINE
  8
0
 62
     0
 10
125.238
 20
17.5686
 30
0.0
 11
125.396
 21
18.1915
 31
0.0
  0
LINE
  8
0
 62
     0
 10
125.396
 20
18.1915
 30
0.0
 11
125.767
 21
18.8391
 31
0.0
  0
LINE
  8
0
 62
     0
 10
125.767
 20
18.8391
 30
0.0
 11
126.136
 21
19.5667
 31
0.0
  0
LINE
  8
0
 62
     0
 10
126.136
 20
19.5667
 30
0.0
 11
126.296
 21
20.3206
 31
0.0
  0
LINE
  8
0
 62
     0
 10
126.296
 20
20.3206
 30
0.0
 11
126.454
 21
20.9862
 31
0.0
  0
LINE
  8
0
 62
     0
 10
126.454
 20
20.9862
 30
0.0
 11
126.825
 21
21.5194
 31
0.0
  0
LINE
  8
0
 62
     0
 10
126.825
 20
21.5194
 30
0.0
 11
127.194
 21
22.0279
 31
0.0
  0
LINE
  8
0
 62
     0
 10
127.194
 20
22.0279
 30
0.0
 11
127.354
 21
22.6136
 31
0.0
  0
LINE
  8
0
 62
     0
 10
127.354
 20
22.6136
 30
0.0
 11
127.447
 21
23.2792
 31
0.0
  0
LINE
  8
0
 62
     0
 10
127.447
 20
23.2792
 30
0.0
 11
127.671
 21
23.9186
 31
0.0
  0
LINE
  8
0
 62
     0
 10
127.671
 20
23.9186
 30
0.0
 11
128.107
 21
24.7702
 31
0.0
  0
LINE
  8
0
 62
     0
 10
128.107
 20
24.7702
 30
0.0
 11
128.729
 21
25.965
 31
0.0
  0
LINE
  8
0
 62
     0
 10
128.729
 20
25.965
 30
0.0
 11
129.009
 21
26.5768
 31
0.0
  0
LINE
  8
0
 62
     0
 10
129.009
 20
26.5768
 30
0.0
 11
129.245
 21
27.1515
 31
0.0
  0
LINE
  8
0
 62
     0
 10
129.245
 20
27.1515
 30
0.0
 11
129.409
 21
27.6269
 31
0.0
  0
LINE
  8
0
 62
     0
 10
129.409
 20
27.6269
 30
0.0
 11
129.471
 21
27.9397
 31
0.0
  0
LINE
  8
0
 62
     0
 10
129.471
 20
27.9397
 30
0.0
 11
129.556
 21
28.3118
 31
0.0
  0
LINE
  8
0
 62
     0
 10
129.556
 20
28.3118
 30
0.0
 11
129.788
 21
28.9016
 31
0.0
  0
LINE
  8
0
 62
     0
 10
129.788
 20
28.9016
 30
0.0
 11
130.125
 21
29.6375
 31
0.0
  0
LINE
  8
0
 62
     0
 10
130.125
 20
29.6375
 30
0.0
 11
130.529
 21
30.445
 31
0.0
  0
LINE
  8
0
 62
     0
 10
130.529
 20
30.445
 30
0.0
 11
130.947
 21
31.2718
 31
0.0
  0
LINE
  8
0
 62
     0
 10
130.947
 20
31.2718
 30
0.0
 11
131.283
 21
32.0504
 31
0.0
  0
LINE
  8
0
 62
     0
 10
131.283
 20
32.0504
 30
0.0
 11
131.506
 21
32.6981
 31
0.0
  0
LINE
  8
0
 62
     0
 10
131.506
 20
32.6981
 30
0.0
 11
131.588
 21
33.1266
 31
0.0
  0
LINE
  8
0
 62
     0
 10
131.588
 20
33.1266
 30
0.0
 11
131.746
 21
33.7137
 31
0.0
  0
LINE
  8
0
 62
     0
 10
131.746
 20
33.7137
 30
0.0
 11
132.117
 21
34.2194
 31
0.0
  0
LINE
  8
0
 62
     0
 10
132.117
 20
34.2194
 30
0.0
 11
132.486
 21
34.7045
 31
0.0
  0
LINE
  8
0
 62
     0
 10
132.486
 20
34.7045
 30
0.0
 11
132.646
 21
35.2433
 31
0.0
  0
LINE
  8
0
 62
     0
 10
132.646
 20
35.2433
 30
0.0
 11
132.781
 21
35.8525
 31
0.0
  0
LINE
  8
0
 62
     0
 10
132.781
 20
35.8525
 30
0.0
 11
133.103
 21
36.5125
 31
0.0
  0
LINE
  8
0
 62
     0
 10
133.103
 20
36.5125
 30
0.0
 11
133.329
 21
36.9411
 31
0.0
  0
LINE
  8
0
 62
     0
 10
133.329
 20
36.9411
 30
0.0
 11
133.61
 21
37.5846
 31
0.0
  0
LINE
  8
0
 62
     0
 10
133.61
 20
37.5846
 30
0.0
 11
133.912
 21
38.3536
 31
0.0
  0
LINE
  8
0
 62
     0
 10
133.912
 20
38.3536
 30
0.0
 11
134.197
 21
39.1583
 31
0.0
  0
LINE
  8
0
 62
     0
 10
134.197
 20
39.1583
 30
0.0
 11
134.525
 21
40.0763
 31
0.0
  0
LINE
  8
0
 62
     0
 10
134.525
 20
40.0763
 30
0.0
 11
134.947
 21
41.1522
 31
0.0
  0
LINE
  8
0
 62
     0
 10
134.947
 20
41.1522
 30
0.0
 11
135.407
 21
42.2547
 31
0.0
  0
LINE
  8
0
 62
     0
 10
135.407
 20
42.2547
 30
0.0
 11
135.855
 21
43.2513
 31
0.0
  0
LINE
  8
0
 62
     0
 10
135.855
 20
43.2513
 30
0.0
 11
136.253
 21
44.1096
 31
0.0
  0
LINE
  8
0
 62
     0
 10
136.253
 20
44.1096
 30
0.0
 11
136.579
 21
44.8786
 31
0.0
  0
LINE
  8
0
 62
     0
 10
136.579
 20
44.8786
 30
0.0
 11
136.798
 21
45.4685
 31
0.0
  0
LINE
  8
0
 62
     0
 10
136.798
 20
45.4685
 30
0.0
 11
136.879
 21
45.7909
 31
0.0
  0
LINE
  8
0
 62
     0
 10
136.879
 20
45.7909
 30
0.0
 11
136.972
 21
46.2813
 31
0.0
  0
LINE
  8
0
 62
     0
 10
136.972
 20
46.2813
 30
0.0
 11
137.196
 21
46.8492
 31
0.0
  0
LINE
  8
0
 62
     0
 10
137.196
 20
46.8492
 30
0.0
 11
137.94
 21
48.3348
 31
0.0
  0
LINE
  8
0
 62
     0
 10
137.94
 20
48.3348
 30
0.0
 11
138.89
 21
50.4211
 31
0.0
  0
LINE
  8
0
 62
     0
 10
138.89
 20
50.4211
 30
0.0
 11
139.706
 21
52.3363
 31
0.0
  0
LINE
  8
0
 62
     0
 10
139.706
 20
52.3363
 30
0.0
 11
140.054
 21
53.3054
 31
0.0
  0
LINE
  8
0
 62
     0
 10
140.054
 20
53.3054
 30
0.0
 11
140.14
 21
53.6028
 31
0.0
  0
LINE
  8
0
 62
     0
 10
140.14
 20
53.6028
 30
0.0
 11
140.371
 21
54.1747
 31
0.0
  0
LINE
  8
0
 62
     0
 10
140.371
 20
54.1747
 30
0.0
 11
140.709
 21
54.9381
 31
0.0
  0
LINE
  8
0
 62
     0
 10
140.709
 20
54.9381
 30
0.0
 11
141.113
 21
55.8091
 31
0.0
  0
LINE
  8
0
 62
     0
 10
141.113
 20
55.8091
 30
0.0
 11
141.53
 21
56.6896
 31
0.0
  0
LINE
  8
0
 62
     0
 10
141.53
 20
56.6896
 30
0.0
 11
141.866
 21
57.4724
 31
0.0
  0
LINE
  8
0
 62
     0
 10
141.866
 20
57.4724
 30
0.0
 11
142.089
 21
58.0775
 31
0.0
  0
LINE
  8
0
 62
     0
 10
142.089
 20
58.0775
 30
0.0
 11
142.171
 21
58.4207
 31
0.0
  0
LINE
  8
0
 62
     0
 10
142.171
 20
58.4207
 30
0.0
 11
142.311
 21
59.0254
 31
0.0
  0
LINE
  8
0
 62
     0
 10
142.311
 20
59.0254
 30
0.0
 11
142.664
 21
59.866
 31
0.0
  0
LINE
  8
0
 62
     0
 10
142.664
 20
59.866
 30
0.0
 11
143.197
 21
60.9741
 31
0.0
  0
LINE
  8
0
 62
     0
 10
143.197
 20
60.9741
 30
0.0
 11
143.758
 21
62.2653
 31
0.0
  0
LINE
  8
0
 62
     0
 10
143.758
 20
62.2653
 30
0.0
 11
144.252
 21
63.4436
 31
0.0
  0
LINE
  8
0
 62
     0
 10
144.252
 20
63.4436
 30
0.0
 11
144.64
 21
64.2758
 31
0.0
  0
LINE
  8
0
 62
     0
 10
144.64
 20
64.2758
 30
0.0
 11
144.895
 21
64.8243
 31
0.0
  0
LINE
  8
0
 62
     0
 10
144.895
 20
64.8243
 30
0.0
 11
144.993
 21
65.2639
 31
0.0
  0
LINE
  8
0
 62
     0
 10
144.993
 20
65.2639
 30
0.0
 11
145.073
 21
65.5877
 31
0.0
  0
LINE
  8
0
 62
     0
 10
145.073
 20
65.5877
 30
0.0
 11
145.292
 21
66.1818
 31
0.0
  0
LINE
  8
0
 62
     0
 10
145.292
 20
66.1818
 30
0.0
 11
145.617
 21
66.9618
 31
0.0
  0
LINE
  8
0
 62
     0
 10
145.617
 20
66.9618
 30
0.0
 11
146.015
 21
67.8395
 31
0.0
  0
LINE
  8
0
 62
     0
 10
146.015
 20
67.8395
 30
0.0
 11
146.432
 21
68.7557
 31
0.0
  0
LINE
  8
0
 62
     0
 10
146.432
 20
68.7557
 30
0.0
 11
146.809
 21
69.639
 31
0.0
  0
LINE
  8
0
 62
     0
 10
146.809
 20
69.639
 30
0.0
 11
147.107
 21
70.3901
 31
0.0
  0
LINE
  8
0
 62
     0
 10
147.107
 20
70.3901
 30
0.0
 11
147.286
 21
70.9083
 31
0.0
  0
LINE
  8
0
 62
     0
 10
147.286
 20
70.9083
 30
0.0
 11
147.616
 21
71.7434
 31
0.0
  0
LINE
  8
0
 62
     0
 10
147.616
 20
71.7434
 30
0.0
 11
148.026
 21
72.4958
 31
0.0
  0
LINE
  8
0
 62
     0
 10
148.026
 20
72.4958
 30
0.0
 11
148.379
 21
73.1629
 31
0.0
  0
LINE
  8
0
 62
     0
 10
148.379
 20
73.1629
 30
0.0
 11
148.521
 21
73.8008
 31
0.0
  0
LINE
  8
0
 62
     0
 10
148.521
 20
73.8008
 30
0.0
 11
148.601
 21
74.21
 31
0.0
  0
LINE
  8
0
 62
     0
 10
148.601
 20
74.21
 30
0.0
 11
148.82
 21
74.851
 31
0.0
  0
LINE
  8
0
 62
     0
 10
148.82
 20
74.851
 30
0.0
 11
149.145
 21
75.6377
 31
0.0
  0
LINE
  8
0
 62
     0
 10
149.145
 20
75.6377
 30
0.0
 11
149.543
 21
76.4826
 31
0.0
  0
LINE
  8
0
 62
     0
 10
149.543
 20
76.4826
 30
0.0
 11
150.504
 21
78.4461
 31
0.0
  0
LINE
  8
0
 62
     0
 10
150.504
 20
78.4461
 30
0.0
 11
151.175
 21
79.9677
 31
0.0
  0
LINE
  8
0
 62
     0
 10
151.175
 20
79.9677
 30
0.0
 11
151.568
 21
81.0768
 31
0.0
  0
LINE
  8
0
 62
     0
 10
151.568
 20
81.0768
 30
0.0
 11
151.696
 21
81.8099
 31
0.0
  0
LINE
  8
0
 62
     0
 10
151.696
 20
81.8099
 30
0.0
 11
151.854
 21
82.3969
 31
0.0
  0
LINE
  8
0
 62
     0
 10
151.854
 20
82.3969
 30
0.0
 11
152.225
 21
82.9028
 31
0.0
  0
LINE
  8
0
 62
     0
 10
152.225
 20
82.9028
 30
0.0
 11
152.594
 21
83.4058
 31
0.0
  0
LINE
  8
0
 62
     0
 10
152.594
 20
83.4058
 30
0.0
 11
152.754
 21
83.9611
 31
0.0
  0
LINE
  8
0
 62
     0
 10
152.754
 20
83.9611
 30
0.0
 11
152.895
 21
84.7122
 31
0.0
  0
LINE
  8
0
 62
     0
 10
152.895
 20
84.7122
 30
0.0
 11
153.247
 21
85.6188
 31
0.0
  0
LINE
  8
0
 62
     0
 10
153.247
 20
85.6188
 30
0.0
 11
153.715
 21
86.5685
 31
0.0
  0
LINE
  8
0
 62
     0
 10
153.715
 20
86.5685
 30
0.0
 11
154.129
 21
87.4889
 31
0.0
  0
LINE
  8
0
 62
     0
 10
154.129
 20
87.4889
 30
0.0
 11
154.319
 21
87.9849
 31
0.0
  0
LINE
  8
0
 62
     0
 10
154.319
 20
87.9849
 30
0.0
 11
154.601
 21
88.6672
 31
0.0
  0
LINE
  8
0
 62
     0
 10
154.601
 20
88.6672
 30
0.0
 11
154.927
 21
89.45
 31
0.0
  0
LINE
  8
0
 62
     0
 10
154.927
 20
89.45
 30
0.0
 11
155.258
 21
90.2409
 31
0.0
  0
LINE
  8
0
 62
     0
 10
155.258
 20
90.2409
 30
0.0
 11
155.785
 21
91.9346
 31
0.0
  0
LINE
  8
0
 62
     0
 10
155.785
 20
91.9346
 30
0.0
 11
155.605
 21
93.2229
 31
0.0
  0
LINE
  8
0
 62
     0
 10
155.605
 20
93.2229
 30
0.0
 11
154.548
 21
94.4591
 31
0.0
  0
LINE
  8
0
 62
     0
 10
154.548
 20
94.4591
 30
0.0
 11
152.436
 21
95.9915
 31
0.0
  0
LINE
  8
0
 62
     0
 10
152.436
 20
95.9915
 30
0.0
 11
151.289
 21
96.7715
 31
0.0
  0
LINE
  8
0
 62
     0
 10
151.289
 20
96.7715
 30
0.0
 11
150.309
 21
97.4686
 31
0.0
  0
LINE
  8
0
 62
     0
 10
150.309
 20
97.4686
 30
0.0
 11
149.608
 21
98.0006
 31
0.0
  0
LINE
  8
0
 62
     0
 10
149.608
 20
98.0006
 30
0.0
 11
149.297
 21
98.2846
 31
0.0
  0
LINE
  8
0
 62
     0
 10
149.297
 20
98.2846
 30
0.0
 11
148.705
 21
98.7915
 31
0.0
  0
LINE
  8
0
 62
     0
 10
148.705
 20
98.7915
 30
0.0
 11
147.639
 21
99.4833
 31
0.0
  0
LINE
  8
0
 62
     0
 10
147.639
 20
99.4833
 30
0.0
 11
145.655
 21
100.848
 31
0.0
  0
LINE
  8
0
 62
     0
 10
145.655
 20
100.848
 30
0.0
 11
143.36
 21
102.694
 31
0.0
  0
LINE
  8
0
 62
     0
 10
143.36
 20
102.694
 30
0.0
 11
141.079
 21
104.753
 31
0.0
  0
LINE
  8
0
 62
     0
 10
141.079
 20
104.753
 30
0.0
 11
139.136
 21
106.751
 31
0.0
  0
LINE
  8
0
 62
     0
 10
139.136
 20
106.751
 30
0.0
 11
137.246
 21
108.977
 31
0.0
  0
LINE
  8
0
 62
     0
 10
137.246
 20
108.977
 30
0.0
 11
135.494
 21
111.187
 31
0.0
  0
LINE
  8
0
 62
     0
 10
135.494
 20
111.187
 30
0.0
 11
134.204
 21
112.962
 31
0.0
  0
LINE
  8
0
 62
     0
 10
134.204
 20
112.962
 30
0.0
 11
133.704
 21
113.877
 31
0.0
  0
LINE
  8
0
 62
     0
 10
133.704
 20
113.877
 30
0.0
 11
133.623
 21
114.113
 31
0.0
  0
LINE
  8
0
 62
     0
 10
133.623
 20
114.113
 30
0.0
 11
133.408
 21
114.512
 31
0.0
  0
LINE
  8
0
 62
     0
 10
133.408
 20
114.512
 30
0.0
 11
133.094
 21
115.018
 31
0.0
  0
LINE
  8
0
 62
     0
 10
133.094
 20
115.018
 30
0.0
 11
132.716
 21
115.571
 31
0.0
  0
LINE
  8
0
 62
     0
 10
132.716
 20
115.571
 30
0.0
 11
132.245
 21
116.321
 31
0.0
  0
LINE
  8
0
 62
     0
 10
132.245
 20
116.321
 30
0.0
 11
131.679
 21
117.366
 31
0.0
  0
LINE
  8
0
 62
     0
 10
131.679
 20
117.366
 30
0.0
 11
131.093
 21
118.562
 31
0.0
  0
LINE
  8
0
 62
     0
 10
131.093
 20
118.562
 30
0.0
 11
130.564
 21
119.768
 31
0.0
  0
LINE
  8
0
 62
     0
 10
130.564
 20
119.768
 30
0.0
 11
130.076
 21
120.951
 31
0.0
  0
LINE
  8
0
 62
     0
 10
130.076
 20
120.951
 30
0.0
 11
129.606
 21
122.081
 31
0.0
  0
LINE
  8
0
 62
     0
 10
129.606
 20
122.081
 30
0.0
 11
129.209
 21
123.023
 31
0.0
  0
LINE
  8
0
 62
     0
 10
129.209
 20
123.023
 30
0.0
 11
128.942
 21
123.649
 31
0.0
  0
LINE
  8
0
 62
     0
 10
128.942
 20
123.649
 30
0.0
 11
128.522
 21
124.841
 31
0.0
  0
LINE
  8
0
 62
     0
 10
128.522
 20
124.841
 30
0.0
 11
128.236
 21
126.188
 31
0.0
  0
LINE
  8
0
 62
     0
 10
128.236
 20
126.188
 30
0.0
 11
127.966
 21
127.318
 31
0.0
  0
LINE
  8
0
 62
     0
 10
127.966
 20
127.318
 30
0.0
 11
127.671
 21
127.918
 31
0.0
  0
LINE
  8
0
 62
     0
 10
127.671
 20
127.918
 30
0.0
 11
127.447
 21
128.434
 31
0.0
  0
LINE
  8
0
 62
     0
 10
127.447
 20
128.434
 30
0.0
 11
127.354
 21
129.399
 31
0.0
  0
LINE
  8
0
 62
     0
 10
127.354
 20
129.399
 30
0.0
 11
127.31
 21
130.083
 31
0.0
  0
LINE
  8
0
 62
     0
 10
127.31
 20
130.083
 30
0.0
 11
127.194
 21
130.943
 31
0.0
  0
LINE
  8
0
 62
     0
 10
127.194
 20
130.943
 30
0.0
 11
127.026
 21
131.87
 31
0.0
  0
LINE
  8
0
 62
     0
 10
127.026
 20
131.87
 30
0.0
 11
126.825
 21
132.751
 31
0.0
  0
LINE
  8
0
 62
     0
 10
126.825
 20
132.751
 30
0.0
 11
126.621
 21
133.902
 31
0.0
  0
LINE
  8
0
 62
     0
 10
126.621
 20
133.902
 30
0.0
 11
126.464
 21
135.497
 31
0.0
  0
LINE
  8
0
 62
     0
 10
126.464
 20
135.497
 30
0.0
 11
126.355
 21
137.368
 31
0.0
  0
LINE
  8
0
 62
     0
 10
126.355
 20
137.368
 30
0.0
 11
126.299
 21
139.349
 31
0.0
  0
LINE
  8
0
 62
     0
 10
126.299
 20
139.349
 30
0.0
 11
126.297
 21
141.268
 31
0.0
  0
LINE
  8
0
 62
     0
 10
126.297
 20
141.268
 30
0.0
 11
126.352
 21
142.96
 31
0.0
  0
LINE
  8
0
 62
     0
 10
126.352
 20
142.96
 30
0.0
 11
126.468
 21
144.259
 31
0.0
  0
LINE
  8
0
 62
     0
 10
126.468
 20
144.259
 30
0.0
 11
126.649
 21
144.992
 31
0.0
  0
LINE
  8
0
 62
     0
 10
126.649
 20
144.992
 30
0.0
 11
126.79
 21
145.401
 31
0.0
  0
LINE
  8
0
 62
     0
 10
126.79
 20
145.401
 30
0.0
 11
126.939
 21
146.042
 31
0.0
  0
LINE
  8
0
 62
     0
 10
126.939
 20
146.042
 30
0.0
 11
127.074
 21
146.829
 31
0.0
  0
LINE
  8
0
 62
     0
 10
127.074
 20
146.829
 30
0.0
 11
127.178
 21
147.673
 31
0.0
  0
LINE
  8
0
 62
     0
 10
127.178
 20
147.673
 30
0.0
 11
127.435
 21
149.29
 31
0.0
  0
LINE
  8
0
 62
     0
 10
127.435
 20
149.29
 30
0.0
 11
127.889
 21
151.241
 31
0.0
  0
LINE
  8
0
 62
     0
 10
127.889
 20
151.241
 30
0.0
 11
128.494
 21
153.39
 31
0.0
  0
LINE
  8
0
 62
     0
 10
128.494
 20
153.39
 30
0.0
 11
129.201
 21
155.598
 31
0.0
  0
LINE
  8
0
 62
     0
 10
129.201
 20
155.598
 30
0.0
 11
129.965
 21
157.729
 31
0.0
  0
LINE
  8
0
 62
     0
 10
129.965
 20
157.729
 30
0.0
 11
130.744
 21
159.644
 31
0.0
  0
LINE
  8
0
 62
     0
 10
130.744
 20
159.644
 30
0.0
 11
131.487
 21
161.207
 31
0.0
  0
LINE
  8
0
 62
     0
 10
131.487
 20
161.207
 30
0.0
 11
132.151
 21
162.278
 31
0.0
  0
LINE
  8
0
 62
     0
 10
132.151
 20
162.278
 30
0.0
 11
132.394
 21
162.647
 31
0.0
  0
LINE
  8
0
 62
     0
 10
132.394
 20
162.647
 30
0.0
 11
132.769
 21
163.27
 31
0.0
  0
LINE
  8
0
 62
     0
 10
132.769
 20
163.27
 30
0.0
 11
133.223
 21
164.06
 31
0.0
  0
LINE
  8
0
 62
     0
 10
133.223
 20
164.06
 30
0.0
 11
133.704
 21
164.924
 31
0.0
  0
LINE
  8
0
 62
     0
 10
133.704
 20
164.924
 30
0.0
 11
134.184
 21
165.777
 31
0.0
  0
LINE
  8
0
 62
     0
 10
134.184
 20
165.777
 30
0.0
 11
134.637
 21
166.534
 31
0.0
  0
LINE
  8
0
 62
     0
 10
134.637
 20
166.534
 30
0.0
 11
135.012
 21
167.112
 31
0.0
  0
LINE
  8
0
 62
     0
 10
135.012
 20
167.112
 30
0.0
 11
135.256
 21
167.429
 31
0.0
  0
LINE
  8
0
 62
     0
 10
135.256
 20
167.429
 30
0.0
 11
135.573
 21
167.798
 31
0.0
  0
LINE
  8
0
 62
     0
 10
135.573
 20
167.798
 30
0.0
 11
136.15
 21
168.469
 31
0.0
  0
LINE
  8
0
 62
     0
 10
136.15
 20
168.469
 30
0.0
 11
136.908
 21
169.354
 31
0.0
  0
LINE
  8
0
 62
     0
 10
136.908
 20
169.354
 30
0.0
 11
137.761
 21
170.357
 31
0.0
  0
LINE
  8
0
 62
     0
 10
137.761
 20
170.357
 30
0.0
 11
141.133
 21
173.955
 31
0.0
  0
LINE
  8
0
 62
     0
 10
141.133
 20
173.955
 30
0.0
 11
145.169
 21
177.553
 31
0.0
  0
LINE
  8
0
 62
     0
 10
145.169
 20
177.553
 30
0.0
 11
148.519
 21
179.932
 31
0.0
  0
LINE
  8
0
 62
     0
 10
148.519
 20
179.932
 30
0.0
 11
152.401
 21
182.069
 31
0.0
  0
LINE
  8
0
 62
     0
 10
152.401
 20
182.069
 30
0.0
 11
155.733
 21
183.674
 31
0.0
  0
LINE
  8
0
 62
     0
 10
155.733
 20
183.674
 30
0.0
 11
157.868
 21
184.645
 31
0.0
  0
LINE
  8
0
 62
     0
 10
157.868
 20
184.645
 30
0.0
 11
159.236
 21
185.166
 31
0.0
  0
LINE
  8
0
 62
     0
 10
159.236
 20
185.166
 30
0.0
 11
160.267
 21
185.421
 31
0.0
  0
LINE
  8
0
 62
     0
 10
160.267
 20
185.421
 30
0.0
 11
161.25
 21
185.659
 31
0.0
  0
LINE
  8
0
 62
     0
 10
161.25
 20
185.659
 30
0.0
 11
161.785
 21
185.95
 31
0.0
  0
LINE
  8
0
 62
     0
 10
161.785
 20
185.95
 30
0.0
 11
162.19
 21
186.174
 31
0.0
  0
LINE
  8
0
 62
     0
 10
162.19
 20
186.174
 30
0.0
 11
162.913
 21
186.267
 31
0.0
  0
LINE
  8
0
 62
     0
 10
162.913
 20
186.267
 30
0.0
 11
164.094
 21
186.426
 31
0.0
  0
LINE
  8
0
 62
     0
 10
164.094
 20
186.426
 30
0.0
 11
165.595
 21
186.796
 31
0.0
  0
LINE
  8
0
 62
     0
 10
165.595
 20
186.796
 30
0.0
 11
166.978
 21
187.04
 31
0.0
  0
LINE
  8
0
 62
     0
 10
166.978
 20
187.04
 30
0.0
 11
169.11
 21
187.214
 31
0.0
  0
LINE
  8
0
 62
     0
 10
169.11
 20
187.214
 30
0.0
 11
171.744
 21
187.318
 31
0.0
  0
LINE
  8
0
 62
     0
 10
171.744
 20
187.318
 30
0.0
 11
174.625
 21
187.353
 31
0.0
  0
LINE
  8
0
 62
     0
 10
174.625
 20
187.353
 30
0.0
 11
177.506
 21
187.318
 31
0.0
  0
LINE
  8
0
 62
     0
 10
177.506
 20
187.318
 30
0.0
 11
180.14
 21
187.214
 31
0.0
  0
LINE
  8
0
 62
     0
 10
180.14
 20
187.214
 30
0.0
 11
182.272
 21
187.04
 31
0.0
  0
LINE
  8
0
 62
     0
 10
182.272
 20
187.04
 30
0.0
 11
183.657
 21
186.796
 31
0.0
  0
LINE
  8
0
 62
     0
 10
183.657
 20
186.796
 30
0.0
 11
185.156
 21
186.426
 31
0.0
  0
LINE
  8
0
 62
     0
 10
185.156
 20
186.426
 30
0.0
 11
186.338
 21
186.267
 31
0.0
  0
LINE
  8
0
 62
     0
 10
186.338
 20
186.267
 30
0.0
 11
187.06
 21
186.174
 31
0.0
  0
LINE
  8
0
 62
     0
 10
187.06
 20
186.174
 30
0.0
 11
187.467
 21
185.95
 31
0.0
  0
LINE
  8
0
 62
     0
 10
187.467
 20
185.95
 30
0.0
 11
188
 21
185.659
 31
0.0
  0
LINE
  8
0
 62
     0
 10
188
 20
185.659
 30
0.0
 11
188.984
 21
185.421
 31
0.0
  0
LINE
  8
0
 62
     0
 10
188.984
 20
185.421
 30
0.0
 11
190.35
 21
185.049
 31
0.0
  0
LINE
  8
0
 62
     0
 10
190.35
 20
185.049
 30
0.0
 11
192.116
 21
184.37
 31
0.0
  0
LINE
  8
0
 62
     0
 10
192.116
 20
184.37
 30
0.0
 11
194.157
 21
183.453
 31
0.0
  0
LINE
  8
0
 62
     0
 10
194.157
 20
183.453
 30
0.0
 11
196.347
 21
182.361
 31
0.0
  0
LINE
  8
0
 62
     0
 10
196.347
 20
182.361
 30
0.0
 11
198.56
 21
181.16
 31
0.0
  0
LINE
  8
0
 62
     0
 10
198.56
 20
181.16
 30
0.0
 11
200.671
 21
179.914
 31
0.0
  0
LINE
  8
0
 62
     0
 10
200.671
 20
179.914
 30
0.0
 11
202.554
 21
178.691
 31
0.0
  0
LINE
  8
0
 62
     0
 10
202.554
 20
178.691
 30
0.0
 11
204.083
 21
177.553
 31
0.0
  0
LINE
  8
0
 62
     0
 10
204.083
 20
177.553
 30
0.0
 11
208.117
 21
173.955
 31
0.0
  0
LINE
  8
0
 62
     0
 10
208.117
 20
173.955
 30
0.0
 11
211.492
 21
170.357
 31
0.0
  0
LINE
  8
0
 62
     0
 10
211.492
 20
170.357
 30
0.0
 11
212.343
 21
169.354
 31
0.0
  0
LINE
  8
0
 62
     0
 10
212.343
 20
169.354
 30
0.0
 11
213.1
 21
168.469
 31
0.0
  0
LINE
  8
0
 62
     0
 10
213.1
 20
168.469
 30
0.0
 11
213.679
 21
167.798
 31
0.0
  0
LINE
  8
0
 62
     0
 10
213.679
 20
167.798
 30
0.0
 11
213.996
 21
167.429
 31
0.0
  0
LINE
  8
0
 62
     0
 10
213.996
 20
167.429
 30
0.0
 11
214.238
 21
167.112
 31
0.0
  0
LINE
  8
0
 62
     0
 10
214.238
 20
167.112
 30
0.0
 11
214.613
 21
166.534
 31
0.0
  0
LINE
  8
0
 62
     0
 10
214.613
 20
166.534
 30
0.0
 11
215.068
 21
165.777
 31
0.0
  0
LINE
  8
0
 62
     0
 10
215.068
 20
165.777
 30
0.0
 11
215.549
 21
164.924
 31
0.0
  0
LINE
  8
0
 62
     0
 10
215.549
 20
164.924
 30
0.0
 11
216.028
 21
164.06
 31
0.0
  0
LINE
  8
0
 62
     0
 10
216.028
 20
164.06
 30
0.0
 11
216.481
 21
163.27
 31
0.0
  0
LINE
  8
0
 62
     0
 10
216.481
 20
163.27
 30
0.0
 11
216.856
 21
162.647
 31
0.0
  0
LINE
  8
0
 62
     0
 10
216.856
 20
162.647
 30
0.0
 11
217.1
 21
162.278
 31
0.0
  0
LINE
  8
0
 62
     0
 10
217.1
 20
162.278
 30
0.0
 11
217.763
 21
161.207
 31
0.0
  0
LINE
  8
0
 62
     0
 10
217.763
 20
161.207
 30
0.0
 11
218.507
 21
159.644
 31
0.0
  0
LINE
  8
0
 62
     0
 10
218.507
 20
159.644
 30
0.0
 11
219.285
 21
157.729
 31
0.0
  0
LINE
  8
0
 62
     0
 10
219.285
 20
157.729
 30
0.0
 11
220.051
 21
155.598
 31
0.0
  0
LINE
  8
0
 62
     0
 10
220.051
 20
155.598
 30
0.0
 11
220.758
 21
153.39
 31
0.0
  0
LINE
  8
0
 62
     0
 10
220.758
 20
153.39
 30
0.0
 11
221.361
 21
151.241
 31
0.0
  0
LINE
  8
0
 62
     0
 10
221.361
 20
151.241
 30
0.0
 11
221.816
 21
149.29
 31
0.0
  0
LINE
  8
0
 62
     0
 10
221.816
 20
149.29
 30
0.0
 11
222.075
 21
147.673
 31
0.0
  0
LINE
  8
0
 62
     0
 10
222.075
 20
147.673
 30
0.0
 11
222.177
 21
146.829
 31
0.0
  0
LINE
  8
0
 62
     0
 10
222.177
 20
146.829
 30
0.0
 11
222.312
 21
146.042
 31
0.0
  0
LINE
  8
0
 62
     0
 10
222.312
 20
146.042
 30
0.0
 11
222.461
 21
145.401
 31
0.0
  0
LINE
  8
0
 62
     0
 10
222.461
 20
145.401
 30
0.0
 11
222.604
 21
144.992
 31
0.0
  0
LINE
  8
0
 62
     0
 10
222.604
 20
144.992
 30
0.0
 11
222.782
 21
144.259
 31
0.0
  0
LINE
  8
0
 62
     0
 10
222.782
 20
144.259
 30
0.0
 11
222.898
 21
142.96
 31
0.0
  0
LINE
  8
0
 62
     0
 10
222.898
 20
142.96
 30
0.0
 11
222.953
 21
141.268
 31
0.0
  0
LINE
  8
0
 62
     0
 10
222.953
 20
141.268
 30
0.0
 11
222.951
 21
139.349
 31
0.0
  0
LINE
  8
0
 62
     0
 10
222.951
 20
139.349
 30
0.0
 11
222.895
 21
137.368
 31
0.0
  0
LINE
  8
0
 62
     0
 10
222.895
 20
137.368
 30
0.0
 11
222.787
 21
135.497
 31
0.0
  0
LINE
  8
0
 62
     0
 10
222.787
 20
135.497
 30
0.0
 11
222.63
 21
133.902
 31
0.0
  0
LINE
  8
0
 62
     0
 10
222.63
 20
133.902
 30
0.0
 11
222.428
 21
132.751
 31
0.0
  0
LINE
  8
0
 62
     0
 10
222.428
 20
132.751
 30
0.0
 11
222.225
 21
131.87
 31
0.0
  0
LINE
  8
0
 62
     0
 10
222.225
 20
131.87
 30
0.0
 11
222.057
 21
130.943
 31
0.0
  0
LINE
  8
0
 62
     0
 10
222.057
 20
130.943
 30
0.0
 11
221.941
 21
130.083
 31
0.0
  0
LINE
  8
0
 62
     0
 10
221.941
 20
130.083
 30
0.0
 11
221.899
 21
129.399
 31
0.0
  0
LINE
  8
0
 62
     0
 10
221.899
 20
129.399
 30
0.0
 11
221.805
 21
128.431
 31
0.0
  0
LINE
  8
0
 62
     0
 10
221.805
 20
128.431
 30
0.0
 11
221.58
 21
127.882
 31
0.0
  0
LINE
  8
0
 62
     0
 10
221.58
 20
127.882
 30
0.0
 11
221.254
 21
127.252
 31
0.0
  0
LINE
  8
0
 62
     0
 10
221.254
 20
127.252
 30
0.0
 11
220.981
 21
126.012
 31
0.0
  0
LINE
  8
0
 62
     0
 10
220.981
 20
126.012
 30
0.0
 11
220.667
 21
124.633
 31
0.0
  0
LINE
  8
0
 62
     0
 10
220.667
 20
124.633
 30
0.0
 11
220.275
 21
123.649
 31
0.0
  0
LINE
  8
0
 62
     0
 10
220.275
 20
123.649
 30
0.0
 11
219.922
 21
123.033
 31
0.0
  0
LINE
  8
0
 62
     0
 10
219.922
 20
123.033
 30
0.0
 11
219.782
 21
122.52
 31
0.0
  0
LINE
  8
0
 62
     0
 10
219.782
 20
122.52
 30
0.0
 11
219.7
 21
122.166
 31
0.0
  0
LINE
  8
0
 62
     0
 10
219.7
 20
122.166
 30
0.0
 11
219.478
 21
121.538
 31
0.0
  0
LINE
  8
0
 62
     0
 10
219.478
 20
121.538
 30
0.0
 11
219.141
 21
120.73
 31
0.0
  0
LINE
  8
0
 62
     0
 10
219.141
 20
120.73
 30
0.0
 11
218.724
 21
119.838
 31
0.0
  0
LINE
  8
0
 62
     0
 10
218.724
 20
119.838
 30
0.0
 11
218.32
 21
118.947
 31
0.0
  0
LINE
  8
0
 62
     0
 10
218.32
 20
118.947
 30
0.0
 11
217.982
 21
118.176
 31
0.0
  0
LINE
  8
0
 62
     0
 10
217.982
 20
118.176
 30
0.0
 11
217.751
 21
117.612
 31
0.0
  0
LINE
  8
0
 62
     0
 10
217.751
 20
117.612
 30
0.0
 11
217.665
 21
117.335
 31
0.0
  0
LINE
  8
0
 62
     0
 10
217.665
 20
117.335
 30
0.0
 11
217.584
 21
117.14
 31
0.0
  0
LINE
  8
0
 62
     0
 10
217.584
 20
117.14
 30
0.0
 11
217.361
 21
116.753
 31
0.0
  0
LINE
  8
0
 62
     0
 10
217.361
 20
116.753
 30
0.0
 11
217.025
 21
116.233
 31
0.0
  0
LINE
  8
0
 62
     0
 10
217.025
 20
116.233
 30
0.0
 11
216.607
 21
115.641
 31
0.0
  0
LINE
  8
0
 62
     0
 10
216.607
 20
115.641
 30
0.0
 11
216.203
 21
115.063
 31
0.0
  0
LINE
  8
0
 62
     0
 10
216.203
 20
115.063
 30
0.0
 11
215.865
 21
114.534
 31
0.0
  0
LINE
  8
0
 62
     0
 10
215.865
 20
114.534
 30
0.0
 11
215.634
 21
114.118
 31
0.0
  0
LINE
  8
0
 62
     0
 10
215.634
 20
114.118
 30
0.0
 11
215.549
 21
113.877
 31
0.0
  0
LINE
  8
0
 62
     0
 10
215.549
 20
113.877
 30
0.0
 11
215.046
 21
112.962
 31
0.0
  0
LINE
  8
0
 62
     0
 10
215.046
 20
112.962
 30
0.0
 11
213.757
 21
111.187
 31
0.0
  0
LINE
  8
0
 62
     0
 10
213.757
 20
111.187
 30
0.0
 11
212.006
 21
108.977
 31
0.0
  0
LINE
  8
0
 62
     0
 10
212.006
 20
108.977
 30
0.0
 11
210.115
 21
106.751
 31
0.0
  0
LINE
  8
0
 62
     0
 10
210.115
 20
106.751
 30
0.0
 11
208.171
 21
104.768
 31
0.0
  0
LINE
  8
0
 62
     0
 10
208.171
 20
104.768
 30
0.0
 11
205.89
 21
102.708
 31
0.0
  0
LINE
  8
0
 62
     0
 10
205.89
 20
102.708
 30
0.0
 11
203.597
 21
100.853
 31
0.0
  0
LINE
  8
0
 62
     0
 10
203.597
 20
100.853
 30
0.0
 11
201.614
 21
99.4833
 31
0.0
  0
LINE
  8
0
 62
     0
 10
201.614
 20
99.4833
 30
0.0
 11
200.36
 21
98.6247
 31
0.0
  0
LINE
  8
0
 62
     0
 10
200.36
 20
98.6247
 30
0.0
 11
199.321
 21
97.7896
 31
0.0
  0
LINE
  8
0
 62
     0
 10
199.321
 20
97.7896
 30
0.0
 11
198.787
 21
97.3585
 31
0.0
  0
LINE
  8
0
 62
     0
 10
198.787
 20
97.3585
 30
0.0
 11
198.001
 21
96.7948
 31
0.0
  0
LINE
  8
0
 62
     0
 10
198.001
 20
96.7948
 30
0.0
 11
197.062
 21
96.1637
 31
0.0
  0
LINE
  8
0
 62
     0
 10
197.062
 20
96.1637
 30
0.0
 11
196.074
 21
95.5326
 31
0.0
  0
LINE
  8
0
 62
     0
 10
196.074
 20
95.5326
 30
0.0
 11
195.134
 21
94.9304
 31
0.0
  0
LINE
  8
0
 62
     0
 10
195.134
 20
94.9304
 30
0.0
 11
194.332
 21
94.3296
 31
0.0
  0
LINE
  8
0
 62
     0
 10
194.332
 20
94.3296
 30
0.0
 11
193.747
 21
93.8018
 31
0.0
  0
LINE
  8
0
 62
     0
 10
193.747
 20
93.8018
 30
0.0
 11
193.464
 21
93.4159
 31
0.0
  0
LINE
  8
0
 62
     0
 10
193.464
 20
93.4159
 30
0.0
 11
193.361
 21
92.5368
 31
0.0
  0
LINE
  8
0
 62
     0
 10
193.361
 20
92.5368
 30
0.0
 11
193.517
 21
91.4273
 31
0.0
  0
LINE
  8
0
 62
     0
 10
193.517
 20
91.4273
 30
0.0
 11
193.911
 21
90.1679
 31
0.0
  0
LINE
  8
0
 62
     0
 10
193.911
 20
90.1679
 30
0.0
 11
194.522
 21
88.8298
 31
0.0
  0
LINE
  8
0
 62
     0
 10
194.522
 20
88.8298
 30
0.0
 11
194.867
 21
88.1242
 31
0.0
  0
LINE
  8
0
 62
     0
 10
194.867
 20
88.1242
 30
0.0
 11
195.188
 21
87.3841
 31
0.0
  0
LINE
  8
0
 62
     0
 10
195.188
 20
87.3841
 30
0.0
 11
195.45
 21
86.6965
 31
0.0
  0
LINE
  8
0
 62
     0
 10
195.45
 20
86.6965
 30
0.0
 11
195.617
 21
86.148
 31
0.0
  0
LINE
  8
0
 62
     0
 10
195.617
 20
86.148
 30
0.0
 11
195.872
 21
85.2978
 31
0.0
  0
LINE
  8
0
 62
     0
 10
195.872
 20
85.2978
 30
0.0
 11
196.18
 21
84.8431
 31
0.0
  0
LINE
  8
0
 62
     0
 10
196.18
 20
84.8431
 30
0.0
 11
196.405
 21
84.4998
 31
0.0
  0
LINE
  8
0
 62
     0
 10
196.405
 20
84.4998
 30
0.0
 11
196.499
 21
83.9971
 31
0.0
  0
LINE
  8
0
 62
     0
 10
196.499
 20
83.9971
 30
0.0
 11
196.617
 21
83.4595
 31
0.0
  0
LINE
  8
0
 62
     0
 10
196.617
 20
83.4595
 30
0.0
 11
196.922
 21
82.973
 31
0.0
  0
LINE
  8
0
 62
     0
 10
196.922
 20
82.973
 30
0.0
 11
197.294
 21
82.4039
 31
0.0
  0
LINE
  8
0
 62
     0
 10
197.294
 20
82.4039
 30
0.0
 11
197.736
 21
81.4268
 31
0.0
  0
LINE
  8
0
 62
     0
 10
197.736
 20
81.4268
 30
0.0
 11
198.185
 21
80.191
 31
0.0
  0
LINE
  8
0
 62
     0
 10
198.185
 20
80.191
 30
0.0
 11
198.579
 21
78.8458
 31
0.0
  0
LINE
  8
0
 62
     0
 10
198.579
 20
78.8458
 30
0.0
 11
198.772
 21
78.3138
 31
0.0
  0
LINE
  8
0
 62
     0
 10
198.772
 20
78.3138
 30
0.0
 11
199.064
 21
77.6206
 31
0.0
  0
LINE
  8
0
 62
     0
 10
199.064
 20
77.6206
 30
0.0
 11
199.423
 21
76.8629
 31
0.0
  0
LINE
  8
0
 62
     0
 10
199.423
 20
76.8629
 30
0.0
 11
199.814
 21
76.1298
 31
0.0
  0
LINE
  8
0
 62
     0
 10
199.814
 20
76.1298
 30
0.0
 11
200.165
 21
75.4352
 31
0.0
  0
LINE
  8
0
 62
     0
 10
200.165
 20
75.4352
 30
0.0
 11
200.458
 21
74.7723
 31
0.0
  0
LINE
  8
0
 62
     0
 10
200.458
 20
74.7723
 30
0.0
 11
200.658
 21
74.2156
 31
0.0
  0
LINE
  8
0
 62
     0
 10
200.658
 20
74.2156
 30
0.0
 11
200.732
 21
73.8367
 31
0.0
  0
LINE
  8
0
 62
     0
 10
200.732
 20
73.8367
 30
0.0
 11
200.867
 21
73.1806
 31
0.0
  0
LINE
  8
0
 62
     0
 10
200.867
 20
73.1806
 30
0.0
 11
201.19
 21
72.4958
 31
0.0
  0
LINE
  8
0
 62
     0
 10
201.19
 20
72.4958
 30
0.0
 11
201.447
 21
72.0492
 31
0.0
  0
LINE
  8
0
 62
     0
 10
201.447
 20
72.0492
 30
0.0
 11
201.777
 21
71.3507
 31
0.0
  0
LINE
  8
0
 62
     0
 10
201.777
 20
71.3507
 30
0.0
 11
202.137
 21
70.4921
 31
0.0
  0
LINE
  8
0
 62
     0
 10
202.137
 20
70.4921
 30
0.0
 11
202.496
 21
69.5674
 31
0.0
  0
LINE
  8
0
 62
     0
 10
202.496
 20
69.5674
 30
0.0
 11
202.825
 21
68.7021
 31
0.0
  0
LINE
  8
0
 62
     0
 10
202.825
 20
68.7021
 30
0.0
 11
203.148
 21
67.9595
 31
0.0
  0
LINE
  8
0
 62
     0
 10
203.148
 20
67.9595
 30
0.0
 11
203.418
 21
67.4204
 31
0.0
  0
LINE
  8
0
 62
     0
 10
203.418
 20
67.4204
 30
0.0
 11
203.589
 21
67.1696
 31
0.0
  0
LINE
  8
0
 62
     0
 10
203.589
 20
67.1696
 30
0.0
 11
203.813
 21
66.857
 31
0.0
  0
LINE
  8
0
 62
     0
 10
203.813
 20
66.857
 30
0.0
 11
203.907
 21
66.3582
 31
0.0
  0
LINE
  8
0
 62
     0
 10
203.907
 20
66.3582
 30
0.0
 11
204.283
 21
65.0752
 31
0.0
  0
LINE
  8
0
 62
     0
 10
204.283
 20
65.0752
 30
0.0
 11
205.15
 21
62.8661
 31
0.0
  0
LINE
  8
0
 62
     0
 10
205.15
 20
62.8661
 30
0.0
 11
206.109
 21
60.6834
 31
0.0
  0
LINE
  8
0
 62
     0
 10
206.109
 20
60.6834
 30
0.0
 11
206.764
 21
59.479
 31
0.0
  0
LINE
  8
0
 62
     0
 10
206.764
 20
59.479
 30
0.0
 11
206.988
 21
58.9456
 31
0.0
  0
LINE
  8
0
 62
     0
 10
206.988
 20
58.9456
 30
0.0
 11
207.082
 21
58.1738
 31
0.0
  0
LINE
  8
0
 62
     0
 10
207.082
 20
58.1738
 30
0.0
 11
207.24
 21
57.38
 31
0.0
  0
LINE
  8
0
 62
     0
 10
207.24
 20
57.38
 30
0.0
 11
207.611
 21
56.7972
 31
0.0
  0
LINE
  8
0
 62
     0
 10
207.611
 20
56.7972
 30
0.0
 11
207.981
 21
56.2913
 31
0.0
  0
LINE
  8
0
 62
     0
 10
207.981
 20
56.2913
 30
0.0
 11
208.14
 21
55.7043
 31
0.0
  0
LINE
  8
0
 62
     0
 10
208.14
 20
55.7043
 30
0.0
 11
208.237
 21
55.2235
 31
0.0
  0
LINE
  8
0
 62
     0
 10
208.237
 20
55.2235
 30
0.0
 11
208.493
 21
55.0333
 31
0.0
  0
LINE
  8
0
 62
     0
 10
208.493
 20
55.0333
 30
0.0
 11
208.788
 21
54.7522
 31
0.0
  0
LINE
  8
0
 62
     0
 10
208.788
 20
54.7522
 30
0.0
 11
209.057
 21
54.0452
 31
0.0
  0
LINE
  8
0
 62
     0
 10
209.057
 20
54.0452
 30
0.0
 11
209.436
 21
52.8602
 31
0.0
  0
LINE
  8
0
 62
     0
 10
209.436
 20
52.8602
 30
0.0
 11
210.163
 21
50.9281
 31
0.0
  0
LINE
  8
0
 62
     0
 10
210.163
 20
50.9281
 30
0.0
 11
211.096
 21
48.6336
 31
0.0
  0
LINE
  8
0
 62
     0
 10
211.096
 20
48.6336
 30
0.0
 11
212.091
 21
46.3557
 31
0.0
  0
LINE
  8
0
 62
     0
 10
212.091
 20
46.3557
 30
0.0
 11
212.54
 21
45.2713
 31
0.0
  0
LINE
  8
0
 62
     0
 10
212.54
 20
45.2713
 30
0.0
 11
212.726
 21
44.6624
 31
0.0
  0
LINE
  8
0
 62
     0
 10
212.726
 20
44.6624
 30
0.0
 11
212.792
 21
44.4168
 31
0.0
  0
LINE
  8
0
 62
     0
 10
212.792
 20
44.4168
 30
0.0
 11
212.972
 21
43.9388
 31
0.0
  0
LINE
  8
0
 62
     0
 10
212.972
 20
43.9388
 30
0.0
 11
213.231
 21
43.3035
 31
0.0
  0
LINE
  8
0
 62
     0
 10
213.231
 20
43.3035
 30
0.0
 11
213.537
 21
42.5799
 31
0.0
  0
LINE
  8
0
 62
     0
 10
213.537
 20
42.5799
 30
0.0
 11
213.911
 21
41.7382
 31
0.0
  0
LINE
  8
0
 62
     0
 10
213.911
 20
41.7382
 30
0.0
 11
214.313
 21
40.8174
 31
0.0
  0
LINE
  8
0
 62
     0
 10
214.313
 20
40.8174
 30
0.0
 11
214.687
 21
39.9217
 31
0.0
  0
LINE
  8
0
 62
     0
 10
214.687
 20
39.9217
 30
0.0
 11
214.983
 21
39.1583
 31
0.0
  0
LINE
  8
0
 62
     0
 10
214.983
 20
39.1583
 30
0.0
 11
215.573
 21
37.7391
 31
0.0
  0
LINE
  8
0
 62
     0
 10
215.573
 20
37.7391
 30
0.0
 11
216.112
 21
36.5827
 31
0.0
  0
LINE
  8
0
 62
     0
 10
216.112
 20
36.5827
 30
0.0
 11
216.465
 21
35.7367
 31
0.0
  0
LINE
  8
0
 62
     0
 10
216.465
 20
35.7367
 30
0.0
 11
216.607
 21
35.1014
 31
0.0
  0
LINE
  8
0
 62
     0
 10
216.607
 20
35.1014
 30
0.0
 11
216.765
 21
34.6604
 31
0.0
  0
LINE
  8
0
 62
     0
 10
216.765
 20
34.6604
 30
0.0
 11
217.136
 21
34.2194
 31
0.0
  0
LINE
  8
0
 62
     0
 10
217.136
 20
34.2194
 30
0.0
 11
217.506
 21
33.7137
 31
0.0
  0
LINE
  8
0
 62
     0
 10
217.506
 20
33.7137
 30
0.0
 11
217.665
 21
33.1266
 31
0.0
  0
LINE
  8
0
 62
     0
 10
217.665
 20
33.1266
 30
0.0
 11
217.745
 21
32.6857
 31
0.0
  0
LINE
  8
0
 62
     0
 10
217.745
 20
32.6857
 30
0.0
 11
217.964
 21
32.0022
 31
0.0
  0
LINE
  8
0
 62
     0
 10
217.964
 20
32.0022
 30
0.0
 11
218.289
 21
31.1671
 31
0.0
  0
LINE
  8
0
 62
     0
 10
218.289
 20
31.1671
 30
0.0
 11
218.688
 21
30.2686
 31
0.0
  0
LINE
  8
0
 62
     0
 10
218.688
 20
30.2686
 30
0.0
 11
219.126
 21
29.2461
 31
0.0
  0
LINE
  8
0
 62
     0
 10
219.126
 20
29.2461
 30
0.0
 11
219.608
 21
28.1216
 31
0.0
  0
LINE
  8
0
 62
     0
 10
219.608
 20
28.1216
 30
0.0
 11
220.071
 21
27.0302
 31
0.0
  0
LINE
  8
0
 62
     0
 10
220.071
 20
27.0302
 30
0.0
 11
220.452
 21
26.1056
 31
0.0
  0
LINE
  8
0
 62
     0
 10
220.452
 20
26.1056
 30
0.0
 11
221.018
 21
24.6972
 31
0.0
  0
LINE
  8
0
 62
     0
 10
221.018
 20
24.6972
 30
0.0
 11
221.492
 21
23.5397
 31
0.0
  0
LINE
  8
0
 62
     0
 10
221.492
 20
23.5397
 30
0.0
 11
221.94
 21
22.4744
 31
0.0
  0
LINE
  8
0
 62
     0
 10
221.94
 20
22.4744
 30
0.0
 11
222.428
 21
21.3431
 31
0.0
  0
LINE
  8
0
 62
     0
 10
222.428
 20
21.3431
 30
0.0
 11
222.653
 21
20.8043
 31
0.0
  0
LINE
  8
0
 62
     0
 10
222.653
 20
20.8043
 30
0.0
 11
222.934
 21
20.0959
 31
0.0
  0
LINE
  8
0
 62
     0
 10
222.934
 20
20.0959
 30
0.0
 11
223.235
 21
19.3146
 31
0.0
  0
LINE
  8
0
 62
     0
 10
223.235
 20
19.3146
 30
0.0
 11
223.521
 21
18.5567
 31
0.0
  0
LINE
  8
0
 62
     0
 10
223.521
 20
18.5567
 30
0.0
 11
223.804
 21
17.8676
 31
0.0
  0
LINE
  8
0
 62
     0
 10
223.804
 20
17.8676
 30
0.0
 11
224.106
 21
17.2255
 31
0.0
  0
LINE
  8
0
 62
     0
 10
224.106
 20
17.2255
 30
0.0
 11
224.389
 21
16.7018
 31
0.0
  0
LINE
  8
0
 62
     0
 10
224.389
 20
16.7018
 30
0.0
 11
224.615
 21
16.3697
 31
0.0
  0
LINE
  8
0
 62
     0
 10
224.615
 20
16.3697
 30
0.0
 11
225.535
 21
15.8984
 31
0.0
  0
LINE
  8
0
 62
     0
 10
225.535
 20
15.8984
 30
0.0
 11
226.908
 21
15.9866
 31
0.0
  0
LINE
  8
0
 62
     0
 10
226.908
 20
15.9866
 30
0.0
 11
228.86
 21
16.6632
 31
0.0
  0
LINE
  8
0
 62
     0
 10
228.86
 20
16.6632
 30
0.0
 11
231.528
 21
17.9572
 31
0.0
  0
LINE
  8
0
 62
     0
 10
231.528
 20
17.9572
 30
0.0
 11
234.252
 21
19.3918
 31
0.0
  0
LINE
  8
0
 62
     0
 10
234.252
 20
19.3918
 30
0.0
 11
236.436
 21
20.5424
 31
0.0
  0
LINE
  8
0
 62
     0
 10
236.436
 20
20.5424
 30
0.0
 11
238.147
 21
21.4492
 31
0.0
  0
LINE
  8
0
 62
     0
 10
238.147
 20
21.4492
 30
0.0
 11
239.457
 21
22.1506
 31
0.0
  0
LINE
  8
0
 62
     0
 10
239.457
 20
22.1506
 30
0.0
 11
240.432
 21
22.6853
 31
0.0
  0
LINE
  8
0
 62
     0
 10
240.432
 20
22.6853
 30
0.0
 11
241.143
 21
23.0918
 31
0.0
  0
LINE
  8
0
 62
     0
 10
241.143
 20
23.0918
 30
0.0
 11
241.656
 21
23.4074
 31
0.0
  0
LINE
  8
0
 62
     0
 10
241.656
 20
23.4074
 30
0.0
 11
242.042
 21
23.672
 31
0.0
  0
LINE
  8
0
 62
     0
 10
242.042
 20
23.672
 30
0.0
 11
242.83
 21
24.1391
 31
0.0
  0
LINE
  8
0
 62
     0
 10
242.83
 20
24.1391
 30
0.0
 11
243.382
 21
24.3417
 31
0.0
  0
LINE
  8
0
 62
     0
 10
243.382
 20
24.3417
 30
0.0
 11
243.772
 21
24.1832
 31
0.0
  0
LINE
  8
0
 62
     0
 10
243.772
 20
24.1832
 30
0.0
 11
244.552
 21
23.7532
 31
0.0
  0
LINE
  8
0
 62
     0
 10
244.552
 20
23.7532
 30
0.0
 11
245.613
 21
23.1207
 31
0.0
  0
LINE
  8
0
 62
     0
 10
245.613
 20
23.1207
 30
0.0
 11
246.848
 21
22.3532
 31
0.0
  0
LINE
  8
0
 62
     0
 10
246.848
 20
22.3532
 30
0.0
 11
248.143
 21
21.5222
 31
0.0
  0
LINE
  8
0
 62
     0
 10
248.143
 20
21.5222
 30
0.0
 11
249.394
 21
20.6954
 31
0.0
  0
LINE
  8
0
 62
     0
 10
249.394
 20
20.6954
 30
0.0
 11
250.489
 21
19.943
 31
0.0
  0
LINE
  8
0
 62
     0
 10
250.489
 20
19.943
 30
0.0
 11
251.32
 21
19.3325
 31
0.0
  0
LINE
  8
0
 62
     0
 10
251.32
 20
19.3325
 30
0.0
 11
251.83
 21
18.9536
 31
0.0
  0
LINE
  8
0
 62
     0
 10
251.83
 20
18.9536
 30
0.0
 11
252.481
 21
18.4974
 31
0.0
  0
LINE
  8
0
 62
     0
 10
252.481
 20
18.4974
 30
0.0
 11
253.221
 21
17.9972
 31
0.0
  0
LINE
  8
0
 62
     0
 10
253.221
 20
17.9972
 30
0.0
 11
254
 21
17.4859
 31
0.0
  0
LINE
  8
0
 62
     0
 10
254
 20
17.4859
 30
0.0
 11
254.765
 21
16.9954
 31
0.0
  0
LINE
  8
0
 62
     0
 10
254.765
 20
16.9954
 30
0.0
 11
255.466
 21
16.5599
 31
0.0
  0
LINE
  8
0
 62
     0
 10
255.466
 20
16.5599
 30
0.0
 11
256.052
 21
16.2112
 31
0.0
  0
LINE
  8
0
 62
     0
 10
256.052
 20
16.2112
 30
0.0
 11
256.471
 21
15.9811
 31
0.0
  0
LINE
  8
0
 62
     0
 10
256.471
 20
15.9811
 30
0.0
 11
257.135
 21
15.5236
 31
0.0
  0
LINE
  8
0
 62
     0
 10
257.135
 20
15.5236
 30
0.0
 11
257.987
 21
14.7464
 31
0.0
  0
LINE
  8
0
 62
     0
 10
257.987
 20
14.7464
 30
0.0
 11
258.785
 21
14.0546
 31
0.0
  0
LINE
  8
0
 62
     0
 10
258.785
 20
14.0546
 30
0.0
 11
259.293
 21
13.7583
 31
0.0
  0
LINE
  8
0
 62
     0
 10
259.293
 20
13.7583
 30
0.0
 11
259.658
 21
13.5916
 31
0.0
  0
LINE
  8
0
 62
     0
 10
259.658
 20
13.5916
 30
0.0
 11
260.42
 21
13.1368
 31
0.0
  0
LINE
  8
0
 62
     0
 10
260.42
 20
13.1368
 30
0.0
 11
261.475
 21
12.4643
 31
0.0
  0
LINE
  8
0
 62
     0
 10
261.475
 20
12.4643
 30
0.0
 11
262.715
 21
11.6417
 31
0.0
  0
LINE
  8
0
 62
     0
 10
262.715
 20
11.6417
 30
0.0
 11
263.963
 21
10.7887
 31
0.0
  0
LINE
  8
0
 62
     0
 10
263.963
 20
10.7887
 30
0.0
 11
265.091
 21
10.028
 31
0.0
  0
LINE
  8
0
 62
     0
 10
265.091
 20
10.028
 30
0.0
 11
265.973
 21
9.43956
 31
0.0
  0
LINE
  8
0
 62
     0
 10
265.973
 20
9.43956
 30
0.0
 11
266.489
 21
9.10195
 31
0.0
  0
LINE
  8
0
 62
     0
 10
266.489
 20
9.10195
 30
0.0
 11
267.071
 21
8.6844
 31
0.0
  0
LINE
  8
0
 62
     0
 10
267.071
 20
8.6844
 30
0.0
 11
267.547
 21
8.29028
 31
0.0
  0
LINE
  8
0
 62
     0
 10
267.547
 20
8.29028
 30
0.0
 11
268.009
 21
7.95129
 31
0.0
  0
LINE
  8
0
 62
     0
 10
268.009
 20
7.95129
 30
0.0
 11
268.5
 21
7.58472
 31
0.0
  0
LINE
  8
0
 62
     0
 10
268.5
 20
7.58472
 30
0.0
 11
268.913
 21
7.32564
 31
0.0
  0
LINE
  8
0
 62
     0
 10
268.913
 20
7.32564
 30
0.0
 11
269.615
 21
6.85299
 31
0.0
  0
LINE
  8
0
 62
     0
 10
269.615
 20
6.85299
 30
0.0
 11
270.509
 21
6.23563
 31
0.0
  0
LINE
  8
0
 62
     0
 10
270.509
 20
6.23563
 30
0.0
 11
271.498
 21
5.53833
 31
0.0
  0
LINE
  8
0
 62
     0
 10
271.498
 20
5.53833
 30
0.0
 11
272.667
 21
4.73908
 31
0.0
  0
LINE
  8
0
 62
     0
 10
272.667
 20
4.73908
 30
0.0
 11
274.046
 21
3.79374
 31
0.0
  0
LINE
  8
0
 62
     0
 10
274.046
 20
3.79374
 30
0.0
 11
275.467
 21
2.82084
 31
0.0
  0
LINE
  8
0
 62
     0
 10
275.467
 20
2.82084
 30
0.0
 11
276.756
 21
1.94028
 31
0.0
  0
LINE
  8
0
 62
     0
 10
276.756
 20
1.94028
 30
0.0
 11
277.964
 21
1.16169
 31
0.0
  0
LINE
  8
0
 62
     0
 10
277.964
 20
1.16169
 30
0.0
 11
279.051
 21
0.547081
 31
0.0
  0
LINE
  8
0
 62
     0
 10
279.051
 20
0.547081
 30
0.0
 11
279.935
 21
0.144694
 31
0.0
  0
LINE
  8
0
 62
     0
 10
279.935
 20
0.144694
 30
0.0
 11
280.53
 21
-0
 31
0.0
  0
LINE
  8
0
 62
     0
 10
280.53
 20
-0
 30
0.0
 11
281.614
 21
0.34451
 31
0.0
  0
LINE
  8
0
 62
     0
 10
281.614
 20
0.34451
 30
0.0
 11
282.964
 21
1.27055
 31
0.0
  0
LINE
  8
0
 62
     0
 10
282.964
 20
1.27055
 30
0.0
 11
283.825
 21
2.04363
 31
0.0
  0
LINE
  8
0
 62
     0
 10
283.825
 20
2.04363
 30
0.0
 11
285.182
 21
3.32796
 31
0.0
  0
LINE
  8
0
 62
     0
 10
285.182
 20
3.32796
 30
0.0
 11
286.959
 21
5.05051
 31
0.0
  0
LINE
  8
0
 62
     0
 10
286.959
 20
5.05051
 30
0.0
 11
289.078
 21
7.13274
 31
0.0
  0
LINE
  8
0
 62
     0
 10
289.078
 20
7.13274
 30
0.0
 11
291.465
 21
9.49745
 31
0.0
  0
LINE
  8
0
 62
     0
 10
291.465
 20
9.49745
 30
0.0
 11
294.043
 21
12.0702
 31
0.0
  0
LINE
  8
0
 62
     0
 10
294.043
 20
12.0702
 30
0.0
 11
296.737
 21
14.7712
 31
0.0
  0
LINE
  8
0
 62
     0
 10
296.737
 20
14.7712
 30
0.0
 11
299.47
 21
17.5245
 31
0.0
  0
LINE
  8
0
 62
     0
 10
299.47
 20
17.5245
 30
0.0
 11
302.165
 21
20.2558
 31
0.0
  0
LINE
  8
0
 62
     0
 10
302.165
 20
20.2558
 30
0.0
 11
304.748
 21
22.8851
 31
0.0
  0
LINE
  8
0
 62
     0
 10
304.748
 20
22.8851
 30
0.0
 11
307.143
 21
25.3366
 31
0.0
  0
LINE
  8
0
 62
     0
 10
307.143
 20
25.3366
 30
0.0
 11
309.272
 21
27.5346
 31
0.0
  0
LINE
  8
0
 62
     0
 10
309.272
 20
27.5346
 30
0.0
 11
311.06
 21
29.4004
 31
0.0
  0
LINE
  8
0
 62
     0
 10
311.06
 20
29.4004
 30
0.0
 11
312.432
 21
30.8598
 31
0.0
  0
LINE
  8
0
 62
     0
 10
312.432
 20
30.8598
 30
0.0
 11
313.311
 21
31.8327
 31
0.0
  0
LINE
  8
0
 62
     0
 10
313.311
 20
31.8327
 30
0.0
 11
313.621
 21
32.2447
 31
0.0
  0
LINE
  8
0
 62
     0
 10
313.621
 20
32.2447
 30
0.0
 11
313.731
 21
32.6457
 31
0.0
  0
LINE
  8
0
 62
     0
 10
313.731
 20
32.6457
 30
0.0
 11
313.974
 21
32.8083
 31
0.0
  0
LINE
  8
0
 62
     0
 10
313.974
 20
32.8083
 30
0.0
 11
314.318
 21
33.1322
 31
0.0
  0
LINE
  8
0
 62
     0
 10
314.318
 20
33.1322
 30
0.0
 11
314.273
 21
33.9604
 31
0.0
  0
LINE
  8
0
 62
     0
 10
314.273
 20
33.9604
 30
0.0
 11
313.883
 21
35.0862
 31
0.0
  0
LINE
  8
0
 62
     0
 10
313.883
 20
35.0862
 30
0.0
 11
313.196
 21
36.3015
 31
0.0
  0
LINE
  8
0
 62
     0
 10
313.196
 20
36.3015
 30
0.0
 11
312.616
 21
37.1256
 31
0.0
  0
LINE
  8
0
 62
     0
 10
312.616
 20
37.1256
 30
0.0
 11
311.887
 21
38.1758
 31
0.0
  0
LINE
  8
0
 62
     0
 10
311.887
 20
38.1758
 30
0.0
 11
311.098
 21
39.3129
 31
0.0
  0
LINE
  8
0
 62
     0
 10
311.098
 20
39.3129
 30
0.0
 11
310.34
 21
40.3931
 31
0.0
  0
LINE
  8
0
 62
     0
 10
310.34
 20
40.3931
 30
0.0
 11
309.594
 21
41.5025
 31
0.0
  0
LINE
  8
0
 62
     0
 10
309.594
 20
41.5025
 30
0.0
 11
308.801
 21
42.6738
 31
0.0
  0
LINE
  8
0
 62
     0
 10
308.801
 20
42.6738
 30
0.0
 11
308.052
 21
43.772
 31
0.0
  0
LINE
  8
0
 62
     0
 10
308.052
 20
43.772
 30
0.0
 11
307.447
 21
44.6624
 31
0.0
  0
LINE
  8
0
 62
     0
 10
307.447
 20
44.6624
 30
0.0
 11
306.939
 21
45.4187
 31
0.0
  0
LINE
  8
0
 62
     0
 10
306.939
 20
45.4187
 30
0.0
 11
306.454
 21
46.1049
 31
0.0
  0
LINE
  8
0
 62
     0
 10
306.454
 20
46.1049
 30
0.0
 11
306.043
 21
46.652
 31
0.0
  0
LINE
  8
0
 62
     0
 10
306.043
 20
46.652
 30
0.0
 11
305.754
 21
46.9896
 31
0.0
  0
LINE
  8
0
 62
     0
 10
305.754
 20
46.9896
 30
0.0
 11
305.482
 21
47.3082
 31
0.0
  0
LINE
  8
0
 62
     0
 10
305.482
 20
47.3082
 30
0.0
 11
305.122
 21
47.8374
 31
0.0
  0
LINE
  8
0
 62
     0
 10
305.122
 20
47.8374
 30
0.0
 11
304.716
 21
48.4988
 31
0.0
  0
LINE
  8
0
 62
     0
 10
304.716
 20
48.4988
 30
0.0
 11
304.307
 21
49.2125
 31
0.0
  0
LINE
  8
0
 62
     0
 10
304.307
 20
49.2125
 30
0.0
 11
303.88
 21
49.9607
 31
0.0
  0
LINE
  8
0
 62
     0
 10
303.88
 20
49.9607
 30
0.0
 11
303.429
 21
50.6734
 31
0.0
  0
LINE
  8
0
 62
     0
 10
303.429
 20
50.6734
 30
0.0
 11
303.011
 21
51.2727
 31
0.0
  0
LINE
  8
0
 62
     0
 10
303.011
 20
51.2727
 30
0.0
 11
302.685
 21
51.6819
 31
0.0
  0
LINE
  8
0
 62
     0
 10
302.685
 20
51.6819
 30
0.0
 11
302.222
 21
52.3035
 31
0.0
  0
LINE
  8
0
 62
     0
 10
302.222
 20
52.3035
 30
0.0
 11
301.392
 21
53.4734
 31
0.0
  0
LINE
  8
0
 62
     0
 10
301.392
 20
53.4734
 30
0.0
 11
300.317
 21
55.0263
 31
0.0
  0
LINE
  8
0
 62
     0
 10
300.317
 20
55.0263
 30
0.0
 11
299.121
 21
56.7972
 31
0.0
  0
LINE
  8
0
 62
     0
 10
299.121
 20
56.7972
 30
0.0
 11
297.959
 21
58.5265
 31
0.0
  0
LINE
  8
0
 62
     0
 10
297.959
 20
58.5265
 30
0.0
 11
296.981
 21
59.9641
 31
0.0
  0
LINE
  8
0
 62
     0
 10
296.981
 20
59.9641
 30
0.0
 11
296.288
 21
60.9646
 31
0.0
  0
LINE
  8
0
 62
     0
 10
296.288
 20
60.9646
 30
0.0
 11
295.982
 21
61.3833
 31
0.0
  0
LINE
  8
0
 62
     0
 10
295.982
 20
61.3833
 30
0.0
 11
295.836
 21
61.5678
 31
0.0
  0
LINE
  8
0
 62
     0
 10
295.836
 20
61.5678
 30
0.0
 11
295.584
 21
61.9263
 31
0.0
  0
LINE
  8
0
 62
     0
 10
295.584
 20
61.9263
 30
0.0
 11
295.267
 21
62.4113
 31
0.0
  0
LINE
  8
0
 62
     0
 10
295.267
 20
62.4113
 30
0.0
 11
294.924
 21
62.9708
 31
0.0
  0
LINE
  8
0
 62
     0
 10
294.924
 20
62.9708
 30
0.0
 11
294.045
 21
64.3117
 31
0.0
  0
LINE
  8
0
 62
     0
 10
294.045
 20
64.3117
 30
0.0
 11
293.088
 21
65.5465
 31
0.0
  0
LINE
  8
0
 62
     0
 10
293.088
 20
65.5465
 30
0.0
 11
292.396
 21
66.5081
 31
0.0
  0
LINE
  8
0
 62
     0
 10
292.396
 20
66.5081
 30
0.0
 11
292.101
 21
67.2042
 31
0.0
  0
LINE
  8
0
 62
     0
 10
292.101
 20
67.2042
 30
0.0
 11
291.963
 21
67.6465
 31
0.0
  0
LINE
  8
0
 62
     0
 10
291.963
 20
67.6465
 30
0.0
 11
291.642
 21
67.9799
 31
0.0
  0
LINE
  8
0
 62
     0
 10
291.642
 20
67.9799
 30
0.0
 11
290.963
 21
68.6072
 31
0.0
  0
LINE
  8
0
 62
     0
 10
290.963
 20
68.6072
 30
0.0
 11
290.478
 21
69.493
 31
0.0
  0
LINE
  8
0
 62
     0
 10
290.478
 20
69.493
 30
0.0
 11
290.204
 21
70.5859
 31
0.0
  0
LINE
  8
0
 62
     0
 10
290.204
 20
70.5859
 30
0.0
 11
290.161
 21
71.8263
 31
0.0
  0
LINE
  8
0
 62
     0
 10
290.161
 20
71.8263
 30
0.0
 11
290.3
 21
72.8183
 31
0.0
  0
LINE
  8
0
 62
     0
 10
290.3
 20
72.8183
 30
0.0
 11
290.641
 21
73.9165
 31
0.0
  0
LINE
  8
0
 62
     0
 10
290.641
 20
73.9165
 30
0.0
 11
291.226
 21
75.2394
 31
0.0
  0
LINE
  8
0
 62
     0
 10
291.226
 20
75.2394
 30
0.0
 11
292.101
 21
76.9056
 31
0.0
  0
LINE
  8
0
 62
     0
 10
292.101
 20
76.9056
 30
0.0
 11
292.874
 21
78.3276
 31
0.0
  0
LINE
  8
0
 62
     0
 10
292.874
 20
78.3276
 30
0.0
 11
293.609
 21
79.7334
 31
0.0
  0
LINE
  8
0
 62
     0
 10
293.609
 20
79.7334
 30
0.0
 11
294.224
 21
80.9597
 31
0.0
  0
LINE
  8
0
 62
     0
 10
294.224
 20
80.9597
 30
0.0
 11
294.641
 21
81.8444
 31
0.0
  0
LINE
  8
0
 62
     0
 10
294.641
 20
81.8444
 30
0.0
 11
295.323
 21
83.3836
 31
0.0
  0
LINE
  8
0
 62
     0
 10
295.323
 20
83.3836
 30
0.0
 11
295.982
 21
84.8431
 31
0.0
  0
LINE
  8
0
 62
     0
 10
295.982
 20
84.8431
 30
0.0
 11
296.322
 21
85.6273
 31
0.0
  0
LINE
  8
0
 62
     0
 10
296.322
 20
85.6273
 30
0.0
 11
296.774
 21
86.7174
 31
0.0
  0
LINE
  8
0
 62
     0
 10
296.774
 20
86.7174
 30
0.0
 11
297.28
 21
87.974
 31
0.0
  0
LINE
  8
0
 62
     0
 10
297.28
 20
87.974
 30
0.0
 11
297.78
 21
89.2528
 31
0.0
  0
LINE
  8
0
 62
     0
 10
297.78
 20
89.2528
 30
0.0
 11
298.261
 21
90.5083
 31
0.0
  0
LINE
  8
0
 62
     0
 10
298.261
 20
90.5083
 30
0.0
 11
298.724
 21
91.7014
 31
0.0
  0
LINE
  8
0
 62
     0
 10
298.724
 20
91.7014
 30
0.0
 11
299.12
 21
92.7019
 31
0.0
  0
LINE
  8
0
 62
     0
 10
299.12
 20
92.7019
 30
0.0
 11
299.404
 21
93.3799
 31
0.0
  0
LINE
  8
0
 62
     0
 10
299.404
 20
93.3799
 30
0.0
 11
299.725
 21
94.3116
 31
0.0
  0
LINE
  8
0
 62
     0
 10
299.725
 20
94.3116
 30
0.0
 11
299.863
 21
95.0034
 31
0.0
  0
LINE
  8
0
 62
     0
 10
299.863
 20
95.0034
 30
0.0
 11
300.021
 21
95.6702
 31
0.0
  0
LINE
  8
0
 62
     0
 10
300.021
 20
95.6702
 30
0.0
 11
300.392
 21
96.5207
 31
0.0
  0
LINE
  8
0
 62
     0
 10
300.392
 20
96.5207
 30
0.0
 11
300.761
 21
97.4729
 31
0.0
  0
LINE
  8
0
 62
     0
 10
300.761
 20
97.4729
 30
0.0
 11
300.921
 21
98.3188
 31
0.0
  0
LINE
  8
0
 62
     0
 10
300.921
 20
98.3188
 30
0.0
 11
301.061
 21
99.2106
 31
0.0
  0
LINE
  8
0
 62
     0
 10
301.061
 20
99.2106
 30
0.0
 11
301.414
 21
100.259
 31
0.0
  0
LINE
  8
0
 62
     0
 10
301.414
 20
100.259
 30
0.0
 11
301.665
 21
100.889
 31
0.0
  0
LINE
  8
0
 62
     0
 10
301.665
 20
100.889
 30
0.0
 11
301.97
 21
101.746
 31
0.0
  0
LINE
  8
0
 62
     0
 10
301.97
 20
101.746
 30
0.0
 11
302.286
 21
102.716
 31
0.0
  0
LINE
  8
0
 62
     0
 10
302.286
 20
102.716
 30
0.0
 11
302.579
 21
103.682
 31
0.0
  0
LINE
  8
0
 62
     0
 10
302.579
 20
103.682
 30
0.0
 11
302.902
 21
104.699
 31
0.0
  0
LINE
  8
0
 62
     0
 10
302.902
 20
104.699
 30
0.0
 11
303.258
 21
105.501
 31
0.0
  0
LINE
  8
0
 62
     0
 10
303.258
 20
105.501
 30
0.0
 11
303.716
 21
106.127
 31
0.0
  0
LINE
  8
0
 62
     0
 10
303.716
 20
106.127
 30
0.0
 11
304.341
 21
106.615
 31
0.0
  0
LINE
  8
0
 62
     0
 10
304.341
 20
106.615
 30
0.0
 11
305.206
 21
107.006
 31
0.0
  0
LINE
  8
0
 62
     0
 10
305.206
 20
107.006
 30
0.0
 11
306.378
 21
107.34
 31
0.0
  0
LINE
  8
0
 62
     0
 10
306.378
 20
107.34
 30
0.0
 11
307.925
 21
107.652
 31
0.0
  0
LINE
  8
0
 62
     0
 10
307.925
 20
107.652
 30
0.0
 11
309.917
 21
107.986
 31
0.0
  0
LINE
  8
0
 62
     0
 10
309.917
 20
107.986
 30
0.0
 11
311.715
 21
108.304
 31
0.0
  0
LINE
  8
0
 62
     0
 10
311.715
 20
108.304
 30
0.0
 11
313.092
 21
108.621
 31
0.0
  0
LINE
  8
0
 62
     0
 10
313.092
 20
108.621
 30
0.0
 11
315.848
 21
109.238
 31
0.0
  0
LINE
  8
0
 62
     0
 10
315.848
 20
109.238
 30
0.0
 11
320.853
 21
110.067
 31
0.0
  0
LINE
  8
0
 62
     0
 10
320.853
 20
110.067
 30
0.0
 11
321.753
 21
110.217
 31
0.0
  0
LINE
  8
0
 62
     0
 10
321.753
 20
110.217
 30
0.0
 11
322.641
 21
110.389
 31
0.0
  0
LINE
  8
0
 62
     0
 10
322.641
 20
110.389
 30
0.0
 11
323.41
 21
110.568
 31
0.0
  0
LINE
  8
0
 62
     0
 10
323.41
 20
110.568
 30
0.0
 11
323.956
 21
110.738
 31
0.0
  0
LINE
  8
0
 62
     0
 10
323.956
 20
110.738
 30
0.0
 11
325.045
 21
111.011
 31
0.0
  0
LINE
  8
0
 62
     0
 10
325.045
 20
111.011
 30
0.0
 11
326.215
 21
111.125
 31
0.0
  0
LINE
  8
0
 62
     0
 10
326.215
 20
111.125
 30
0.0
 11
326.869
 21
111.163
 31
0.0
  0
LINE
  8
0
 62
     0
 10
326.869
 20
111.163
 30
0.0
 11
327.704
 21
111.267
 31
0.0
  0
LINE
  8
0
 62
     0
 10
327.704
 20
111.267
 30
0.0
 11
328.605
 21
111.424
 31
0.0
  0
LINE
  8
0
 62
     0
 10
328.605
 20
111.424
 30
0.0
 11
329.46
 21
111.62
 31
0.0
  0
LINE
  8
0
 62
     0
 10
329.46
 20
111.62
 30
0.0
 11
333.353
 21
112.484
 31
0.0
  0
LINE
  8
0
 62
     0
 10
333.353
 20
112.484
 30
0.0
 11
337.856
 21
113.242
 31
0.0
  0
LINE
  8
0
 62
     0
 10
337.856
 20
113.242
 30
0.0
 11
338.773
 21
113.392
 31
0.0
  0
LINE
  8
0
 62
     0
 10
338.773
 20
113.392
 30
0.0
 11
339.611
 21
113.56
 31
0.0
  0
LINE
  8
0
 62
     0
 10
339.611
 20
113.56
 30
0.0
 11
340.276
 21
113.728
 31
0.0
  0
LINE
  8
0
 62
     0
 10
340.276
 20
113.728
 30
0.0
 11
340.679
 21
113.877
 31
0.0
  0
LINE
  8
0
 62
     0
 10
340.679
 20
113.877
 30
0.0
 11
341.111
 21
114.02
 31
0.0
  0
LINE
  8
0
 62
     0
 10
341.111
 20
114.02
 30
0.0
 11
341.82
 21
114.173
 31
0.0
  0
LINE
  8
0
 62
     0
 10
341.82
 20
114.173
 30
0.0
 11
342.707
 21
114.319
 31
0.0
  0
LINE
  8
0
 62
     0
 10
342.707
 20
114.319
 30
0.0
 11
343.677
 21
114.442
 31
0.0
  0
LINE
  8
0
 62
     0
 10
343.677
 20
114.442
 30
0.0
 11
344.661
 21
114.551
 31
0.0
  0
LINE
  8
0
 62
     0
 10
344.661
 20
114.551
 30
0.0
 11
345.634
 21
114.703
 31
0.0
  0
LINE
  8
0
 62
     0
 10
345.634
 20
114.703
 30
0.0
 11
346.475
 21
114.873
 31
0.0
  0
LINE
  8
0
 62
     0
 10
346.475
 20
114.873
 30
0.0
 11
347.063
 21
115.042
 31
0.0
  0
LINE
  8
0
 62
     0
 10
347.063
 20
115.042
 30
0.0
 11
347.814
 21
115.303
 31
0.0
  0
LINE
  8
0
 62
     0
 10
347.814
 20
115.303
 30
0.0
 11
348.372
 21
115.722
 31
0.0
  0
LINE
  8
0
 62
     0
 10
348.372
 20
115.722
 30
0.0
 11
348.762
 21
116.623
 31
0.0
  0
LINE
  8
0
 62
     0
 10
348.762
 20
116.623
 30
0.0
 11
349.017
 21
118.336
 31
0.0
  0
LINE
  8
0
 62
     0
 10
349.017
 20
118.336
 30
0.0
 11
349.163
 21
121.185
 31
0.0
  0
LINE
  8
0
 62
     0
 10
349.163
 20
121.185
 30
0.0
 11
349.231
 21
125.495
 31
0.0
  0
LINE
  8
0
 62
     0
 10
349.231
 20
125.495
 30
0.0
 11
349.251
 21
131.593
 31
0.0
  0
LINE
  8
0
 62
     0
 10
349.251
 20
131.593
 30
0.0
 11
349.251
 21
139.806
 31
0.0
  0
LINE
  8
0
 62
     0
 10
349.251
 20
139.806
 30
0.0
 11
349.249
 21
146.873
 31
0.0
  0
LINE
  8
0
 62
     0
 10
349.249
 20
146.873
 30
0.0
 11
349.236
 21
152.315
 31
0.0
  0
LINE
  8
0
 62
     0
 10
349.236
 20
152.315
 30
0.0
 11
349.21
 21
156.349
 31
0.0
  0
LINE
  8
0
 62
     0
 10
349.21
 20
156.349
 30
0.0
 11
349.162
 21
159.197
 31
0.0
  0
LINE
  8
0
 62
     0
 10
349.162
 20
159.197
 30
0.0
 11
349.089
 21
161.072
 31
0.0
  0
LINE
  8
0
 62
     0
 10
349.089
 20
161.072
 30
0.0
 11
348.983
 21
162.195
 31
0.0
  0
LINE
  8
0
 62
     0
 10
348.983
 20
162.195
 30
0.0
 11
348.838
 21
162.784
 31
0.0
  0
LINE
  8
0
 62
     0
 10
348.838
 20
162.784
 30
0.0
 11
348.651
 21
163.054
 31
0.0
  0
LINE
  8
0
 62
     0
 10
348.651
 20
163.054
 30
0.0
 11
347.799
 21
163.682
 31
0.0
  0
LINE
  8
0
 62
     0
 10
347.799
 20
163.682
 30
0.0
 11
346.843
 21
164.157
 31
0.0
  0
LINE
  8
0
 62
     0
 10
346.843
 20
164.157
 30
0.0
 11
345.713
 21
164.513
 31
0.0
  0
LINE
  8
0
 62
     0
 10
345.713
 20
164.513
 30
0.0
 11
344.347
 21
164.783
 31
0.0
  0
LINE
  8
0
 62
     0
 10
344.347
 20
164.783
 30
0.0
 11
342.907
 21
164.999
 31
0.0
  0
LINE
  8
0
 62
     0
 10
342.907
 20
164.999
 30
0.0
 11
341.344
 21
165.296
 31
0.0
  0
LINE
  8
0
 62
     0
 10
341.344
 20
165.296
 30
0.0
 11
339.51
 21
165.697
 31
0.0
  0
LINE
  8
0
 62
     0
 10
339.51
 20
165.697
 30
0.0
 11
337.257
 21
166.229
 31
0.0
  0
LINE
  8
0
 62
     0
 10
337.257
 20
166.229
 30
0.0
 11
336.456
 21
166.4
 31
0.0
  0
LINE
  8
0
 62
     0
 10
336.456
 20
166.4
 30
0.0
 11
335.461
 21
166.578
 31
0.0
  0
LINE
  8
0
 62
     0
 10
335.461
 20
166.578
 30
0.0
 11
334.393
 21
166.751
 31
0.0
  0
LINE
  8
0
 62
     0
 10
334.393
 20
166.751
 30
0.0
 11
333.376
 21
166.9
 31
0.0
  0
LINE
  8
0
 62
     0
 10
333.376
 20
166.9
 30
0.0
 11
329.605
 21
167.483
 31
0.0
  0
LINE
  8
0
 62
     0
 10
329.605
 20
167.483
 30
0.0
 11
325.015
 21
168.487
 31
0.0
  0
LINE
  8
0
 62
     0
 10
325.015
 20
168.487
 30
0.0
 11
324.073
 21
168.684
 31
0.0
  0
LINE
  8
0
 62
     0
 10
324.073
 20
168.684
 30
0.0
 11
323.123
 21
168.84
 31
0.0
  0
LINE
  8
0
 62
     0
 10
323.123
 20
168.84
 30
0.0
 11
322.271
 21
168.944
 31
0.0
  0
LINE
  8
0
 62
     0
 10
322.271
 20
168.944
 30
0.0
 11
321.629
 21
168.981
 31
0.0
  0
LINE
  8
0
 62
     0
 10
321.629
 20
168.981
 30
0.0
 11
321.036
 21
169.025
 31
0.0
  0
LINE
  8
0
 62
     0
 10
321.036
 20
169.025
 30
0.0
 11
320.282
 21
169.14
 31
0.0
  0
LINE
  8
0
 62
     0
 10
320.282
 20
169.14
 30
0.0
 11
319.469
 21
169.309
 31
0.0
  0
LINE
  8
0
 62
     0
 10
319.469
 20
169.309
 30
0.0
 11
318.7
 21
169.51
 31
0.0
  0
LINE
  8
0
 62
     0
 10
318.7
 20
169.51
 30
0.0
 11
317.085
 21
169.88
 31
0.0
  0
LINE
  8
0
 62
     0
 10
317.085
 20
169.88
 30
0.0
 11
315.631
 21
170.039
 31
0.0
  0
LINE
  8
0
 62
     0
 10
315.631
 20
170.039
 30
0.0
 11
314.311
 21
170.199
 31
0.0
  0
LINE
  8
0
 62
     0
 10
314.311
 20
170.199
 30
0.0
 11
313.02
 21
170.568
 31
0.0
  0
LINE
  8
0
 62
     0
 10
313.02
 20
170.568
 30
0.0
 11
311.715
 21
170.939
 31
0.0
  0
LINE
  8
0
 62
     0
 10
311.715
 20
170.939
 30
0.0
 11
310.304
 21
171.097
 31
0.0
  0
LINE
  8
0
 62
     0
 10
310.304
 20
171.097
 30
0.0
 11
308.875
 21
171.257
 31
0.0
  0
LINE
  8
0
 62
     0
 10
308.875
 20
171.257
 30
0.0
 11
307.447
 21
171.626
 31
0.0
  0
LINE
  8
0
 62
     0
 10
307.447
 20
171.626
 30
0.0
 11
306.155
 21
171.985
 31
0.0
  0
LINE
  8
0
 62
     0
 10
306.155
 20
171.985
 30
0.0
 11
305.048
 21
172.156
 31
0.0
  0
LINE
  8
0
 62
     0
 10
305.048
 20
172.156
 30
0.0
 11
304.068
 21
172.364
 31
0.0
  0
LINE
  8
0
 62
     0
 10
304.068
 20
172.364
 30
0.0
 11
303.142
 21
172.861
 31
0.0
  0
LINE
  8
0
 62
     0
 10
303.142
 20
172.861
 30
0.0
 11
302.349
 21
173.688
 31
0.0
  0
LINE
  8
0
 62
     0
 10
302.349
 20
173.688
 30
0.0
 11
301.635
 21
174.753
 31
0.0
  0
LINE
  8
0
 62
     0
 10
301.635
 20
174.753
 30
0.0
 11
301.118
 21
175.853
 31
0.0
  0
LINE
  8
0
 62
     0
 10
301.118
 20
175.853
 30
0.0
 11
300.921
 21
176.778
 31
0.0
  0
LINE
  8
0
 62
     0
 10
300.921
 20
176.778
 30
0.0
 11
300.783
 21
177.629
 31
0.0
  0
LINE
  8
0
 62
     0
 10
300.783
 20
177.629
 30
0.0
 11
300.462
 21
178.612
 31
0.0
  0
LINE
  8
0
 62
     0
 10
300.462
 20
178.612
 30
0.0
 11
300.215
 21
179.223
 31
0.0
  0
LINE
  8
0
 62
     0
 10
300.215
 20
179.223
 30
0.0
 11
299.923
 21
180.037
 31
0.0
  0
LINE
  8
0
 62
     0
 10
299.923
 20
180.037
 30
0.0
 11
299.619
 21
180.949
 31
0.0
  0
LINE
  8
0
 62
     0
 10
299.619
 20
180.949
 30
0.0
 11
299.333
 21
181.857
 31
0.0
  0
LINE
  8
0
 62
     0
 10
299.333
 20
181.857
 30
0.0
 11
299.004
 21
182.848
 31
0.0
  0
LINE
  8
0
 62
     0
 10
299.004
 20
182.848
 30
0.0
 11
298.582
 21
183.979
 31
0.0
  0
LINE
  8
0
 62
     0
 10
298.582
 20
183.979
 30
0.0
 11
298.122
 21
185.117
 31
0.0
  0
LINE
  8
0
 62
     0
 10
298.122
 20
185.117
 30
0.0
 11
297.674
 21
186.126
 31
0.0
  0
LINE
  8
0
 62
     0
 10
297.674
 20
186.126
 30
0.0
 11
297.296
 21
186.994
 31
0.0
  0
LINE
  8
0
 62
     0
 10
297.296
 20
186.994
 30
0.0
 11
296.982
 21
187.745
 31
0.0
  0
LINE
  8
0
 62
     0
 10
296.982
 20
187.745
 30
0.0
 11
296.766
 21
188.305
 31
0.0
  0
LINE
  8
0
 62
     0
 10
296.766
 20
188.305
 30
0.0
 11
296.688
 21
188.596
 31
0.0
  0
LINE
  8
0
 62
     0
 10
296.688
 20
188.596
 30
0.0
 11
296.601
 21
188.886
 31
0.0
  0
LINE
  8
0
 62
     0
 10
296.601
 20
188.886
 30
0.0
 11
296.369
 21
189.437
 31
0.0
  0
LINE
  8
0
 62
     0
 10
296.369
 20
189.437
 30
0.0
 11
296.032
 21
190.169
 31
0.0
  0
LINE
  8
0
 62
     0
 10
296.032
 20
190.169
 30
0.0
 11
295.629
 21
190.995
 31
0.0
  0
LINE
  8
0
 62
     0
 10
295.629
 20
190.995
 30
0.0
 11
295.21
 21
191.846
 31
0.0
  0
LINE
  8
0
 62
     0
 10
295.21
 20
191.846
 30
0.0
 11
294.874
 21
192.644
 31
0.0
  0
LINE
  8
0
 62
     0
 10
294.874
 20
192.644
 30
0.0
 11
294.651
 21
193.298
 31
0.0
  0
LINE
  8
0
 62
     0
 10
294.651
 20
193.298
 30
0.0
 11
294.571
 21
193.711
 31
0.0
  0
LINE
  8
0
 62
     0
 10
294.571
 20
193.711
 30
0.0
 11
294.433
 21
194.298
 31
0.0
  0
LINE
  8
0
 62
     0
 10
294.433
 20
194.298
 30
0.0
 11
294.112
 21
194.804
 31
0.0
  0
LINE
  8
0
 62
     0
 10
294.112
 20
194.804
 30
0.0
 11
293.854
 21
195.148
 31
0.0
  0
LINE
  8
0
 62
     0
 10
293.854
 20
195.148
 30
0.0
 11
293.485
 21
195.749
 31
0.0
  0
LINE
  8
0
 62
     0
 10
293.485
 20
195.749
 30
0.0
 11
293.049
 21
196.52
 31
0.0
  0
LINE
  8
0
 62
     0
 10
293.049
 20
196.52
 30
0.0
 11
292.595
 21
197.379
 31
0.0
  0
LINE
  8
0
 62
     0
 10
292.595
 20
197.379
 30
0.0
 11
292.041
 21
198.45
 31
0.0
  0
LINE
  8
0
 62
     0
 10
292.041
 20
198.45
 30
0.0
 11
291.338
 21
199.8
 31
0.0
  0
LINE
  8
0
 62
     0
 10
291.338
 20
199.8
 30
0.0
 11
290.575
 21
201.264
 31
0.0
  0
LINE
  8
0
 62
     0
 10
290.575
 20
201.264
 30
0.0
 11
289.843
 21
202.671
 31
0.0
  0
LINE
  8
0
 62
     0
 10
289.843
 20
202.671
 30
0.0
 11
289.201
 21
203.879
 31
0.0
  0
LINE
  8
0
 62
     0
 10
289.201
 20
203.879
 30
0.0
 11
288.756
 21
204.795
 31
0.0
  0
LINE
  8
0
 62
     0
 10
288.756
 20
204.795
 30
0.0
 11
288.546
 21
205.567
 31
0.0
  0
LINE
  8
0
 62
     0
 10
288.546
 20
205.567
 30
0.0
 11
288.612
 21
206.345
 31
0.0
  0
LINE
  8
0
 62
     0
 10
288.612
 20
206.345
 30
0.0
 11
288.99
 21
207.278
 31
0.0
  0
LINE
  8
0
 62
     0
 10
288.99
 20
207.278
 30
0.0
 11
289.719
 21
208.511
 31
0.0
  0
LINE
  8
0
 62
     0
 10
289.719
 20
208.511
 30
0.0
 11
290.836
 21
210.195
 31
0.0
  0
LINE
  8
0
 62
     0
 10
290.836
 20
210.195
 30
0.0
 11
292.383
 21
212.478
 31
0.0
  0
LINE
  8
0
 62
     0
 10
292.383
 20
212.478
 30
0.0
 11
293.634
 21
214.395
 31
0.0
  0
LINE
  8
0
 62
     0
 10
293.634
 20
214.395
 30
0.0
 11
294.667
 21
216.011
 31
0.0
  0
LINE
  8
0
 62
     0
 10
294.667
 20
216.011
 30
0.0
 11
295.369
 21
217.157
 31
0.0
  0
LINE
  8
0
 62
     0
 10
295.369
 20
217.157
 30
0.0
 11
295.629
 21
217.664
 31
0.0
  0
LINE
  8
0
 62
     0
 10
295.629
 20
217.664
 30
0.0
 11
295.716
 21
217.92
 31
0.0
  0
LINE
  8
0
 62
     0
 10
295.716
 20
217.92
 30
0.0
 11
295.91
 21
218.017
 31
0.0
  0
LINE
  8
0
 62
     0
 10
295.91
 20
218.017
 30
0.0
 11
296.253
 21
218.251
 31
0.0
  0
LINE
  8
0
 62
     0
 10
296.253
 20
218.251
 30
0.0
 11
296.652
 21
218.828
 31
0.0
  0
LINE
  8
0
 62
     0
 10
296.652
 20
218.828
 30
0.0
 11
296.887
 21
219.24
 31
0.0
  0
LINE
  8
0
 62
     0
 10
296.887
 20
219.24
 30
0.0
 11
297.247
 21
219.79
 31
0.0
  0
LINE
  8
0
 62
     0
 10
297.247
 20
219.79
 30
0.0
 11
297.678
 21
220.406
 31
0.0
  0
LINE
  8
0
 62
     0
 10
297.678
 20
220.406
 30
0.0
 11
298.133
 21
221.015
 31
0.0
  0
LINE
  8
0
 62
     0
 10
298.133
 20
221.015
 30
0.0
 11
298.66
 21
221.743
 31
0.0
  0
LINE
  8
0
 62
     0
 10
298.66
 20
221.743
 30
0.0
 11
299.332
 21
222.683
 31
0.0
  0
LINE
  8
0
 62
     0
 10
299.332
 20
222.683
 30
0.0
 11
300.058
 21
223.715
 31
0.0
  0
LINE
  8
0
 62
     0
 10
300.058
 20
223.715
 30
0.0
 11
300.744
 21
224.719
 31
0.0
  0
LINE
  8
0
 62
     0
 10
300.744
 20
224.719
 30
0.0
 11
301.475
 21
225.775
 31
0.0
  0
LINE
  8
0
 62
     0
 10
301.475
 20
225.775
 30
0.0
 11
302.282
 21
226.944
 31
0.0
  0
LINE
  8
0
 62
     0
 10
302.282
 20
226.944
 30
0.0
 11
303.071
 21
228.085
 31
0.0
  0
LINE
  8
0
 62
     0
 10
303.071
 20
228.085
 30
0.0
 11
303.743
 21
229.059
 31
0.0
  0
LINE
  8
0
 62
     0
 10
303.743
 20
229.059
 30
0.0
 11
304.29
 21
229.868
 31
0.0
  0
LINE
  8
0
 62
     0
 10
304.29
 20
229.868
 30
0.0
 11
304.739
 21
230.554
 31
0.0
  0
LINE
  8
0
 62
     0
 10
304.739
 20
230.554
 30
0.0
 11
305.043
 21
231.049
 31
0.0
  0
LINE
  8
0
 62
     0
 10
305.043
 20
231.049
 30
0.0
 11
305.154
 21
231.282
 31
0.0
  0
LINE
  8
0
 62
     0
 10
305.154
 20
231.282
 30
0.0
 11
305.264
 21
231.53
 31
0.0
  0
LINE
  8
0
 62
     0
 10
305.264
 20
231.53
 30
0.0
 11
305.507
 21
231.881
 31
0.0
  0
LINE
  8
0
 62
     0
 10
305.507
 20
231.881
 30
0.0
 11
306.416
 21
233.063
 31
0.0
  0
LINE
  8
0
 62
     0
 10
306.416
 20
233.063
 30
0.0
 11
307.632
 21
234.771
 31
0.0
  0
LINE
  8
0
 62
     0
 10
307.632
 20
234.771
 30
0.0
 11
308.78
 21
236.472
 31
0.0
  0
LINE
  8
0
 62
     0
 10
308.78
 20
236.472
 30
0.0
 11
309.492
 21
237.632
 31
0.0
  0
LINE
  8
0
 62
     0
 10
309.492
 20
237.632
 30
0.0
 11
310.074
 21
238.558
 31
0.0
  0
LINE
  8
0
 62
     0
 10
310.074
 20
238.558
 30
0.0
 11
310.763
 21
239.325
 31
0.0
  0
LINE
  8
0
 62
     0
 10
310.763
 20
239.325
 30
0.0
 11
311.292
 21
239.925
 31
0.0
  0
LINE
  8
0
 62
     0
 10
311.292
 20
239.925
 30
0.0
 11
311.504
 21
240.418
 31
0.0
  0
LINE
  8
0
 62
     0
 10
311.504
 20
240.418
 30
0.0
 11
311.711
 21
240.909
 31
0.0
  0
LINE
  8
0
 62
     0
 10
311.711
 20
240.909
 30
0.0
 11
312.21
 21
241.476
 31
0.0
  0
LINE
  8
0
 62
     0
 10
312.21
 20
241.476
 30
0.0
 11
312.897
 21
242.346
 31
0.0
  0
LINE
  8
0
 62
     0
 10
312.897
 20
242.346
 30
0.0
 11
313.585
 21
243.611
 31
0.0
  0
LINE
  8
0
 62
     0
 10
313.585
 20
243.611
 30
0.0
 11
314.114
 21
244.93
 31
0.0
  0
LINE
  8
0
 62
     0
 10
314.114
 20
244.93
 30
0.0
 11
314.326
 21
245.956
 31
0.0
  0
LINE
  8
0
 62
     0
 10
314.326
 20
245.956
 30
0.0
 11
313.83
 21
246.647
 31
0.0
  0
LINE
  8
0
 62
     0
 10
313.83
 20
246.647
 30
0.0
 11
312.443
 21
248.216
 31
0.0
  0
LINE
  8
0
 62
     0
 10
312.443
 20
248.216
 30
0.0
 11
310.314
 21
250.508
 31
0.0
  0
LINE
  8
0
 62
     0
 10
310.314
 20
250.508
 30
0.0
 11
307.592
 21
253.366
 31
0.0
  0
LINE
  8
0
 62
     0
 10
307.592
 20
253.366
 30
0.0
 11
304.429
 21
256.633
 31
0.0
  0
LINE
  8
0
 62
     0
 10
304.429
 20
256.633
 30
0.0
 11
300.976
 21
260.156
 31
0.0
  0
LINE
  8
0
 62
     0
 10
300.976
 20
260.156
 30
0.0
 11
297.379
 21
263.776
 31
0.0
  0
LINE
  8
0
 62
     0
 10
297.379
 20
263.776
 30
0.0
 11
293.794
 21
267.335
 31
0.0
  0
LINE
  8
0
 62
     0
 10
293.794
 20
267.335
 30
0.0
 11
292.989
 21
268.134
 31
0.0
  0
LINE
  8
0
 62
     0
 10
292.989
 20
268.134
 30
0.0
 11
291.509
 21
269.598
 31
0.0
  0
LINE
  8
0
 62
     0
 10
291.509
 20
269.598
 30
0.0
 11
289.566
 21
271.518
 31
0.0
  0
LINE
  8
0
 62
     0
 10
289.566
 20
271.518
 30
0.0
 11
287.373
 21
273.685
 31
0.0
  0
LINE
  8
0
 62
     0
 10
287.373
 20
273.685
 30
0.0
 11
285.655
 21
275.375
 31
0.0
  0
LINE
  8
0
 62
     0
 10
285.655
 20
275.375
 30
0.0
 11
284.319
 21
276.666
 31
0.0
  0
LINE
  8
0
 62
     0
 10
284.319
 20
276.666
 30
0.0
 11
283.3
 21
277.614
 31
0.0
  0
LINE
  8
0
 62
     0
 10
283.3
 20
277.614
 30
0.0
 11
282.527
 21
278.271
 31
0.0
  0
LINE
  8
0
 62
     0
 10
282.527
 20
278.271
 30
0.0
 11
281.934
 21
278.69
 31
0.0
  0
LINE
  8
0
 62
     0
 10
281.934
 20
278.69
 30
0.0
 11
281.455
 21
278.924
 31
0.0
  0
LINE
  8
0
 62
     0
 10
281.455
 20
278.924
 30
0.0
 11
281.021
 21
279.025
 31
0.0
  0
LINE
  8
0
 62
     0
 10
281.021
 20
279.025
 30
0.0
 11
280.565
 21
279.047
 31
0.0
  0
LINE
  8
0
 62
     0
 10
280.565
 20
279.047
 30
0.0
 11
279.774
 21
278.97
 31
0.0
  0
LINE
  8
0
 62
     0
 10
279.774
 20
278.97
 30
0.0
 11
278.947
 21
278.686
 31
0.0
  0
LINE
  8
0
 62
     0
 10
278.947
 20
278.686
 30
0.0
 11
277.939
 21
278.125
 31
0.0
  0
LINE
  8
0
 62
     0
 10
277.939
 20
278.125
 30
0.0
 11
276.614
 21
277.213
 31
0.0
  0
LINE
  8
0
 62
     0
 10
276.614
 20
277.213
 30
0.0
 11
274.563
 21
275.74
 31
0.0
  0
LINE
  8
0
 62
     0
 10
274.563
 20
275.74
 30
0.0
 11
272.898
 21
274.549
 31
0.0
  0
LINE
  8
0
 62
     0
 10
272.898
 20
274.549
 30
0.0
 11
271.56
 21
273.601
 31
0.0
  0
LINE
  8
0
 62
     0
 10
271.56
 20
273.601
 30
0.0
 11
270.492
 21
272.857
 31
0.0
  0
LINE
  8
0
 62
     0
 10
270.492
 20
272.857
 30
0.0
 11
269.637
 21
272.278
 31
0.0
  0
LINE
  8
0
 62
     0
 10
269.637
 20
272.278
 30
0.0
 11
268.934
 21
271.826
 31
0.0
  0
LINE
  8
0
 62
     0
 10
268.934
 20
271.826
 30
0.0
 11
268.327
 21
271.463
 31
0.0
  0
LINE
  8
0
 62
     0
 10
268.327
 20
271.463
 30
0.0
 11
267.76
 21
271.146
 31
0.0
  0
LINE
  8
0
 62
     0
 10
267.76
 20
271.146
 30
0.0
 11
267.046
 21
270.713
 31
0.0
  0
LINE
  8
0
 62
     0
 10
267.046
 20
270.713
 30
0.0
 11
266.287
 21
270.197
 31
0.0
  0
LINE
  8
0
 62
     0
 10
266.287
 20
270.197
 30
0.0
 11
265.566
 21
269.663
 31
0.0
  0
LINE
  8
0
 62
     0
 10
265.566
 20
269.663
 30
0.0
 11
264.972
 21
269.169
 31
0.0
  0
LINE
  8
0
 62
     0
 10
264.972
 20
269.169
 30
0.0
 11
264.497
 21
268.767
 31
0.0
  0
LINE
  8
0
 62
     0
 10
264.497
 20
268.767
 30
0.0
 11
264.058
 21
268.429
 31
0.0
  0
LINE
  8
0
 62
     0
 10
264.058
 20
268.429
 30
0.0
 11
263.707
 21
268.198
 31
0.0
  0
LINE
  8
0
 62
     0
 10
263.707
 20
268.198
 30
0.0
 11
263.49
 21
268.111
 31
0.0
  0
LINE
  8
0
 62
     0
 10
263.49
 20
268.111
 30
0.0
 11
263.065
 21
267.877
 31
0.0
  0
LINE
  8
0
 62
     0
 10
263.065
 20
267.877
 30
0.0
 11
262.081
 21
267.244
 31
0.0
  0
LINE
  8
0
 62
     0
 10
262.081
 20
267.244
 30
0.0
 11
260.697
 21
266.323
 31
0.0
  0
LINE
  8
0
 62
     0
 10
260.697
 20
266.323
 30
0.0
 11
259.071
 21
265.219
 31
0.0
  0
LINE
  8
0
 62
     0
 10
259.071
 20
265.219
 30
0.0
 11
257.362
 21
264.043
 31
0.0
  0
LINE
  8
0
 62
     0
 10
257.362
 20
264.043
 30
0.0
 11
255.731
 21
262.902
 31
0.0
  0
LINE
  8
0
 62
     0
 10
255.731
 20
262.902
 30
0.0
 11
254.333
 21
261.906
 31
0.0
  0
LINE
  8
0
 62
     0
 10
254.333
 20
261.906
 30
0.0
 11
253.33
 21
261.162
 31
0.0
  0
LINE
  8
0
 62
     0
 10
253.33
 20
261.162
 30
0.0
 11
252.505
 21
260.554
 31
0.0
  0
LINE
  8
0
 62
     0
 10
252.505
 20
260.554
 30
0.0
 11
251.708
 21
259.997
 31
0.0
  0
LINE
  8
0
 62
     0
 10
251.708
 20
259.997
 30
0.0
 11
251.022
 21
259.548
 31
0.0
  0
LINE
  8
0
 62
     0
 10
251.022
 20
259.548
 30
0.0
 11
249.771
 21
258.706
 31
0.0
  0
LINE
  8
0
 62
     0
 10
249.771
 20
258.706
 30
0.0
 11
248.129
 21
257.593
 31
0.0
  0
LINE
  8
0
 62
     0
 10
248.129
 20
257.593
 30
0.0
 11
246.275
 21
256.329
 31
0.0
  0
LINE
  8
0
 62
     0
 10
246.275
 20
256.329
 30
0.0
 11
241.654
 21
253.188
 31
0.0
  0
LINE
  8
0
 62
     0
 10
241.654
 20
253.188
 30
0.0
 11
239.678
 21
253.401
 31
0.0
  0
LINE
  8
0
 62
     0
 10
239.678
 20
253.401
 30
0.0
 11
238.864
 21
253.516
 31
0.0
  0
LINE
  8
0
 62
     0
 10
238.864
 20
253.516
 30
0.0
 11
238.111
 21
253.687
 31
0.0
  0
LINE
  8
0
 62
     0
 10
238.111
 20
253.687
 30
0.0
 11
237.5
 21
253.892
 31
0.0
  0
LINE
  8
0
 62
     0
 10
237.5
 20
253.892
 30
0.0
 11
237.103
 21
254.106
 31
0.0
  0
LINE
  8
0
 62
     0
 10
237.103
 20
254.106
 30
0.0
 11
235.982
 21
254.781
 31
0.0
  0
LINE
  8
0
 62
     0
 10
235.982
 20
254.781
 30
0.0
 11
233.747
 21
255.928
 31
0.0
  0
LINE
  8
0
 62
     0
 10
233.747
 20
255.928
 30
0.0
 11
230.976
 21
257.267
 31
0.0
  0
LINE
  8
0
 62
     0
 10
230.976
 20
257.267
 30
0.0
 11
228.249
 21
258.516
 31
0.0
  0
LINE
  8
0
 62
     0
 10
228.249
 20
258.516
 30
0.0
 11
227.101
 21
259.029
 31
0.0
  0
LINE
  8
0
 62
     0
 10
227.101
 20
259.029
 30
0.0
 11
226.06
 21
259.538
 31
0.0
  0
LINE
  8
0
 62
     0
 10
226.06
 20
259.538
 30
0.0
 11
225.275
 21
259.861
 31
0.0
  0
LINE
  8
0
 62
     0
 10
225.275
 20
259.861
 30
0.0
 11
224.649
 21
259.997
 31
0.0
  0
LINE
  8
0
 62
     0
 10
224.649
 20
259.997
 30
0.0
 11
224.299
 21
260.072
 31
0.0
  0
LINE
  8
0
 62
     0
 10
224.299
 20
260.072
 30
0.0
 11
223.723
 21
260.271
 31
0.0
  0
LINE
  8
0
 62
     0
 10
223.723
 20
260.271
 30
0.0
 11
223.002
 21
260.563
 31
0.0
  0
LINE
  8
0
 62
     0
 10
223.002
 20
260.563
 30
0.0
 11
222.215
 21
260.915
 31
0.0
  0
LINE
  8
0
 62
     0
 10
222.215
 20
260.915
 30
0.0
 11
221.39
 21
261.306
 31
0.0
  0
LINE
  8
0
 62
     0
 10
221.39
 20
261.306
 30
0.0
 11
220.562
 21
261.665
 31
0.0
  0
LINE
  8
0
 62
     0
 10
220.562
 20
261.665
 30
0.0
 11
219.819
 21
261.957
 31
0.0
  0
LINE
  8
0
 62
     0
 10
219.819
 20
261.957
 30
0.0
 11
219.253
 21
262.15
 31
0.0
  0
LINE
  8
0
 62
     0
 10
219.253
 20
262.15
 30
0.0
 11
218.656
 21
262.322
 31
0.0
  0
LINE
  8
0
 62
     0
 10
218.656
 20
262.322
 30
0.0
 11
217.796
 21
262.6
 31
0.0
  0
LINE
  8
0
 62
     0
 10
217.796
 20
262.6
 30
0.0
 11
216.79
 21
262.944
 31
0.0
  0
LINE
  8
0
 62
     0
 10
216.79
 20
262.944
 30
0.0
 11
215.76
 21
263.314
 31
0.0
  0
LINE
  8
0
 62
     0
 10
215.76
 20
263.314
 30
0.0
 11
214.751
 21
263.665
 31
0.0
  0
LINE
  8
0
 62
     0
 10
214.751
 20
263.665
 30
0.0
 11
213.809
 21
263.958
 31
0.0
  0
LINE
  8
0
 62
     0
 10
213.809
 20
263.958
 30
0.0
 11
213.041
 21
264.158
 31
0.0
  0
LINE
  8
0
 62
     0
 10
213.041
 20
264.158
 30
0.0
 11
212.55
 21
264.231
 31
0.0
  0
LINE
  8
0
 62
     0
 10
212.55
 20
264.231
 30
0.0
 11
211.826
 21
264.39
 31
0.0
  0
LINE
  8
0
 62
     0
 10
211.826
 20
264.39
 30
0.0
 11
211.103
 21
264.76
 31
0.0
  0
LINE
  8
0
 62
     0
 10
211.103
 20
264.76
 30
0.0
 11
210.476
 21
265.131
 31
0.0
  0
LINE
  8
0
 62
     0
 10
210.476
 20
265.131
 30
0.0
 11
209.904
 21
265.289
 31
0.0
  0
LINE
  8
0
 62
     0
 10
209.904
 20
265.289
 30
0.0
 11
208.817
 21
265.883
 31
0.0
  0
LINE
  8
0
 62
     0
 10
208.817
 20
265.883
 30
0.0
 11
207.8
 21
267.357
 31
0.0
  0
LINE
  8
0
 62
     0
 10
207.8
 20
267.357
 30
0.0
 11
207.041
 21
269.343
 31
0.0
  0
LINE
  8
0
 62
     0
 10
207.041
 20
269.343
 30
0.0
 11
206.729
 21
271.463
 31
0.0
  0
LINE
  8
0
 62
     0
 10
206.729
 20
271.463
 30
0.0
 11
206.556
 21
272.874
 31
0.0
  0
LINE
  8
0
 62
     0
 10
206.556
 20
272.874
 30
0.0
 11
206.2
 21
274.285
 31
0.0
  0
LINE
  8
0
 62
     0
 10
206.2
 20
274.285
 30
0.0
 11
205.829
 21
275.763
 31
0.0
  0
LINE
  8
0
 62
     0
 10
205.829
 20
275.763
 30
0.0
 11
205.671
 21
277.319
 31
0.0
  0
LINE
  8
0
 62
     0
 10
205.671
 20
277.319
 30
0.0
 11
205.529
 21
278.995
 31
0.0
  0
LINE
  8
0
 62
     0
 10
205.529
 20
278.995
 30
0.0
 11
205.176
 21
280.671
 31
0.0
  0
LINE
  8
0
 62
     0
 10
205.176
 20
280.671
 30
0.0
 11
204.276
 21
284.481
 31
0.0
  0
LINE
  8
0
 62
     0
 10
204.276
 20
284.481
 30
0.0
 11
203.589
 21
288.925
 31
0.0
  0
LINE
  8
0
 62
     0
 10
203.589
 20
288.925
 30
0.0
 11
203.454
 21
289.881
 31
0.0
  0
LINE
  8
0
 62
     0
 10
203.454
 20
289.881
 30
0.0
 11
203.28
 21
290.779
 31
0.0
  0
LINE
  8
0
 62
     0
 10
203.28
 20
290.779
 30
0.0
 11
203.092
 21
291.516
 31
0.0
  0
LINE
  8
0
 62
     0
 10
203.092
 20
291.516
 30
0.0
 11
202.919
 21
291.994
 31
0.0
  0
LINE
  8
0
 62
     0
 10
202.919
 20
291.994
 30
0.0
 11
202.614
 21
293.001
 31
0.0
  0
LINE
  8
0
 62
     0
 10
202.614
 20
293.001
 30
0.0
 11
202.496
 21
294.323
 31
0.0
  0
LINE
  8
0
 62
     0
 10
202.496
 20
294.323
 30
0.0
 11
202.336
 21
295.884
 31
0.0
  0
LINE
  8
0
 62
     0
 10
202.336
 20
295.884
 30
0.0
 11
201.967
 21
297.392
 31
0.0
  0
LINE
  8
0
 62
     0
 10
201.967
 20
297.392
 30
0.0
 11
201.596
 21
298.781
 31
0.0
  0
LINE
  8
0
 62
     0
 10
201.596
 20
298.781
 30
0.0
 11
201.438
 21
300.038
 31
0.0
  0
LINE
  8
0
 62
     0
 10
201.438
 20
300.038
 30
0.0
 11
201.252
 21
301.65
 31
0.0
  0
LINE
  8
0
 62
     0
 10
201.252
 20
301.65
 30
0.0
 11
200.797
 21
304.196
 31
0.0
  0
LINE
  8
0
 62
     0
 10
200.797
 20
304.196
 30
0.0
 11
200.23
 21
306.87
 31
0.0
  0
LINE
  8
0
 62
     0
 10
200.23
 20
306.87
 30
0.0
 11
199.708
 21
308.857
 31
0.0
  0
LINE
  8
0
 62
     0
 10
199.708
 20
308.857
 30
0.0
 11
199.412
 21
310.097
 31
0.0
  0
LINE
  8
0
 62
     0
 10
199.412
 20
310.097
 30
0.0
 11
199.144
 21
311.573
 31
0.0
  0
LINE
  8
0
 62
     0
 10
199.144
 20
311.573
 30
0.0
 11
198.821
 21
312.928
 31
0.0
  0
LINE
  8
0
 62
     0
 10
198.821
 20
312.928
 30
0.0
 11
198.263
 21
313.619
 31
0.0
  0
LINE
  8
0
 62
     0
 10
198.263
 20
313.619
 30
0.0
 11
197.564
 21
313.719
 31
0.0
  0
LINE
  8
0
 62
     0
 10
197.564
 20
313.719
 30
0.0
 11
195.953
 21
313.803
 31
0.0
  0
LINE
  8
0
 62
     0
 10
195.953
 20
313.803
 30
0.0
 11
193.559
 21
313.872
 31
0.0
  0
LINE
  8
0
 62
     0
 10
193.559
 20
313.872
 30
0.0
 11
190.517
 21
313.927
 31
0.0
  0
LINE
  8
0
 62
     0
 10
190.517
 20
313.927
 30
0.0
 11
186.953
 21
313.968
 31
0.0
  0
LINE
  8
0
 62
     0
 10
186.953
 20
313.968
 30
0.0
 11
183.001
 21
313.995
 31
0.0
  0
LINE
  8
0
 62
     0
 10
183.001
 20
313.995
 30
0.0
 11
178.791
 21
314.008
 31
0.0
  0
LINE
  8
0
 62
     0
 10
178.791
 20
314.008
 30
0.0
 11
174.453
 21
314.008
 31
0.0
  0
LINE
  8
0
 62
     0
 10
174.453
 20
314.008
 30
0.0
 11
170.12
 21
313.995
 31
0.0
  0
LINE
  8
0
 62
     0
 10
170.12
 20
313.995
 30
0.0
 11
165.92
 21
313.969
 31
0.0
  0
LINE
  8
0
 62
     0
 10
165.92
 20
313.969
 30
0.0
 11
161.987
 21
313.931
 31
0.0
  0
LINE
  8
0
 62
     0
 10
161.987
 20
313.931
 30
0.0
 11
158.449
 21
313.878
 31
0.0
  0
LINE
  8
0
 62
     0
 10
158.449
 20
313.878
 30
0.0
 11
155.44
 21
313.815
 31
0.0
  0
LINE
  8
0
 62
     0
 10
155.44
 20
313.815
 30
0.0
 11
153.088
 21
313.738
 31
0.0
  0
LINE
  8
0
 62
     0
 10
153.088
 20
313.738
 30
0.0
 11
151.526
 21
313.65
 31
0.0
  0
LINE
  8
0
 62
     0
 10
151.526
 20
313.65
 30
0.0
 11
150.884
 21
313.549
 31
0.0
  0
ENDSEC
  0
EOF
