<?xml version="1.0" standalone="no"?>
<!DOCTYPE svg PUBLIC "-//W3C//DTD SVG 20010904//EN"
 "http://www.w3.org/TR/2001/REC-SVG-20010904/DTD/svg10.dtd">
<svg version="1.0" xmlns="http://www.w3.org/2000/svg"
 width="1000.000000pt" height="967.000000pt" viewBox="0 0 1000.000000 967.000000"
 preserveAspectRatio="xMidYMid meet">
<metadata>
Created by potrace 1.11, written by Peter Selinger 2001-2013
</metadata>
<g transform="translate(0.000000,967.000000) scale(0.100000,-0.100000)"
fill="#000000" stroke="none">
<path d="M4655 9649 c-419 -31 -832 -114 -1235 -249 -609 -203 -1171 -520
-1660 -936 -161 -137 -455 -434 -588 -594 -443 -533 -777 -1163 -966 -1825
-246 -863 -258 -1752 -36 -2613 312 -1205 1057 -2248 2092 -2926 189 -124 343
-210 573 -322 262 -127 414 -186 472 -182 l45 3 590 1535 c324 844 590 1545
591 1558 2 21 -10 28 -103 66 -256 104 -422 216 -602 404 -208 220 -340 471
-410 783 -20 92 -23 129 -23 324 1 245 12 319 79 520 230 688 915 1138 1647
1084 657 -49 1227 -501 1418 -1124 58 -190 66 -250 66 -485 0 -189 -3 -228
-23 -319 -50 -222 -134 -418 -254 -594 -110 -160 -301 -343 -470 -450 -80 -51
-165 -93 -288 -143 -93 -38 -105 -45 -103 -66 1 -13 267 -714 591 -1558 l590
-1535 44 -3 c33 -2 70 7 144 36 520 206 993 492 1424 864 907 782 1505 1874
1675 3058 40 278 49 414 49 710 0 300 -9 434 -50 720 -135 948 -556 1857
-1197 2585 -861 979 -2098 1585 -3415 1675 -174 11 -504 11 -667 -1z"/>
</g>
</svg>
