<?xml version="1.0" standalone="no"?>
<!DOCTYPE svg PUBLIC "-//W3C//DTD SVG 20010904//EN"
 "http://www.w3.org/TR/2001/REC-SVG-20010904/DTD/svg10.dtd">
<svg version="1.0" xmlns="http://www.w3.org/2000/svg"
 width="1200.000000pt" height="900.000000pt" viewBox="0 0 1200.000000 900.000000"
 preserveAspectRatio="xMidYMid meet">
<metadata>
Created by potrace 1.11, written by Peter Selinger 2001-2013
</metadata>
<g transform="translate(0.000000,900.000000) scale(0.100000,-0.100000)"
fill="#000000" stroke="none">
<path d="M5327 8938 c-9 -8 -20 -39 -26 -75 -5 -34 -15 -71 -20 -82 -6 -11
-11 -31 -11 -44 0 -14 -7 -38 -15 -53 -8 -17 -15 -55 -15 -90 0 -34 -7 -81
-15 -104 -8 -23 -15 -66 -15 -94 0 -29 -4 -56 -9 -61 -10 -10 -25 -82 -43
-200 -5 -38 -16 -92 -24 -119 -8 -26 -14 -70 -14 -96 0 -26 -7 -61 -15 -76 -8
-16 -15 -48 -15 -71 0 -23 -4 -53 -9 -66 -5 -13 -12 -39 -14 -57 -6 -36 -42
-80 -66 -80 -9 0 -25 -7 -35 -15 -11 -8 -30 -15 -41 -15 -12 0 -53 -12 -91
-26 -38 -14 -82 -29 -99 -33 -16 -5 -54 -20 -84 -35 -30 -14 -61 -26 -69 -26
-8 0 -26 -6 -40 -13 -15 -8 -43 -21 -62 -29 -95 -42 -237 -112 -251 -125 -10
-8 -42 -17 -73 -20 l-56 -6 -131 89 c-72 49 -141 96 -154 104 -12 8 -33 23
-46 33 -56 43 -281 197 -288 197 -4 0 -25 15 -45 33 -21 17 -57 43 -81 57 -55
31 -138 88 -235 159 -66 49 -81 56 -122 56 l-46 0 -151 -150 c-82 -82 -200
-199 -260 -260 -61 -60 -115 -114 -121 -120 -7 -5 -28 -28 -48 -49 -20 -21
-103 -106 -184 -188 -181 -183 -179 -173 -76 -314 13 -17 44 -62 70 -100 70
-105 102 -149 111 -152 4 -2 7 -8 7 -13 0 -8 67 -116 80 -129 3 -3 14 -18 26
-35 88 -129 118 -171 124 -175 3 -3 24 -34 45 -70 21 -36 49 -78 62 -95 32
-41 108 -156 127 -193 16 -30 15 -33 -18 -95 -19 -34 -54 -101 -78 -147 -23
-47 -49 -91 -55 -98 -7 -7 -13 -21 -13 -31 0 -10 -13 -45 -30 -77 -16 -32 -30
-63 -30 -68 0 -5 -13 -36 -28 -70 -16 -34 -37 -88 -47 -121 -10 -33 -24 -74
-32 -92 -7 -17 -13 -42 -13 -56 0 -26 -54 -105 -80 -117 -28 -14 -155 -40
-192 -40 -21 0 -55 -6 -75 -14 -21 -8 -58 -17 -83 -20 -66 -7 -145 -21 -375
-66 -33 -7 -87 -16 -120 -20 -33 -4 -80 -13 -105 -18 -97 -24 -147 -34 -201
-41 -57 -9 -91 -22 -121 -49 -17 -14 -18 -58 -18 -659 0 -709 -3 -680 62 -702
16 -6 60 -14 96 -17 37 -4 75 -11 85 -16 9 -5 45 -13 80 -18 88 -13 173 -29
238 -46 30 -8 71 -14 90 -14 19 0 56 -7 83 -15 27 -8 65 -15 83 -15 19 0 42
-4 52 -10 10 -5 49 -14 87 -19 84 -12 200 -35 232 -45 13 -5 35 -9 48 -11 13
-1 33 -8 44 -16 21 -14 59 -106 60 -144 0 -11 6 -29 14 -40 7 -11 16 -39 20
-63 3 -24 10 -51 15 -60 5 -9 19 -46 31 -82 12 -36 33 -87 45 -115 13 -27 27
-62 31 -78 3 -15 10 -27 15 -27 5 0 9 -8 9 -18 0 -10 7 -27 15 -38 8 -10 15
-29 15 -40 0 -12 7 -27 15 -34 8 -7 15 -16 15 -19 0 -4 21 -45 46 -92 56 -102
65 -166 31 -213 -78 -104 -98 -133 -104 -146 -3 -8 -18 -31 -33 -50 -15 -19
-30 -42 -33 -50 -4 -8 -40 -62 -81 -120 -41 -58 -93 -134 -116 -170 -22 -36
-63 -96 -90 -135 -27 -38 -76 -108 -107 -155 -32 -47 -67 -95 -78 -108 -33
-38 -35 -57 -13 -98 19 -36 785 -812 879 -889 22 -19 52 -35 65 -35 13 0 62
26 110 58 48 31 104 68 125 82 47 31 122 83 129 90 17 17 216 151 254 170 16
8 31 21 33 28 3 7 20 19 37 27 17 8 69 42 116 75 242 171 248 174 281 144 9
-8 50 -32 91 -53 40 -21 129 -67 198 -103 153 -80 169 -84 204 -57 14 11 26
28 26 37 0 9 7 26 15 36 8 11 15 30 15 42 0 12 7 27 15 34 8 7 15 21 15 31 0
11 4 27 9 37 5 9 18 36 30 58 11 23 21 48 21 56 0 9 14 40 30 71 17 31 30 65
30 76 0 10 7 24 15 31 8 7 15 20 15 29 0 9 6 25 13 36 7 11 21 45 31 75 10 30
31 82 47 116 16 33 29 66 29 72 0 7 4 20 9 30 20 35 81 174 81 183 0 5 14 37
30 71 17 34 30 67 30 74 0 7 6 25 14 41 8 15 22 46 31 68 9 22 20 48 25 57 6
10 10 22 10 28 0 6 13 39 29 73 16 34 32 73 36 87 4 14 14 34 21 45 8 11 14
27 14 37 0 10 13 44 29 76 42 83 61 130 61 151 0 10 7 24 15 31 8 7 15 21 15
30 0 10 6 31 14 47 8 15 19 39 25 53 5 14 20 49 32 78 31 76 22 95 -80 163
-45 30 -86 60 -89 65 -4 6 -25 21 -47 34 -65 39 -178 135 -241 206 -70 79
-154 189 -154 202 0 5 -13 27 -28 48 -15 21 -43 75 -61 119 -18 44 -39 94 -46
110 -8 17 -17 49 -20 72 -4 24 -11 45 -16 49 -5 3 -9 22 -9 42 0 21 -7 64 -15
95 -17 66 -21 317 -5 347 5 10 12 44 15 76 11 106 95 355 141 414 6 8 26 42
44 75 18 33 38 65 44 71 6 7 38 44 71 83 51 62 134 142 210 204 56 46 129 91
205 128 154 75 185 88 223 95 20 3 40 10 43 15 3 5 17 9 32 9 15 0 49 7 76 15
70 21 442 21 512 0 27 -8 61 -15 76 -15 15 0 29 -4 32 -9 3 -5 23 -12 43 -15
85 -15 329 -142 428 -223 76 -62 159 -142 210 -204 33 -39 65 -76 71 -83 6 -6
26 -38 44 -71 18 -33 38 -67 44 -75 46 -59 130 -308 141 -414 3 -32 10 -66 15
-76 16 -30 12 -281 -5 -347 -8 -31 -15 -74 -15 -95 0 -20 -4 -39 -9 -43 -6 -3
-13 -27 -17 -53 -4 -26 -13 -56 -20 -67 -8 -11 -14 -25 -14 -32 0 -7 -13 -42
-30 -76 -16 -35 -30 -67 -30 -71 0 -3 -13 -25 -30 -48 -16 -22 -30 -45 -30
-50 0 -13 -84 -123 -154 -202 -63 -70 -176 -167 -241 -206 -22 -14 -51 -35
-65 -48 -14 -13 -55 -41 -92 -64 -37 -22 -70 -49 -74 -60 -9 -28 3 -79 30
-130 13 -25 27 -59 31 -76 3 -18 11 -34 16 -37 5 -4 9 -14 9 -24 0 -9 5 -22
12 -29 12 -12 34 -66 47 -117 5 -16 20 -51 35 -77 14 -26 26 -55 26 -65 0 -10
6 -27 13 -38 8 -11 24 -48 37 -83 12 -34 27 -65 31 -68 5 -3 9 -13 9 -23 0
-19 67 -180 81 -195 5 -6 9 -22 9 -37 0 -15 7 -32 15 -39 8 -7 15 -21 15 -31
0 -11 4 -19 10 -19 5 0 12 -12 16 -28 6 -26 49 -137 86 -218 10 -22 18 -44 18
-48 0 -4 11 -31 23 -59 13 -29 32 -72 41 -97 10 -25 24 -58 32 -73 8 -16 14
-34 14 -42 0 -7 7 -18 15 -25 8 -7 15 -21 15 -31 0 -11 13 -47 29 -81 15 -35
38 -88 50 -118 24 -60 36 -89 56 -135 7 -16 21 -52 31 -79 10 -26 24 -54 31
-62 28 -28 80 -16 196 45 228 120 272 143 298 162 15 10 32 19 38 19 12 0 175
-103 225 -142 32 -25 122 -83 146 -95 8 -4 28 -19 43 -35 16 -15 32 -28 37
-28 5 0 48 -27 97 -60 48 -33 96 -65 107 -72 10 -7 24 -17 30 -23 7 -5 19 -14
27 -20 9 -5 47 -31 85 -58 38 -26 105 -72 149 -102 47 -32 91 -55 107 -55 16
0 43 14 69 36 89 74 869 862 869 878 0 9 5 16 10 16 21 0 9 54 -22 99 -18 25
-54 78 -81 116 -26 39 -63 93 -82 121 -19 29 -40 58 -48 66 -8 7 -26 36 -41
63 -15 28 -36 59 -46 70 -9 11 -55 76 -101 145 -46 69 -86 127 -89 130 -3 3
-17 23 -30 45 -13 22 -36 55 -52 73 -15 18 -28 39 -28 47 0 8 -6 18 -13 22
-29 18 -45 60 -42 109 2 37 16 73 55 144 29 52 61 115 72 140 11 25 28 63 38
85 10 22 33 78 51 125 18 47 38 99 46 117 7 17 13 38 13 46 0 8 7 28 15 43 8
16 15 39 15 51 0 12 6 37 14 55 8 18 23 62 33 97 25 86 39 95 208 122 33 5 73
13 90 18 30 10 105 23 220 41 33 5 73 13 88 19 16 6 45 11 64 11 20 0 62 6 92
14 65 17 150 33 238 46 35 5 71 13 80 18 10 5 48 12 85 16 36 3 80 11 96 17
65 22 62 -7 62 702 0 601 -1 645 -17 659 -31 27 -65 40 -122 49 -54 7 -106 18
-201 41 -25 6 -74 14 -110 19 -69 8 -137 21 -237 45 -34 8 -77 14 -96 14 -18
0 -56 7 -83 15 -27 8 -66 15 -87 15 -21 0 -54 7 -74 15 -19 8 -54 15 -77 15
-22 0 -59 7 -81 15 -22 8 -53 14 -68 15 -16 0 -40 9 -54 20 -30 24 -63 82 -63
111 0 12 -6 35 -13 52 -8 18 -22 59 -32 92 -10 33 -31 87 -47 121 -15 34 -28
65 -28 70 0 5 -14 36 -30 68 -17 32 -30 67 -30 77 0 10 -6 24 -13 31 -7 7 -26
40 -43 73 -17 33 -52 100 -78 150 -55 106 -62 79 72 278 50 76 92 142 92 147
0 6 4 10 8 10 5 0 14 10 21 23 6 12 25 40 42 62 16 22 50 69 74 105 25 36 63
91 85 123 22 32 40 60 40 63 0 3 5 10 10 17 24 28 99 136 113 163 8 16 24 38
36 48 12 11 21 24 21 31 0 7 9 20 20 30 24 21 60 98 60 127 0 15 -315 343
-582 606 -15 15 -97 96 -182 180 -146 144 -156 152 -193 152 -31 0 -54 -10
-112 -52 -171 -123 -208 -149 -251 -172 -25 -14 -60 -39 -79 -56 -18 -16 -37
-30 -42 -30 -7 0 -231 -153 -288 -197 -13 -10 -34 -25 -46 -33 -13 -8 -82 -55
-154 -104 l-131 -89 -56 6 c-31 3 -63 12 -73 20 -14 13 -156 83 -251 125 -19
8 -47 21 -62 29 -14 7 -32 13 -40 13 -8 0 -39 12 -69 26 -30 15 -67 30 -84 35
-16 4 -61 19 -99 33 -38 14 -79 26 -91 26 -11 0 -30 7 -41 15 -10 8 -26 15
-34 15 -40 1 -89 97 -90 175 -1 22 -7 58 -15 80 -8 22 -15 61 -15 86 0 26 -6
69 -14 95 -18 61 -35 149 -45 234 -4 36 -13 75 -19 87 -7 12 -12 42 -12 66 0
25 -7 64 -15 87 -8 23 -15 57 -15 75 0 33 -32 198 -49 250 -5 17 -12 51 -16
77 -4 32 -12 51 -25 58 -30 16 -1322 14 -1343 -2z"/>
</g>
</svg>
